NotoSerifSinhala-CondensedBold.ufo
<glyph name="exclam.sinh" format="2">
  <advance width="345"/>
  <unicode hex="0021"/>
  <outline>
    <contour>
      <point x="78" y="714" type="line"/>
      <point x="132" y="235" type="line"/>
      <point x="213" y="235" type="line"/>
      <point x="267" y="714" type="line"/>
    </contour>
    <contour>
      <point x="174" y="-9" type="curve" smooth="yes"/>
      <point x="223" y="-9"/>
      <point x="258" y="18"/>
      <point x="258" y="79" type="curve" smooth="yes"/>
      <point x="258" y="140"/>
      <point x="223" y="167"/>
      <point x="174" y="167" type="curve" smooth="yes"/>
      <point x="125" y="167"/>
      <point x="90" y="140"/>
      <point x="90" y="79" type="curve" smooth="yes"/>
      <point x="90" y="18"/>
      <point x="125" y="-9"/>
    </contour>
  </outline>
</glyph>
<glyph name="quotedbl.sinh" format="2">
  <advance width="481"/>
  <unicode hex="0022"/>
  <outline>
    <contour>
      <point x="258" y="799" type="line"/>
      <point x="305" y="507" type="line"/>
      <point x="380" y="507" type="line"/>
      <point x="427" y="799" type="line"/>
    </contour>
    <contour>
      <point x="54" y="799" type="line"/>
      <point x="101" y="507" type="line"/>
      <point x="176" y="507" type="line"/>
      <point x="223" y="799" type="line"/>
    </contour>
  </outline>
</glyph>
<glyph name="numbersign.sinh" format="2">
  <advance width="570"/>
  <unicode hex="0023"/>
  <outline>
    <contour>
      <point x="123" y="199" type="line"/>
      <point x="85" y="0" type="line"/>
      <point x="165" y="0" type="line"/>
      <point x="202" y="199" type="line"/>
      <point x="306" y="199" type="line"/>
      <point x="270" y="0" type="line"/>
      <point x="350" y="0" type="line"/>
      <point x="385" y="199" type="line"/>
      <point x="511" y="199" type="line"/>
      <point x="511" y="271" type="line"/>
      <point x="401" y="271" type="line"/>
      <point x="433" y="447" type="line"/>
      <point x="543" y="447" type="line"/>
      <point x="543" y="521" type="line"/>
      <point x="447" y="521" type="line"/>
      <point x="485" y="714" type="line"/>
      <point x="405" y="714" type="line"/>
      <point x="368" y="521" type="line"/>
      <point x="264" y="521" type="line"/>
      <point x="300" y="714" type="line"/>
      <point x="220" y="714" type="line"/>
      <point x="185" y="521" type="line"/>
      <point x="59" y="521" type="line"/>
      <point x="59" y="447" type="line"/>
      <point x="170" y="447" type="line"/>
      <point x="137" y="271" type="line"/>
      <point x="27" y="271" type="line"/>
      <point x="27" y="199" type="line"/>
    </contour>
    <contour>
      <point x="322" y="271" type="line"/>
      <point x="216" y="271" type="line"/>
      <point x="250" y="447" type="line"/>
      <point x="355" y="447" type="line"/>
    </contour>
  </outline>
</glyph>
<glyph name="percent.sinh" format="2">
  <advance width="817"/>
  <unicode hex="0025"/>
  <outline>
    <contour>
      <point x="509" y="714" type="line"/>
      <point x="230" y="0" type="line"/>
      <point x="306" y="0" type="line"/>
      <point x="585" y="714" type="line"/>
    </contour>
    <contour>
      <point x="201" y="280" type="curve" smooth="yes"/>
      <point x="310" y="280"/>
      <point x="362" y="369"/>
      <point x="362" y="503" type="curve" smooth="yes"/>
      <point x="362" y="637"/>
      <point x="310" y="724"/>
      <point x="202" y="724" type="curve" smooth="yes"/>
      <point x="88" y="724"/>
      <point x="41" y="637"/>
      <point x="41" y="503" type="curve" smooth="yes"/>
      <point x="41" y="369"/>
      <point x="88" y="280"/>
    </contour>
    <contour>
      <point x="202" y="334" type="curve" smooth="yes"/>
      <point x="164" y="334"/>
      <point x="150" y="393"/>
      <point x="150" y="503" type="curve" smooth="yes"/>
      <point x="150" y="612"/>
      <point x="164" y="669"/>
      <point x="202" y="669" type="curve" smooth="yes"/>
      <point x="240" y="669"/>
      <point x="252" y="612"/>
      <point x="252" y="503" type="curve" smooth="yes"/>
      <point x="252" y="392"/>
      <point x="240" y="334"/>
    </contour>
    <contour>
      <point x="616" y="-10" type="curve" smooth="yes"/>
      <point x="724" y="-10"/>
      <point x="776" y="79"/>
      <point x="776" y="213" type="curve" smooth="yes"/>
      <point x="776" y="347"/>
      <point x="720" y="434"/>
      <point x="613" y="434" type="curve" smooth="yes"/>
      <point x="499" y="434"/>
      <point x="456" y="347"/>
      <point x="456" y="213" type="curve" smooth="yes"/>
      <point x="456" y="79"/>
      <point x="503" y="-10"/>
    </contour>
    <contour>
      <point x="616" y="44" type="curve" smooth="yes"/>
      <point x="579" y="44"/>
      <point x="565" y="102"/>
      <point x="565" y="213" type="curve" smooth="yes"/>
      <point x="565" y="322"/>
      <point x="579" y="379"/>
      <point x="617" y="379" type="curve" smooth="yes"/>
      <point x="654" y="379"/>
      <point x="667" y="322"/>
      <point x="667" y="213" type="curve" smooth="yes"/>
      <point x="667" y="102"/>
      <point x="654" y="44"/>
    </contour>
  </outline>
</glyph>
<glyph name="quotesingle.sinh" format="2">
  <advance width="277"/>
  <unicode hex="0027"/>
  <outline>
    <contour>
      <point x="54" y="799" type="line"/>
      <point x="101" y="507" type="line"/>
      <point x="176" y="507" type="line"/>
      <point x="223" y="799" type="line"/>
    </contour>
  </outline>
</glyph>
<glyph name="parenleft.sinh" format="2">
  <advance width="385"/>
  <unicode hex="0028"/>
  <outline>
    <contour>
      <point x="355" y="-264" type="curve"/>
      <point x="355" y="-189" type="line"/>
      <point x="274" y="-117"/>
      <point x="206" y="2"/>
      <point x="206" y="271" type="curve" smooth="yes"/>
      <point x="206" y="538"/>
      <point x="274" y="657"/>
      <point x="355" y="729" type="curve"/>
      <point x="355" y="804" type="line"/>
      <point x="139" y="735"/>
      <point x="49" y="520"/>
      <point x="49" y="271" type="curve" smooth="yes"/>
      <point x="49" y="20"/>
      <point x="139" y="-195"/>
    </contour>
  </outline>
</glyph>
<glyph name="parenright.sinh" format="2">
  <advance width="385"/>
  <unicode hex="0029"/>
  <outline>
    <contour>
      <point x="30" y="804" type="curve"/>
      <point x="30" y="729" type="line"/>
      <point x="111" y="657"/>
      <point x="179" y="538"/>
      <point x="179" y="269" type="curve" smooth="yes"/>
      <point x="179" y="2"/>
      <point x="111" y="-117"/>
      <point x="30" y="-189" type="curve"/>
      <point x="30" y="-264" type="line"/>
      <point x="246" y="-195"/>
      <point x="336" y="20"/>
      <point x="336" y="269" type="curve" smooth="yes"/>
      <point x="336" y="520"/>
      <point x="246" y="735"/>
    </contour>
  </outline>
</glyph>
<glyph name="asterisk.sinh" format="2">
  <advance width="474"/>
  <unicode hex="002A"/>
  <outline>
    <contour>
      <point x="212" y="569" type="line"/>
      <point x="181" y="402" type="line"/>
      <point x="294" y="402" type="line"/>
      <point x="260" y="567" type="line"/>
      <point x="378" y="464" type="line"/>
      <point x="432" y="561" type="line"/>
      <point x="304" y="601" type="line"/>
      <point x="432" y="640" type="line"/>
      <point x="378" y="738" type="line"/>
      <point x="260" y="635" type="line"/>
      <point x="295" y="799" type="line"/>
      <point x="181" y="799" type="line"/>
      <point x="213" y="633" type="line"/>
      <point x="95" y="740" type="line"/>
      <point x="42" y="641" type="line"/>
      <point x="170" y="601" type="line"/>
      <point x="42" y="560" type="line"/>
      <point x="94" y="463" type="line"/>
    </contour>
  </outline>
</glyph>
<glyph name="comma.sinh" format="2">
  <advance width="295"/>
  <unicode hex="002C"/>
  <outline>
    <contour>
      <point x="140" y="167" type="curve" smooth="yes"/>
      <point x="102" y="167"/>
      <point x="59" y="144"/>
      <point x="59" y="89" type="curve" smooth="yes"/>
      <point x="59" y="8"/>
      <point x="132" y="19"/>
      <point x="132" y="-25" type="curve" smooth="yes"/>
      <point x="132" y="-58"/>
      <point x="102" y="-79"/>
      <point x="52" y="-98" type="curve"/>
      <point x="52" y="-157" type="line"/>
      <point x="174" y="-122"/>
      <point x="240" y="-42"/>
      <point x="240" y="49" type="curve" smooth="yes"/>
      <point x="240" y="123"/>
      <point x="204" y="167"/>
    </contour>
  </outline>
</glyph>
<glyph name="period.sinh" format="2">
  <advance width="295"/>
  <unicode hex="002E"/>
  <outline>
    <contour>
      <point x="148" y="-9" type="curve" smooth="yes"/>
      <point x="197" y="-9"/>
      <point x="232" y="18"/>
      <point x="232" y="79" type="curve" smooth="yes"/>
      <point x="232" y="140"/>
      <point x="197" y="167"/>
      <point x="148" y="167" type="curve" smooth="yes"/>
      <point x="99" y="167"/>
      <point x="64" y="140"/>
      <point x="64" y="79" type="curve" smooth="yes"/>
      <point x="64" y="18"/>
      <point x="99" y="-9"/>
    </contour>
  </outline>
</glyph>
<glyph name="zero.sinh" format="2">
  <advance width="475"/>
  <unicode hex="0030"/>
  <outline>
    <contour>
      <point x="238" y="-10" type="curve" smooth="yes"/>
      <point x="394" y="-10"/>
      <point x="441" y="134"/>
      <point x="441" y="358" type="curve" smooth="yes"/>
      <point x="441" y="584"/>
      <point x="394" y="724"/>
      <point x="239" y="724" type="curve" smooth="yes"/>
      <point x="75" y="724"/>
      <point x="34" y="582"/>
      <point x="34" y="359" type="curve" smooth="yes"/>
      <point x="34" y="133"/>
      <point x="75" y="-10"/>
    </contour>
    <contour>
      <point x="238" y="57" type="curve" smooth="yes"/>
      <point x="190" y="57"/>
      <point x="183" y="168"/>
      <point x="183" y="358" type="curve" smooth="yes"/>
      <point x="183" y="548"/>
      <point x="190" y="657"/>
      <point x="239" y="657" type="curve" smooth="yes"/>
      <point x="285" y="657"/>
      <point x="292" y="548"/>
      <point x="292" y="358" type="curve" smooth="yes"/>
      <point x="292" y="168"/>
      <point x="285" y="57"/>
    </contour>
  </outline>
</glyph>
<glyph name="one.sinh" format="2">
  <advance width="475"/>
  <unicode hex="0031"/>
  <outline>
    <contour>
      <point x="73" y="59" type="line"/>
      <point x="73" y="0" type="line"/>
      <point x="441" y="0" type="line"/>
      <point x="441" y="59" type="line"/>
      <point x="388" y="59" type="line" smooth="yes"/>
      <point x="356" y="59"/>
      <point x="339" y="83"/>
      <point x="339" y="122" type="curve" smooth="yes"/>
      <point x="339" y="718" type="line"/>
      <point x="220" y="718" type="line"/>
      <point x="162" y="670" type="line" smooth="yes"/>
      <point x="105" y="623"/>
      <point x="62" y="606"/>
      <point x="29" y="596" type="curve"/>
      <point x="29" y="547"/>
      <point x="53" y="517"/>
      <point x="82" y="517" type="curve" smooth="yes"/>
      <point x="116" y="517"/>
      <point x="150" y="548"/>
      <point x="190" y="606" type="curve"/>
      <point x="190" y="122" type="line" smooth="yes"/>
      <point x="190" y="73"/>
      <point x="167" y="59"/>
      <point x="141" y="59" type="curve" smooth="yes"/>
    </contour>
  </outline>
</glyph>
<glyph name="two.sinh" format="2">
  <advance width="475"/>
  <unicode hex="0032"/>
  <outline>
    <contour>
      <point x="23" y="103" type="line"/>
      <point x="23" y="0" type="line"/>
      <point x="441" y="0" type="line"/>
      <point x="445" y="225" type="line"/>
      <point x="382" y="225" type="line"/>
      <point x="373" y="190" type="line" smooth="yes"/>
      <point x="362" y="143"/>
      <point x="336" y="123"/>
      <point x="305" y="123" type="curve" smooth="yes"/>
      <point x="134" y="123" type="line"/>
      <point x="241" y="229" type="line" smooth="yes"/>
      <point x="349" y="337"/>
      <point x="425" y="433"/>
      <point x="425" y="550" type="curve" smooth="yes"/>
      <point x="425" y="654"/>
      <point x="356" y="724"/>
      <point x="217" y="724" type="curve" smooth="yes"/>
      <point x="85" y="724"/>
      <point x="23" y="651"/>
      <point x="23" y="582" type="curve" smooth="yes"/>
      <point x="23" y="507"/>
      <point x="80" y="488"/>
      <point x="146" y="488" type="curve"/>
      <point x="146" y="612"/>
      <point x="175" y="660"/>
      <point x="217" y="660" type="curve" smooth="yes"/>
      <point x="244" y="660"/>
      <point x="270" y="637"/>
      <point x="270" y="549" type="curve" smooth="yes"/>
      <point x="270" y="448"/>
      <point x="233" y="364"/>
      <point x="131" y="237" type="curve" smooth="yes"/>
    </contour>
  </outline>
</glyph>
<glyph name="three.sinh" format="2">
  <advance width="475"/>
  <unicode hex="0033"/>
  <outline>
    <contour>
      <point x="205" y="-10" type="curve" smooth="yes"/>
      <point x="335" y="-10"/>
      <point x="446" y="43"/>
      <point x="446" y="204" type="curve" smooth="yes"/>
      <point x="446" y="313"/>
      <point x="373" y="363"/>
      <point x="302" y="380" type="curve"/>
      <point x="371" y="411"/>
      <point x="425" y="468"/>
      <point x="425" y="558" type="curve" smooth="yes"/>
      <point x="425" y="664"/>
      <point x="348" y="724"/>
      <point x="219" y="724" type="curve" smooth="yes"/>
      <point x="88" y="724"/>
      <point x="27" y="657"/>
      <point x="27" y="589" type="curve" smooth="yes"/>
      <point x="27" y="527"/>
      <point x="74" y="504"/>
      <point x="146" y="504" type="curve"/>
      <point x="146" y="593"/>
      <point x="164" y="660"/>
      <point x="212" y="660" type="curve" smooth="yes"/>
      <point x="244" y="660"/>
      <point x="271" y="624"/>
      <point x="271" y="546" type="curve" smooth="yes"/>
      <point x="271" y="460"/>
      <point x="250" y="403"/>
      <point x="165" y="403" type="curve" smooth="yes"/>
      <point x="112" y="403" type="line"/>
      <point x="112" y="337" type="line"/>
      <point x="158" y="337" type="line" smooth="yes"/>
      <point x="249" y="337"/>
      <point x="291" y="282"/>
      <point x="291" y="205" type="curve" smooth="yes"/>
      <point x="291" y="94"/>
      <point x="251" y="64"/>
      <point x="200" y="64" type="curve" smooth="yes"/>
      <point x="137" y="64"/>
      <point x="101" y="113"/>
      <point x="101" y="202" type="curve"/>
      <point x="57" y="202"/>
      <point x="16" y="175"/>
      <point x="16" y="121" type="curve" smooth="yes"/>
      <point x="16" y="46"/>
      <point x="67" y="-10"/>
    </contour>
  </outline>
</glyph>
<glyph name="four.sinh" format="2">
  <advance width="475"/>
  <unicode hex="0034"/>
  <outline>
    <contour>
      <point x="138" y="58" type="line"/>
      <point x="138" y="0" type="line"/>
      <point x="462" y="0" type="line"/>
      <point x="462" y="58" type="line"/>
      <point x="451" y="58" type="line" smooth="yes"/>
      <point x="414" y="58"/>
      <point x="382" y="65"/>
      <point x="382" y="128" type="curve" smooth="yes"/>
      <point x="382" y="188" type="line"/>
      <point x="457" y="188" type="line"/>
      <point x="457" y="258" type="line"/>
      <point x="382" y="258" type="line"/>
      <point x="382" y="714" type="line"/>
      <point x="234" y="714" type="line"/>
      <point x="19" y="255" type="line"/>
      <point x="19" y="188" type="line"/>
      <point x="230" y="188" type="line"/>
      <point x="230" y="128" type="line" smooth="yes"/>
      <point x="230" y="65"/>
      <point x="199" y="58"/>
      <point x="162" y="58" type="curve" smooth="yes"/>
    </contour>
    <contour>
      <point x="231" y="258" type="line"/>
      <point x="94" y="258" type="line"/>
      <point x="182" y="450" type="line" smooth="yes"/>
      <point x="204" y="498"/>
      <point x="219" y="535"/>
      <point x="236" y="585" type="curve"/>
      <point x="232" y="527"/>
      <point x="231" y="493"/>
      <point x="231" y="435" type="curve" smooth="yes"/>
    </contour>
  </outline>
</glyph>
<glyph name="five.sinh" format="2">
  <advance width="475"/>
  <unicode hex="0035"/>
  <outline>
    <contour>
      <point x="218" y="-10" type="curve" smooth="yes"/>
      <point x="288" y="-10"/>
      <point x="436" y="24"/>
      <point x="436" y="215" type="curve" smooth="yes"/>
      <point x="436" y="364"/>
      <point x="350" y="436"/>
      <point x="205" y="436" type="curve" smooth="yes"/>
      <point x="182" y="436"/>
      <point x="140" y="431"/>
      <point x="122" y="422" type="curve"/>
      <point x="137" y="597" type="line"/>
      <point x="311" y="597" type="line" smooth="yes"/>
      <point x="332" y="597"/>
      <point x="338" y="583"/>
      <point x="344" y="557" type="curve"/>
      <point x="354" y="524" type="line"/>
      <point x="411" y="524" type="line"/>
      <point x="407" y="714" type="line"/>
      <point x="81" y="714" type="line"/>
      <point x="50" y="373" type="line"/>
      <point x="89" y="352" type="line"/>
      <point x="118" y="360"/>
      <point x="143" y="368"/>
      <point x="174" y="368" type="curve" smooth="yes"/>
      <point x="249" y="368"/>
      <point x="281" y="319"/>
      <point x="281" y="220" type="curve" smooth="yes"/>
      <point x="281" y="97"/>
      <point x="242" y="61"/>
      <point x="188" y="61" type="curve" smooth="yes"/>
      <point x="120" y="61"/>
      <point x="103" y="132"/>
      <point x="103" y="190" type="curve"/>
      <point x="60" y="190"/>
      <point x="26" y="166"/>
      <point x="26" y="118" type="curve" smooth="yes"/>
      <point x="26" y="51"/>
      <point x="80" y="-10"/>
    </contour>
  </outline>
</glyph>
<glyph name="six.sinh" format="2">
  <advance width="475"/>
  <unicode hex="0036"/>
  <outline>
    <contour>
      <point x="248" y="-10" type="curve" smooth="yes"/>
      <point x="385" y="-10"/>
      <point x="451" y="88"/>
      <point x="451" y="231" type="curve" smooth="yes"/>
      <point x="451" y="362"/>
      <point x="385" y="439"/>
      <point x="284" y="439" type="curve" smooth="yes"/>
      <point x="226" y="439"/>
      <point x="199" y="420"/>
      <point x="178" y="404" type="curve"/>
      <point x="186" y="567"/>
      <point x="212" y="662"/>
      <point x="264" y="662" type="curve" smooth="yes"/>
      <point x="301" y="662"/>
      <point x="321" y="602"/>
      <point x="321" y="530" type="curve"/>
      <point x="405" y="530"/>
      <point x="434" y="566"/>
      <point x="434" y="612" type="curve" smooth="yes"/>
      <point x="434" y="671"/>
      <point x="388" y="724"/>
      <point x="269" y="724" type="curve" smooth="yes"/>
      <point x="111" y="724"/>
      <point x="31" y="584"/>
      <point x="31" y="332" type="curve" smooth="yes"/>
      <point x="31" y="97"/>
      <point x="116" y="-10"/>
    </contour>
    <contour>
      <point x="251" y="58" type="curve" smooth="yes"/>
      <point x="212" y="58"/>
      <point x="180" y="139"/>
      <point x="179" y="340" type="curve"/>
      <point x="193" y="353"/>
      <point x="213" y="372"/>
      <point x="243" y="372" type="curve" smooth="yes"/>
      <point x="278" y="372"/>
      <point x="303" y="328"/>
      <point x="303" y="221" type="curve" smooth="yes"/>
      <point x="303" y="97"/>
      <point x="281" y="58"/>
    </contour>
  </outline>
</glyph>
<glyph name="seven.sinh" format="2">
  <advance width="475"/>
  <unicode hex="0037"/>
  <outline>
    <contour>
      <point x="344" y="590" type="line"/>
      <point x="116" y="0" type="line"/>
      <point x="217" y="0" type="line"/>
      <point x="441" y="653" type="line"/>
      <point x="441" y="714" type="line"/>
      <point x="41" y="714" type="line"/>
      <point x="36" y="496" type="line"/>
      <point x="100" y="496" type="line"/>
      <point x="107" y="545" type="line" smooth="yes"/>
      <point x="112" y="580"/>
      <point x="125" y="590"/>
      <point x="155" y="590" type="curve" smooth="yes"/>
    </contour>
  </outline>
</glyph>
<glyph name="eight.sinh" format="2">
  <advance width="475"/>
  <unicode hex="0038"/>
  <outline>
    <contour>
      <point x="238" y="-10" type="curve" smooth="yes"/>
      <point x="381" y="-10"/>
      <point x="453" y="69"/>
      <point x="453" y="189" type="curve" smooth="yes"/>
      <point x="453" y="276"/>
      <point x="411" y="337"/>
      <point x="325" y="392" type="curve"/>
      <point x="394" y="428"/>
      <point x="439" y="472"/>
      <point x="439" y="561" type="curve" smooth="yes"/>
      <point x="439" y="651"/>
      <point x="376" y="724"/>
      <point x="245" y="724" type="curve" smooth="yes"/>
      <point x="105" y="724"/>
      <point x="40" y="642"/>
      <point x="40" y="542" type="curve" smooth="yes"/>
      <point x="40" y="458"/>
      <point x="85" y="401"/>
      <point x="151" y="358" type="curve"/>
      <point x="87" y="326"/>
      <point x="23" y="274"/>
      <point x="23" y="174" type="curve" smooth="yes"/>
      <point x="23" y="75"/>
      <point x="81" y="-10"/>
    </contour>
    <contour>
      <point x="241" y="52" type="curve" smooth="yes"/>
      <point x="193" y="52"/>
      <point x="159" y="94"/>
      <point x="159" y="173" type="curve" smooth="yes"/>
      <point x="159" y="248"/>
      <point x="181" y="288"/>
      <point x="209" y="319" type="curve"/>
      <point x="272" y="275"/>
      <point x="304" y="226"/>
      <point x="304" y="160" type="curve" smooth="yes"/>
      <point x="304" y="85"/>
      <point x="282" y="52"/>
    </contour>
    <contour>
      <point x="259" y="431" type="curve"/>
      <point x="218" y="457"/>
      <point x="181" y="495"/>
      <point x="181" y="561" type="curve" smooth="yes"/>
      <point x="181" y="624"/>
      <point x="207" y="662"/>
      <point x="246" y="662" type="curve" smooth="yes"/>
      <point x="283" y="662"/>
      <point x="303" y="623"/>
      <point x="303" y="558" type="curve" smooth="yes"/>
      <point x="303" y="489"/>
      <point x="280" y="455"/>
    </contour>
  </outline>
</glyph>
<glyph name="nine.sinh" format="2">
  <advance width="475"/>
  <unicode hex="0039"/>
  <outline>
    <contour>
      <point x="194" y="-10" type="curve" smooth="yes"/>
      <point x="372" y="-10"/>
      <point x="444" y="159"/>
      <point x="444" y="388" type="curve" smooth="yes"/>
      <point x="444" y="633"/>
      <point x="351" y="724"/>
      <point x="224" y="724" type="curve" smooth="yes"/>
      <point x="99" y="724"/>
      <point x="24" y="628"/>
      <point x="24" y="485" type="curve" smooth="yes"/>
      <point x="24" y="351"/>
      <point x="92" y="277"/>
      <point x="186" y="277" type="curve" smooth="yes"/>
      <point x="244" y="277"/>
      <point x="278" y="296"/>
      <point x="299" y="318" type="curve"/>
      <point x="293" y="136"/>
      <point x="262" y="56"/>
      <point x="201" y="56" type="curve" smooth="yes"/>
      <point x="142" y="56"/>
      <point x="122" y="110"/>
      <point x="105" y="175" type="curve"/>
      <point x="61" y="167"/>
      <point x="46" y="134"/>
      <point x="46" y="104" type="curve" smooth="yes"/>
      <point x="46" y="43"/>
      <point x="88" y="-10"/>
    </contour>
    <contour>
      <point x="236" y="350" type="curve" smooth="yes"/>
      <point x="193" y="350"/>
      <point x="170" y="403"/>
      <point x="170" y="488" type="curve" smooth="yes"/>
      <point x="170" y="599"/>
      <point x="188" y="655"/>
      <point x="227" y="655" type="curve" smooth="yes"/>
      <point x="270" y="655"/>
      <point x="296" y="576"/>
      <point x="297" y="386" type="curve"/>
      <point x="277" y="364"/>
      <point x="262" y="350"/>
    </contour>
  </outline>
</glyph>
<glyph name="colon.sinh" format="2">
  <advance width="305"/>
  <unicode hex="003A"/>
  <outline>
    <contour>
      <point x="153" y="353" type="curve" smooth="yes"/>
      <point x="202" y="353"/>
      <point x="237" y="380"/>
      <point x="237" y="441" type="curve" smooth="yes"/>
      <point x="237" y="502"/>
      <point x="202" y="529"/>
      <point x="153" y="529" type="curve" smooth="yes"/>
      <point x="104" y="529"/>
      <point x="69" y="502"/>
      <point x="69" y="441" type="curve" smooth="yes"/>
      <point x="69" y="380"/>
      <point x="104" y="353"/>
    </contour>
    <contour>
      <point x="153" y="-9" type="curve" smooth="yes"/>
      <point x="202" y="-9"/>
      <point x="237" y="18"/>
      <point x="237" y="79" type="curve" smooth="yes"/>
      <point x="237" y="140"/>
      <point x="202" y="167"/>
      <point x="153" y="167" type="curve" smooth="yes"/>
      <point x="104" y="167"/>
      <point x="69" y="140"/>
      <point x="69" y="79" type="curve" smooth="yes"/>
      <point x="69" y="18"/>
      <point x="104" y="-9"/>
    </contour>
  </outline>
</glyph>
<glyph name="semicolon.sinh" format="2">
  <advance width="305"/>
  <unicode hex="003B"/>
  <outline>
    <contour>
      <point x="153" y="353" type="curve" smooth="yes"/>
      <point x="202" y="353"/>
      <point x="237" y="380"/>
      <point x="237" y="441" type="curve" smooth="yes"/>
      <point x="237" y="502"/>
      <point x="202" y="529"/>
      <point x="153" y="529" type="curve" smooth="yes"/>
      <point x="104" y="529"/>
      <point x="69" y="502"/>
      <point x="69" y="441" type="curve" smooth="yes"/>
      <point x="69" y="380"/>
      <point x="104" y="353"/>
    </contour>
    <component base="comma.sinh" xOffset="5"/>
  </outline>
</glyph>
<glyph name="less.sinh" format="2">
  <advance width="475"/>
  <unicode hex="003C"/>
  <outline>
    <contour>
      <point x="40" y="335" type="line"/>
      <point x="435" y="100" type="line"/>
      <point x="435" y="191" type="line"/>
      <point x="141" y="357" type="line"/>
      <point x="435" y="525" type="line"/>
      <point x="435" y="616" type="line"/>
      <point x="40" y="380" type="line"/>
    </contour>
  </outline>
</glyph>
<glyph name="equal.sinh" format="2">
  <advance width="475"/>
  <unicode hex="003D"/>
  <outline>
    <contour>
      <point x="40" y="491" type="line"/>
      <point x="40" y="414" type="line"/>
      <point x="435" y="414" type="line"/>
      <point x="435" y="491" type="line"/>
    </contour>
    <contour>
      <point x="40" y="300" type="line"/>
      <point x="40" y="223" type="line"/>
      <point x="435" y="223" type="line"/>
      <point x="435" y="300" type="line"/>
    </contour>
  </outline>
</glyph>
<glyph name="greater.sinh" format="2">
  <advance width="475"/>
  <unicode hex="003E"/>
  <outline>
    <contour>
      <point x="40" y="191" type="line"/>
      <point x="40" y="100" type="line"/>
      <point x="435" y="336" type="line"/>
      <point x="435" y="381" type="line"/>
      <point x="40" y="616" type="line"/>
      <point x="40" y="525" type="line"/>
      <point x="334" y="359" type="line"/>
    </contour>
  </outline>
</glyph>
<glyph name="question.sinh" format="2">
  <advance width="478"/>
  <unicode hex="003F"/>
  <outline>
    <contour>
      <point x="221" y="724" type="curve" smooth="yes"/>
      <point x="87" y="724"/>
      <point x="28" y="664"/>
      <point x="28" y="603" type="curve" smooth="yes"/>
      <point x="28" y="543"/>
      <point x="77" y="525"/>
      <point x="171" y="525" type="curve"/>
      <point x="171" y="612"/>
      <point x="187" y="661"/>
      <point x="222" y="661" type="curve" smooth="yes"/>
      <point x="254" y="661"/>
      <point x="270" y="615"/>
      <point x="270" y="552" type="curve" smooth="yes"/>
      <point x="270" y="467"/>
      <point x="254" y="395"/>
      <point x="160" y="349" type="curve"/>
      <point x="179" y="231" type="line"/>
      <point x="258" y="231" type="line"/>
      <point x="277" y="325" type="line"/>
      <point x="396" y="379"/>
      <point x="446" y="434"/>
      <point x="446" y="540" type="curve" smooth="yes"/>
      <point x="446" y="656"/>
      <point x="356" y="724"/>
    </contour>
    <contour>
      <point x="219" y="-9" type="curve" smooth="yes"/>
      <point x="268" y="-9"/>
      <point x="303" y="18"/>
      <point x="303" y="79" type="curve" smooth="yes"/>
      <point x="303" y="140"/>
      <point x="268" y="167"/>
      <point x="219" y="167" type="curve" smooth="yes"/>
      <point x="170" y="167"/>
      <point x="135" y="140"/>
      <point x="135" y="79" type="curve" smooth="yes"/>
      <point x="135" y="18"/>
      <point x="170" y="-9"/>
    </contour>
  </outline>
</glyph>
<glyph name="bracketleft.sinh" format="2">
  <advance width="380"/>
  <unicode hex="005B"/>
  <outline>
    <contour>
      <point x="83" y="799" type="line"/>
      <point x="83" y="-259" type="line"/>
      <point x="342" y="-259" type="line"/>
      <point x="342" y="-199" type="line"/>
      <point x="295" y="-199" type="line" smooth="yes"/>
      <point x="262" y="-199"/>
      <point x="234" y="-189"/>
      <point x="234" y="-127" type="curve" smooth="yes"/>
      <point x="234" y="667" type="line" smooth="yes"/>
      <point x="234" y="729"/>
      <point x="262" y="739"/>
      <point x="295" y="739" type="curve" smooth="yes"/>
      <point x="342" y="739" type="line"/>
      <point x="342" y="799" type="line"/>
    </contour>
  </outline>
</glyph>
<glyph name="backslash.sinh" format="2">
  <advance width="377"/>
  <unicode hex="005C"/>
  <outline>
    <contour>
      <point x="344" y="-259" type="line"/>
      <point x="116" y="799" type="line"/>
      <point x="33" y="799" type="line"/>
      <point x="261" y="-259" type="line"/>
    </contour>
  </outline>
</glyph>
<glyph name="bracketright.sinh" format="2">
  <advance width="380"/>
  <unicode hex="005D"/>
  <outline>
    <contour>
      <point x="297" y="-259" type="line"/>
      <point x="297" y="799" type="line"/>
      <point x="38" y="799" type="line"/>
      <point x="38" y="739" type="line"/>
      <point x="85" y="739" type="line" smooth="yes"/>
      <point x="118" y="739"/>
      <point x="146" y="729"/>
      <point x="146" y="667" type="curve" smooth="yes"/>
      <point x="146" y="-127" type="line" smooth="yes"/>
      <point x="146" y="-189"/>
      <point x="118" y="-199"/>
      <point x="85" y="-199" type="curve" smooth="yes"/>
      <point x="38" y="-199" type="line"/>
      <point x="38" y="-259" type="line"/>
    </contour>
  </outline>
</glyph>
<glyph name="asciicircum.sinh" format="2">
  <advance width="475"/>
  <unicode hex="005E"/>
  <outline>
    <contour>
      <point x="213" y="714" type="line"/>
      <point x="27" y="259" type="line"/>
      <point x="110" y="259" type="line"/>
      <point x="238" y="592" type="line"/>
      <point x="365" y="259" type="line"/>
      <point x="448" y="259" type="line"/>
      <point x="261" y="714" type="line"/>
    </contour>
  </outline>
</glyph>
<glyph name="braceleft.sinh" format="2">
  <advance width="426"/>
  <unicode hex="007B"/>
  <outline>
    <contour>
      <point x="388" y="-259" type="line"/>
      <point x="388" y="-199" type="line"/>
      <point x="344" y="-199" type="line" smooth="yes"/>
      <point x="301" y="-199"/>
      <point x="283" y="-177"/>
      <point x="283" y="-127" type="curve" smooth="yes"/>
      <point x="283" y="117" type="line" smooth="yes"/>
      <point x="283" y="204"/>
      <point x="250" y="247"/>
      <point x="189" y="269" type="curve"/>
      <point x="189" y="271" type="line"/>
      <point x="250" y="293"/>
      <point x="283" y="336"/>
      <point x="283" y="423" type="curve" smooth="yes"/>
      <point x="283" y="667" type="line" smooth="yes"/>
      <point x="283" y="717"/>
      <point x="301" y="739"/>
      <point x="344" y="739" type="curve" smooth="yes"/>
      <point x="388" y="739" type="line"/>
      <point x="388" y="799" type="line"/>
      <point x="294" y="799" type="line" smooth="yes"/>
      <point x="170" y="799"/>
      <point x="132" y="745"/>
      <point x="132" y="649" type="curve" smooth="yes"/>
      <point x="132" y="392" type="line" smooth="yes"/>
      <point x="132" y="315"/>
      <point x="85" y="303"/>
      <point x="39" y="301" type="curve"/>
      <point x="39" y="240" type="line"/>
      <point x="85" y="237"/>
      <point x="132" y="227"/>
      <point x="132" y="149" type="curve" smooth="yes"/>
      <point x="132" y="-108" type="line" smooth="yes"/>
      <point x="132" y="-205"/>
      <point x="170" y="-259"/>
      <point x="294" y="-259" type="curve" smooth="yes"/>
    </contour>
  </outline>
</glyph>
<glyph name="bar.sinh" format="2">
  <advance width="420"/>
  <unicode hex="007C"/>
  <outline>
    <contour>
      <point x="170" y="799" type="line"/>
      <point x="170" y="-259" type="line"/>
      <point x="249" y="-259" type="line"/>
      <point x="249" y="799" type="line"/>
    </contour>
  </outline>
</glyph>
<glyph name="braceright.sinh" format="2">
  <advance width="426"/>
  <unicode hex="007D"/>
  <outline>
    <contour>
      <point x="38" y="799" type="line"/>
      <point x="38" y="739" type="line"/>
      <point x="82" y="739" type="line" smooth="yes"/>
      <point x="125" y="739"/>
      <point x="143" y="717"/>
      <point x="143" y="667" type="curve" smooth="yes"/>
      <point x="143" y="423" type="line" smooth="yes"/>
      <point x="143" y="336"/>
      <point x="176" y="293"/>
      <point x="237" y="271" type="curve"/>
      <point x="237" y="269" type="line"/>
      <point x="176" y="247"/>
      <point x="143" y="204"/>
      <point x="143" y="117" type="curve" smooth="yes"/>
      <point x="143" y="-127" type="line" smooth="yes"/>
      <point x="143" y="-177"/>
      <point x="125" y="-199"/>
      <point x="82" y="-199" type="curve" smooth="yes"/>
      <point x="38" y="-199" type="line"/>
      <point x="38" y="-259" type="line"/>
      <point x="132" y="-259" type="line" smooth="yes"/>
      <point x="256" y="-259"/>
      <point x="294" y="-205"/>
      <point x="294" y="-109" type="curve" smooth="yes"/>
      <point x="294" y="148" type="line" smooth="yes"/>
      <point x="294" y="225"/>
      <point x="341" y="237"/>
      <point x="387" y="239" type="curve"/>
      <point x="387" y="300" type="line"/>
      <point x="341" y="303"/>
      <point x="294" y="313"/>
      <point x="294" y="391" type="curve" smooth="yes"/>
      <point x="294" y="648" type="line" smooth="yes"/>
      <point x="294" y="745"/>
      <point x="256" y="799"/>
      <point x="132" y="799" type="curve"/>
    </contour>
  </outline>
</glyph>
<glyph name="asciitilde.sinh" format="2">
  <advance width="475"/>
  <unicode hex="007E"/>
  <outline>
    <contour>
      <point x="33" y="260" type="curve"/>
      <point x="111" y="260" type="line"/>
      <point x="111" y="344"/>
      <point x="124" y="376"/>
      <point x="152" y="376" type="curve" smooth="yes"/>
      <point x="168" y="376"/>
      <point x="181" y="365"/>
      <point x="218" y="322" type="curve" smooth="yes"/>
      <point x="266" y="266"/>
      <point x="293" y="260"/>
      <point x="327" y="260" type="curve" smooth="yes"/>
      <point x="414" y="260"/>
      <point x="443" y="341"/>
      <point x="443" y="453" type="curve"/>
      <point x="365" y="453" type="line"/>
      <point x="365" y="367"/>
      <point x="353" y="337"/>
      <point x="326" y="337" type="curve" smooth="yes"/>
      <point x="307" y="337"/>
      <point x="291" y="349"/>
      <point x="262" y="386" type="curve" smooth="yes"/>
      <point x="218" y="441"/>
      <point x="187" y="453"/>
      <point x="151" y="453" type="curve" smooth="yes"/>
      <point x="63" y="453"/>
      <point x="33" y="371"/>
    </contour>
  </outline>
</glyph>
<glyph name="multiply.sinh" format="2">
  <advance width="475"/>
  <unicode hex="00D7"/>
  <outline>
    <contour>
      <point x="38" y="201" type="line"/>
      <point x="93" y="146" type="line"/>
      <point x="237" y="302" type="line"/>
      <point x="382" y="146" type="line"/>
      <point x="437" y="201" type="line"/>
      <point x="289" y="356" type="line"/>
      <point x="437" y="510" type="line"/>
      <point x="382" y="565" type="line"/>
      <point x="238" y="410" type="line"/>
      <point x="94" y="565" type="line"/>
      <point x="39" y="510" type="line"/>
      <point x="187" y="356" type="line"/>
    </contour>
  </outline>
</glyph>
<glyph name="divide.sinh" format="2">
  <advance width="475"/>
  <unicode hex="00F7"/>
  <outline>
    <contour>
      <point x="37" y="396" type="line"/>
      <point x="37" y="319" type="line"/>
      <point x="438" y="319" type="line"/>
      <point x="438" y="396" type="line"/>
    </contour>
    <contour>
      <point x="238" y="103" type="curve" smooth="yes"/>
      <point x="267" y="103"/>
      <point x="291" y="120"/>
      <point x="291" y="168" type="curve" smooth="yes"/>
      <point x="291" y="217"/>
      <point x="267" y="233"/>
      <point x="238" y="233" type="curve" smooth="yes"/>
      <point x="206" y="233"/>
      <point x="183" y="217"/>
      <point x="183" y="168" type="curve" smooth="yes"/>
      <point x="183" y="120"/>
      <point x="206" y="103"/>
    </contour>
    <contour>
      <point x="238" y="482" type="curve" smooth="yes"/>
      <point x="267" y="482"/>
      <point x="291" y="499"/>
      <point x="291" y="547" type="curve" smooth="yes"/>
      <point x="291" y="596"/>
      <point x="268" y="612"/>
      <point x="238" y="612" type="curve" smooth="yes"/>
      <point x="206" y="612"/>
      <point x="183" y="596"/>
      <point x="183" y="547" type="curve" smooth="yes"/>
      <point x="183" y="499"/>
      <point x="206" y="482"/>
    </contour>
  </outline>
</glyph>
<glyph name="danda.sinh" format="2">
  <advance width="308"/>
  <unicode hex="0964"/>
  <outline>
    <contour>
      <point x="149" y="662" type="line"/>
      <point x="149" y="-65" type="line"/>
      <point x="234" y="-65" type="line"/>
      <point x="234" y="662" type="line"/>
    </contour>
  </outline>
</glyph>
<glyph name="anusvarasinh" format="2">
  <advance width="418"/>
  <unicode hex="0D82"/>
  <outline>
    <contour>
      <point x="25" y="272" type="curve" smooth="yes"/>
      <point x="25" y="125"/>
      <point x="96" y="53"/>
      <point x="209" y="53" type="curve" smooth="yes"/>
      <point x="321" y="53"/>
      <point x="393" y="126"/>
      <point x="393" y="272" type="curve" smooth="yes"/>
      <point x="393" y="392"/>
      <point x="323" y="475"/>
      <point x="210" y="475" type="curve" smooth="yes"/>
      <point x="96" y="475"/>
      <point x="25" y="392"/>
    </contour>
    <contour>
      <point x="108" y="297" type="curve" smooth="yes"/>
      <point x="108" y="364"/>
      <point x="147" y="404"/>
      <point x="209" y="404" type="curve" smooth="yes"/>
      <point x="272" y="404"/>
      <point x="310" y="363"/>
      <point x="310" y="296" type="curve" smooth="yes"/>
      <point x="310" y="237"/>
      <point x="279" y="192"/>
      <point x="209" y="192" type="curve" smooth="yes"/>
      <point x="139" y="192"/>
      <point x="108" y="238"/>
    </contour>
  </outline>
</glyph>
<glyph name="visargasinh" format="2">
  <advance width="271"/>
  <unicode hex="0D83"/>
  <outline>
    <contour>
      <point x="250" y="421" type="curve" smooth="yes"/>
      <point x="250" y="499"/>
      <point x="211" y="547"/>
      <point x="137" y="547" type="curve" smooth="yes"/>
      <point x="59" y="547"/>
      <point x="21" y="489"/>
      <point x="21" y="419" type="curve" smooth="yes"/>
      <point x="21" y="347"/>
      <point x="55" y="291"/>
      <point x="136" y="291" type="curve" smooth="yes"/>
      <point x="212" y="291"/>
      <point x="250" y="342"/>
    </contour>
    <contour>
      <point x="175" y="421" type="curve" smooth="yes"/>
      <point x="175" y="384"/>
      <point x="161" y="366"/>
      <point x="136" y="366" type="curve" smooth="yes"/>
      <point x="107" y="366"/>
      <point x="96" y="387"/>
      <point x="96" y="419" type="curve" smooth="yes"/>
      <point x="96" y="457"/>
      <point x="111" y="476"/>
      <point x="136" y="476" type="curve" smooth="yes"/>
      <point x="162" y="476"/>
      <point x="175" y="456"/>
    </contour>
    <contour>
      <point x="250" y="130" type="curve" smooth="yes"/>
      <point x="250" y="208"/>
      <point x="209" y="256"/>
      <point x="137" y="256" type="curve" smooth="yes"/>
      <point x="59" y="256"/>
      <point x="21" y="198"/>
      <point x="21" y="128" type="curve" smooth="yes"/>
      <point x="21" y="56"/>
      <point x="55" y="0"/>
      <point x="136" y="0" type="curve" smooth="yes"/>
      <point x="212" y="0"/>
      <point x="250" y="51"/>
    </contour>
    <contour>
      <point x="175" y="130" type="curve" smooth="yes"/>
      <point x="175" y="93"/>
      <point x="161" y="75"/>
      <point x="136" y="75" type="curve" smooth="yes"/>
      <point x="107" y="75"/>
      <point x="96" y="96"/>
      <point x="96" y="128" type="curve" smooth="yes"/>
      <point x="96" y="166"/>
      <point x="111" y="185"/>
      <point x="136" y="185" type="curve" smooth="yes"/>
      <point x="162" y="185"/>
      <point x="175" y="165"/>
    </contour>
  </outline>
</glyph>
<glyph name="asinh" format="2">
  <advance width="595"/>
  <unicode hex="0D85"/>
  <outline>
    <contour>
      <point x="308" y="-10" type="curve" smooth="yes"/>
      <point x="394" y="-10"/>
      <point x="459" y="5"/>
      <point x="534" y="43" type="curve"/>
      <point x="503" y="112" type="line"/>
      <point x="448" y="82"/>
      <point x="400" y="70"/>
      <point x="342" y="70" type="curve" smooth="yes"/>
      <point x="255" y="70"/>
      <point x="200" y="118"/>
      <point x="200" y="218" type="curve" smooth="yes"/>
      <point x="200" y="314"/>
      <point x="260" y="375"/>
      <point x="398" y="375" type="curve" smooth="yes"/>
      <point x="422" y="375" type="line"/>
      <point x="422" y="396" type="line" smooth="yes"/>
      <point x="422" y="533"/>
      <point x="380" y="598"/>
      <point x="293" y="598" type="curve" smooth="yes"/>
      <point x="212" y="598"/>
      <point x="183" y="550"/>
      <point x="183" y="499" type="curve" smooth="yes"/>
      <point x="183" y="479"/>
      <point x="190" y="454"/>
      <point x="198" y="441" type="curve"/>
      <point x="300" y="454" type="line"/>
      <point x="297" y="464"/>
      <point x="295" y="478"/>
      <point x="295" y="488" type="curve" smooth="yes"/>
      <point x="295" y="505"/>
      <point x="302" y="519"/>
      <point x="319" y="519" type="curve" smooth="yes"/>
      <point x="337" y="519"/>
      <point x="350" y="499"/>
      <point x="354" y="441" type="curve"/>
      <point x="353" y="441" type="line"/>
      <point x="146" y="439"/>
      <point x="25" y="356"/>
      <point x="25" y="204" type="curve" smooth="yes"/>
      <point x="25" y="71"/>
      <point x="119" y="-10"/>
    </contour>
    <contour>
      <point x="352" y="-226" type="line"/>
      <point x="431" y="-226" type="line"/>
      <point x="431" y="375" type="line" smooth="yes"/>
      <point x="431" y="457"/>
      <point x="464" y="497"/>
      <point x="513" y="546" type="curve"/>
      <point x="447" y="598" type="line"/>
      <point x="390" y="521"/>
      <point x="352" y="435"/>
      <point x="352" y="344" type="curve" smooth="yes"/>
    </contour>
    <contour>
      <point x="482" y="248" type="curve" smooth="yes"/>
      <point x="537" y="248"/>
      <point x="577" y="280"/>
      <point x="577" y="346" type="curve" smooth="yes"/>
      <point x="577" y="389"/>
      <point x="563" y="420"/>
      <point x="533" y="468" type="curve" smooth="yes"/>
      <point x="512" y="501"/>
      <point x="505" y="517"/>
      <point x="505" y="533" type="curve" smooth="yes"/>
      <point x="505" y="538"/>
      <point x="505" y="541"/>
      <point x="507" y="546" type="curve"/>
      <point x="449" y="508" type="line"/>
      <point x="449" y="473"/>
      <point x="458" y="444"/>
      <point x="473" y="419" type="curve" smooth="yes"/>
      <point x="492" y="387"/>
      <point x="497" y="370"/>
      <point x="497" y="351" type="curve" smooth="yes"/>
      <point x="497" y="331"/>
      <point x="487" y="319"/>
      <point x="464" y="319" type="curve" smooth="yes"/>
      <point x="441" y="319"/>
      <point x="421" y="329"/>
      <point x="401" y="353" type="curve"/>
      <point x="380" y="286" type="line"/>
      <point x="406" y="264"/>
      <point x="438" y="248"/>
    </contour>
  </outline>
</glyph>
<glyph name="isinh" format="2">
  <advance width="602"/>
  <unicode hex="0D89"/>
  <outline>
    <contour>
      <point x="241" y="70" type="curve" smooth="yes"/>
      <point x="335" y="70"/>
      <point x="415" y="124"/>
      <point x="415" y="263" type="curve" smooth="yes"/>
      <point x="415" y="355"/>
      <point x="368" y="402"/>
      <point x="301" y="402" type="curve" smooth="yes"/>
      <point x="242" y="402"/>
      <point x="191" y="367"/>
      <point x="191" y="286" type="curve" smooth="yes"/>
      <point x="191" y="210"/>
      <point x="234" y="170"/>
      <point x="297" y="170" type="curve" smooth="yes"/>
      <point x="337" y="170"/>
      <point x="360" y="198"/>
      <point x="371" y="230" type="curve"/>
      <point x="356" y="230" type="line"/>
      <point x="337" y="156"/>
      <point x="291" y="141"/>
      <point x="248" y="141" type="curve" smooth="yes"/>
      <point x="184" y="141"/>
      <point x="123" y="177"/>
      <point x="123" y="288" type="curve" smooth="yes"/>
      <point x="123" y="394"/>
      <point x="190" y="455"/>
      <point x="295" y="455" type="curve" smooth="yes"/>
      <point x="403" y="455"/>
      <point x="477" y="380"/>
      <point x="477" y="252" type="curve" smooth="yes"/>
      <point x="477" y="140"/>
      <point x="437" y="72"/>
      <point x="309" y="72" type="curve" smooth="yes"/>
      <point x="293" y="72" type="line"/>
      <point x="293" y="0" type="line"/>
      <point x="306" y="0" type="line" smooth="yes"/>
      <point x="497" y="0"/>
      <point x="574" y="125"/>
      <point x="574" y="305" type="curve" smooth="yes"/>
      <point x="574" y="471"/>
      <point x="488" y="598"/>
      <point x="303" y="598" type="curve" smooth="yes"/>
      <point x="115" y="598"/>
      <point x="26" y="463"/>
      <point x="26" y="320" type="curve" smooth="yes"/>
      <point x="26" y="147"/>
      <point x="119" y="70"/>
    </contour>
    <contour>
      <point x="297" y="235" type="curve" smooth="yes"/>
      <point x="275" y="235"/>
      <point x="265" y="251"/>
      <point x="265" y="284" type="curve" smooth="yes"/>
      <point x="265" y="315"/>
      <point x="274" y="337"/>
      <point x="298" y="337" type="curve" smooth="yes"/>
      <point x="320" y="337"/>
      <point x="330" y="321"/>
      <point x="330" y="287" type="curve" smooth="yes"/>
      <point x="330" y="249"/>
      <point x="319" y="235"/>
    </contour>
    <contour>
      <point x="240" y="-16" type="curve"/>
      <point x="148" y="12" type="line"/>
      <point x="135" y="-13"/>
      <point x="127" y="-49"/>
      <point x="127" y="-89" type="curve" smooth="yes"/>
      <point x="127" y="-180"/>
      <point x="187" y="-251"/>
      <point x="306" y="-251" type="curve" smooth="yes"/>
      <point x="408" y="-251"/>
      <point x="465" y="-186"/>
      <point x="465" y="-85" type="curve" smooth="yes"/>
      <point x="465" y="-33"/>
      <point x="451" y="4"/>
      <point x="430" y="37" type="curve"/>
      <point x="351" y="17" type="line"/>
      <point x="369" y="-2"/>
      <point x="384" y="-35"/>
      <point x="384" y="-84" type="curve" smooth="yes"/>
      <point x="384" y="-161"/>
      <point x="342" y="-179"/>
      <point x="306" y="-179" type="curve" smooth="yes"/>
      <point x="255" y="-179"/>
      <point x="229" y="-152"/>
      <point x="229" y="-90" type="curve" smooth="yes"/>
      <point x="229" y="-62"/>
      <point x="234" y="-34"/>
    </contour>
  </outline>
</glyph>
<glyph name="iisinh" format="2">
  <advance width="559"/>
  <unicode hex="0D8A"/>
  <outline>
    <contour>
      <point x="274" y="-10" type="curve" smooth="yes"/>
      <point x="430" y="-10"/>
      <point x="530" y="92"/>
      <point x="530" y="297" type="curve" smooth="yes"/>
      <point x="530" y="472"/>
      <point x="430" y="590"/>
      <point x="287" y="590" type="curve" smooth="yes"/>
      <point x="134" y="590"/>
      <point x="29" y="473"/>
      <point x="29" y="288" type="curve" smooth="yes"/>
      <point x="29" y="99"/>
      <point x="116" y="-10"/>
    </contour>
    <contour>
      <point x="277" y="181" type="curve" smooth="yes"/>
      <point x="181" y="181"/>
      <point x="127" y="243"/>
      <point x="127" y="349" type="curve" smooth="yes"/>
      <point x="127" y="441"/>
      <point x="184" y="519"/>
      <point x="282" y="519" type="curve" smooth="yes"/>
      <point x="366" y="519"/>
      <point x="432" y="461"/>
      <point x="432" y="349" type="curve" smooth="yes"/>
      <point x="432" y="247"/>
      <point x="380" y="181"/>
    </contour>
    <contour>
      <point x="145" y="539" type="curve"/>
      <point x="216" y="532" type="line"/>
      <point x="308" y="584"/>
      <point x="453" y="711"/>
      <point x="529" y="780" type="curve"/>
      <point x="456" y="850" type="line"/>
      <point x="373" y="755"/>
      <point x="269" y="646"/>
    </contour>
    <contour>
      <point x="298" y="733" type="curve" smooth="yes"/>
      <point x="298" y="796"/>
      <point x="267" y="825"/>
      <point x="220" y="825" type="curve" smooth="yes"/>
      <point x="172" y="825"/>
      <point x="141" y="791"/>
      <point x="141" y="731" type="curve" smooth="yes"/>
      <point x="141" y="672"/>
      <point x="169" y="638"/>
      <point x="220" y="638" type="curve" smooth="yes"/>
      <point x="267" y="638"/>
      <point x="298" y="668"/>
    </contour>
    <contour>
      <point x="242" y="732" type="curve" smooth="yes"/>
      <point x="242" y="701"/>
      <point x="235" y="693"/>
      <point x="220" y="693" type="curve" smooth="yes"/>
      <point x="203" y="693"/>
      <point x="197" y="707"/>
      <point x="197" y="730" type="curve" smooth="yes"/>
      <point x="197" y="760"/>
      <point x="205" y="771"/>
      <point x="220" y="771" type="curve" smooth="yes"/>
      <point x="237" y="771"/>
      <point x="242" y="757"/>
    </contour>
    <contour>
      <point x="561" y="619" type="curve" smooth="yes"/>
      <point x="561" y="682"/>
      <point x="530" y="711"/>
      <point x="483" y="711" type="curve" smooth="yes"/>
      <point x="435" y="711"/>
      <point x="404" y="677"/>
      <point x="404" y="617" type="curve" smooth="yes"/>
      <point x="404" y="558"/>
      <point x="432" y="524"/>
      <point x="483" y="524" type="curve" smooth="yes"/>
      <point x="530" y="524"/>
      <point x="561" y="554"/>
    </contour>
    <contour>
      <point x="505" y="618" type="curve" smooth="yes"/>
      <point x="505" y="587"/>
      <point x="498" y="579"/>
      <point x="483" y="579" type="curve" smooth="yes"/>
      <point x="466" y="579"/>
      <point x="460" y="593"/>
      <point x="460" y="616" type="curve" smooth="yes"/>
      <point x="460" y="646"/>
      <point x="468" y="657"/>
      <point x="483" y="657" type="curve" smooth="yes"/>
      <point x="500" y="657"/>
      <point x="505" y="643"/>
    </contour>
  </outline>
</glyph>
<glyph name="usinh" format="2">
  <advance width="622"/>
  <unicode hex="0D8B"/>
  <outline>
    <contour>
      <point x="320" y="-275" type="curve" smooth="yes"/>
      <point x="537" y="-275"/>
      <point x="613" y="-126"/>
      <point x="613" y="51" type="curve" smooth="yes"/>
      <point x="613" y="79"/>
      <point x="611" y="110"/>
      <point x="607" y="131" type="curve"/>
      <point x="530" y="125" type="line"/>
      <point x="533" y="104"/>
      <point x="534" y="79"/>
      <point x="534" y="57" type="curve" smooth="yes"/>
      <point x="534" y="-68"/>
      <point x="481" y="-163"/>
      <point x="355" y="-163" type="curve" smooth="yes"/>
      <point x="248" y="-163"/>
      <point x="177" y="-98"/>
      <point x="177" y="88" type="curve" smooth="yes"/>
      <point x="177" y="248"/>
      <point x="272" y="373"/>
      <point x="483" y="373" type="curve" smooth="yes"/>
      <point x="541" y="373" type="line"/>
      <point x="541" y="396" type="line" smooth="yes"/>
      <point x="541" y="532"/>
      <point x="488" y="598"/>
      <point x="391" y="598" type="curve" smooth="yes"/>
      <point x="303" y="598"/>
      <point x="273" y="550"/>
      <point x="273" y="499" type="curve" smooth="yes"/>
      <point x="273" y="479"/>
      <point x="281" y="453"/>
      <point x="289" y="439" type="curve"/>
      <point x="390" y="455" type="line"/>
      <point x="388" y="461"/>
      <point x="385" y="473"/>
      <point x="385" y="485" type="curve" smooth="yes"/>
      <point x="385" y="505"/>
      <point x="393" y="519"/>
      <point x="415" y="519" type="curve" smooth="yes"/>
      <point x="442" y="519"/>
      <point x="457" y="497"/>
      <point x="462" y="442" type="curve"/>
      <point x="455" y="442" type="line" smooth="yes"/>
      <point x="204" y="442"/>
      <point x="23" y="315"/>
      <point x="23" y="68" type="curve" smooth="yes"/>
      <point x="23" y="-132"/>
      <point x="115" y="-275"/>
    </contour>
  </outline>
</glyph>
<glyph name="lvocalicsinh" format="2">
  <advance width="883"/>
  <unicode hex="0D8F"/>
  <outline>
    <contour>
      <point x="616" y="429" type="curve"/>
      <point x="687" y="408" type="line"/>
      <point x="692" y="425"/>
      <point x="698" y="451"/>
      <point x="698" y="484" type="curve" smooth="yes"/>
      <point x="698" y="539"/>
      <point x="667" y="598"/>
      <point x="596" y="598" type="curve" smooth="yes"/>
      <point x="510" y="598"/>
      <point x="459" y="521"/>
      <point x="459" y="396" type="curve" smooth="yes"/>
      <point x="459" y="375" type="line"/>
      <point x="477" y="375" type="line" smooth="yes"/>
      <point x="590" y="375"/>
      <point x="620" y="336"/>
      <point x="620" y="287" type="curve" smooth="yes"/>
      <point x="620" y="202"/>
      <point x="540" y="181"/>
      <point x="439" y="181" type="curve" smooth="yes"/>
      <point x="331" y="181"/>
      <point x="263" y="209"/>
      <point x="263" y="284" type="curve" smooth="yes"/>
      <point x="263" y="341"/>
      <point x="301" y="375"/>
      <point x="406" y="375" type="curve" smooth="yes"/>
      <point x="435" y="375" type="line"/>
      <point x="435" y="397" type="line" smooth="yes"/>
      <point x="435" y="536"/>
      <point x="383" y="598"/>
      <point x="295" y="598" type="curve" smooth="yes"/>
      <point x="220" y="598"/>
      <point x="190" y="550"/>
      <point x="190" y="499" type="curve" smooth="yes"/>
      <point x="190" y="470"/>
      <point x="203" y="441"/>
      <point x="214" y="427" type="curve"/>
      <point x="304" y="447" type="line"/>
      <point x="302" y="455"/>
      <point x="297" y="469"/>
      <point x="297" y="488" type="curve" smooth="yes"/>
      <point x="297" y="505"/>
      <point x="304" y="519"/>
      <point x="321" y="519" type="curve" smooth="yes"/>
      <point x="339" y="519"/>
      <point x="353" y="498"/>
      <point x="356" y="438" type="curve"/>
      <point x="393" y="442" type="line"/>
      <point x="379" y="442" type="line" smooth="yes"/>
      <point x="265" y="442"/>
      <point x="165" y="373"/>
      <point x="165" y="239" type="curve" smooth="yes"/>
      <point x="165" y="88"/>
      <point x="252" y="-10"/>
      <point x="442" y="-10" type="curve" smooth="yes"/>
      <point x="625" y="-10"/>
      <point x="718" y="84"/>
      <point x="718" y="239" type="curve" smooth="yes"/>
      <point x="718" y="368"/>
      <point x="625" y="442"/>
      <point x="503" y="442" type="curve" smooth="yes"/>
      <point x="495" y="442" type="line"/>
      <point x="540" y="437" type="line"/>
      <point x="549" y="496"/>
      <point x="569" y="520"/>
      <point x="589" y="520" type="curve" smooth="yes"/>
      <point x="611" y="520"/>
      <point x="621" y="502"/>
      <point x="621" y="471" type="curve" smooth="yes"/>
      <point x="621" y="453"/>
      <point x="618" y="438"/>
    </contour>
    <contour>
      <point x="28" y="328" type="curve" smooth="yes"/>
      <point x="28" y="214"/>
      <point x="66" y="125"/>
      <point x="110" y="43" type="curve"/>
      <point x="182" y="86" type="line"/>
      <point x="139" y="154"/>
      <point x="111" y="228"/>
      <point x="111" y="320" type="curve" smooth="yes"/>
      <point x="111" y="458"/>
      <point x="183" y="527"/>
      <point x="264" y="527" type="curve" smooth="yes"/>
      <point x="276" y="527"/>
      <point x="282" y="527"/>
      <point x="289" y="526" type="curve"/>
      <point x="312" y="590" type="line"/>
      <point x="299" y="594"/>
      <point x="287" y="596"/>
      <point x="267" y="596" type="curve" smooth="yes"/>
      <point x="142" y="596"/>
      <point x="28" y="507"/>
    </contour>
    <contour>
      <point x="855" y="337" type="curve" smooth="yes"/>
      <point x="855" y="513"/>
      <point x="743" y="596"/>
      <point x="625" y="596" type="curve" smooth="yes"/>
      <point x="596" y="596"/>
      <point x="583" y="594"/>
      <point x="571" y="590" type="curve"/>
      <point x="594" y="526" type="line"/>
      <point x="601" y="527"/>
      <point x="607" y="527"/>
      <point x="624" y="527" type="curve" smooth="yes"/>
      <point x="700" y="527"/>
      <point x="772" y="464"/>
      <point x="772" y="332" type="curve" smooth="yes"/>
      <point x="772" y="225"/>
      <point x="744" y="154"/>
      <point x="701" y="86" type="curve"/>
      <point x="773" y="43" type="line"/>
      <point x="817" y="125"/>
      <point x="855" y="211"/>
    </contour>
  </outline>
</glyph>
<glyph name="esinh" format="2">
  <advance width="633"/>
  <unicode hex="0D91"/>
  <outline>
    <contour>
      <point x="287" y="-10" type="curve" smooth="yes"/>
      <point x="509" y="-10"/>
      <point x="605" y="165"/>
      <point x="605" y="403" type="curve" smooth="yes"/>
      <point x="605" y="651"/>
      <point x="472" y="783"/>
      <point x="247" y="817" type="curve"/>
      <point x="234" y="736" type="line"/>
      <point x="401" y="731"/>
      <point x="508" y="629"/>
      <point x="508" y="432" type="curve" smooth="yes"/>
      <point x="508" y="308"/>
      <point x="455" y="181"/>
      <point x="279" y="181" type="curve" smooth="yes"/>
      <point x="192" y="181"/>
      <point x="151" y="221"/>
      <point x="151" y="282" type="curve" smooth="yes"/>
      <point x="151" y="326"/>
      <point x="177" y="367"/>
      <point x="239" y="385" type="curve"/>
      <point x="180" y="375" type="line"/>
      <point x="341" y="375" type="line"/>
      <point x="341" y="396" type="line" smooth="yes"/>
      <point x="341" y="536"/>
      <point x="289" y="598"/>
      <point x="202" y="598" type="curve" smooth="yes"/>
      <point x="119" y="598"/>
      <point x="91" y="550"/>
      <point x="91" y="499" type="curve" smooth="yes"/>
      <point x="91" y="485"/>
      <point x="94" y="466"/>
      <point x="101" y="452" type="curve"/>
      <point x="206" y="459" type="line"/>
      <point x="204" y="467"/>
      <point x="203" y="478"/>
      <point x="203" y="488" type="curve" smooth="yes"/>
      <point x="203" y="505"/>
      <point x="210" y="519"/>
      <point x="227" y="519" type="curve" smooth="yes"/>
      <point x="245" y="519"/>
      <point x="258" y="498"/>
      <point x="262" y="442" type="curve"/>
      <point x="23" y="442" type="line"/>
      <point x="23" y="375" type="line"/>
      <point x="44" y="375" type="line" smooth="yes"/>
      <point x="76" y="375"/>
      <point x="116" y="377"/>
      <point x="137" y="381" type="curve"/>
      <point x="163" y="406" type="line"/>
      <point x="89" y="371"/>
      <point x="46" y="302"/>
      <point x="46" y="217" type="curve" smooth="yes"/>
      <point x="46" y="81"/>
      <point x="112" y="-10"/>
    </contour>
    <contour>
      <point x="387" y="542" type="curve" smooth="yes"/>
      <point x="447" y="542"/>
      <point x="490" y="585"/>
      <point x="513" y="662" type="curve"/>
      <point x="458" y="713" type="line"/>
      <point x="440" y="648"/>
      <point x="425" y="625"/>
      <point x="392" y="625" type="curve" smooth="yes"/>
      <point x="373" y="625"/>
      <point x="361" y="637"/>
      <point x="353" y="671" type="curve" smooth="yes"/>
      <point x="337" y="736"/>
      <point x="310" y="765"/>
      <point x="272" y="781" type="curve"/>
      <point x="243" y="739" type="line"/>
      <point x="257" y="734"/>
      <point x="268" y="718"/>
      <point x="277" y="665" type="curve" smooth="yes"/>
      <point x="292" y="581"/>
      <point x="324" y="542"/>
    </contour>
  </outline>
</glyph>
<glyph name="eesinh" format="2">
  <advance width="633"/>
  <unicode hex="0D92"/>
  <outline>
    <contour>
      <point x="401" y="963" type="curve" smooth="yes"/>
      <point x="379" y="963"/>
      <point x="361" y="959"/>
      <point x="349" y="954" type="curve"/>
      <point x="359" y="890" type="line"/>
      <point x="366" y="892"/>
      <point x="373" y="893"/>
      <point x="381" y="893" type="curve" smooth="yes"/>
      <point x="396" y="893"/>
      <point x="409" y="883"/>
      <point x="409" y="845" type="curve" smooth="yes"/>
      <point x="409" y="819" type="line" smooth="yes"/>
      <point x="409" y="795"/>
      <point x="409" y="768"/>
      <point x="412" y="729" type="curve"/>
      <point x="477" y="657" type="line"/>
      <point x="477" y="698" type="line" smooth="yes"/>
      <point x="477" y="724"/>
      <point x="477" y="761"/>
      <point x="475" y="791" type="curve"/>
      <point x="477" y="815" type="line"/>
      <point x="477" y="901" type="line"/>
      <point x="469" y="901" type="line"/>
      <point x="465" y="939"/>
      <point x="439" y="963"/>
    </contour>
    <contour>
      <point x="521" y="963" type="curve" smooth="yes"/>
      <point x="484" y="963"/>
      <point x="457" y="939"/>
      <point x="438" y="897" type="curve"/>
      <point x="475" y="866" type="line"/>
      <point x="479" y="890"/>
      <point x="491" y="901"/>
      <point x="505" y="901" type="curve" smooth="yes"/>
      <point x="522" y="901"/>
      <point x="529" y="886"/>
      <point x="529" y="858" type="curve" smooth="yes"/>
      <point x="529" y="826"/>
      <point x="520" y="812"/>
      <point x="505" y="812" type="curve" smooth="yes"/>
      <point x="487" y="812"/>
      <point x="478" y="827"/>
      <point x="474" y="849" type="curve"/>
      <point x="455" y="789" type="line"/>
      <point x="469" y="764"/>
      <point x="490" y="749"/>
      <point x="519" y="749" type="curve" smooth="yes"/>
      <point x="572" y="749"/>
      <point x="599" y="789"/>
      <point x="599" y="859" type="curve" smooth="yes"/>
      <point x="599" y="923"/>
      <point x="571" y="963"/>
    </contour>
    <component base="esinh"/>
  </outline>
</glyph>
<glyph name="osinh" format="2">
  <advance width="690"/>
  <unicode hex="0D94"/>
  <outline>
    <contour>
      <point x="473" y="-10" type="curve" smooth="yes"/>
      <point x="573" y="-10"/>
      <point x="660" y="67"/>
      <point x="660" y="345" type="curve" smooth="yes"/>
      <point x="660" y="686"/>
      <point x="524" y="804"/>
      <point x="311" y="804" type="curve" smooth="yes"/>
      <point x="185" y="804"/>
      <point x="118" y="771"/>
      <point x="34" y="725" type="curve"/>
      <point x="74" y="659" type="line"/>
      <point x="145" y="702"/>
      <point x="211" y="732"/>
      <point x="311" y="732" type="curve" smooth="yes"/>
      <point x="481" y="732"/>
      <point x="563" y="626"/>
      <point x="563" y="387" type="curve" smooth="yes"/>
      <point x="563" y="235"/>
      <point x="520" y="177"/>
      <point x="451" y="177" type="curve" smooth="yes"/>
      <point x="393" y="177"/>
      <point x="374" y="206"/>
      <point x="366" y="236" type="curve"/>
      <point x="286" y="236" type="line"/>
      <point x="273" y="198"/>
      <point x="244" y="177"/>
      <point x="210" y="177" type="curve" smooth="yes"/>
      <point x="160" y="177"/>
      <point x="121" y="206"/>
      <point x="121" y="322" type="curve" smooth="yes"/>
      <point x="121" y="415"/>
      <point x="149" y="490"/>
      <point x="172" y="490" type="curve" smooth="yes"/>
      <point x="180" y="490"/>
      <point x="183" y="485"/>
      <point x="183" y="469" type="curve" smooth="yes"/>
      <point x="183" y="443"/>
      <point x="176" y="422"/>
      <point x="176" y="383" type="curve" smooth="yes"/>
      <point x="176" y="286"/>
      <point x="224" y="228"/>
      <point x="333" y="228" type="curve" smooth="yes"/>
      <point x="439" y="228"/>
      <point x="505" y="286"/>
      <point x="505" y="417" type="curve" smooth="yes"/>
      <point x="505" y="499"/>
      <point x="462" y="581"/>
      <point x="366" y="581" type="curve" smooth="yes"/>
      <point x="285" y="581"/>
      <point x="250" y="520"/>
      <point x="250" y="461" type="curve" smooth="yes"/>
      <point x="250" y="390"/>
      <point x="280" y="347"/>
      <point x="346" y="347" type="curve" smooth="yes"/>
      <point x="406" y="347"/>
      <point x="428" y="388"/>
      <point x="428" y="447" type="curve" smooth="yes"/>
      <point x="428" y="482"/>
      <point x="418" y="504"/>
      <point x="406" y="525" type="curve"/>
      <point x="410" y="508" type="line"/>
      <point x="423" y="490"/>
      <point x="437" y="469"/>
      <point x="437" y="414" type="curve" smooth="yes"/>
      <point x="437" y="339"/>
      <point x="396" y="303"/>
      <point x="333" y="303" type="curve" smooth="yes"/>
      <point x="271" y="303"/>
      <point x="246" y="337"/>
      <point x="246" y="396" type="curve" smooth="yes"/>
      <point x="246" y="435"/>
      <point x="255" y="457"/>
      <point x="255" y="490" type="curve" smooth="yes"/>
      <point x="255" y="533"/>
      <point x="237" y="567"/>
      <point x="184" y="567" type="curve" smooth="yes"/>
      <point x="93" y="567"/>
      <point x="30" y="457"/>
      <point x="30" y="275" type="curve" smooth="yes"/>
      <point x="30" y="80"/>
      <point x="90" y="-10"/>
      <point x="188" y="-10" type="curve" smooth="yes"/>
      <point x="268" y="-10"/>
      <point x="309" y="46"/>
      <point x="326" y="128" type="curve"/>
      <point x="339" y="45"/>
      <point x="380" y="-10"/>
    </contour>
    <contour>
      <point x="374" y="463" type="curve" smooth="yes"/>
      <point x="374" y="429"/>
      <point x="368" y="414"/>
      <point x="344" y="414" type="curve" smooth="yes"/>
      <point x="323" y="414"/>
      <point x="316" y="434"/>
      <point x="316" y="464" type="curve" smooth="yes"/>
      <point x="316" y="493"/>
      <point x="325" y="513"/>
      <point x="347" y="513" type="curve" smooth="yes"/>
      <point x="365" y="513"/>
      <point x="374" y="498"/>
    </contour>
  </outline>
</glyph>
<glyph name="oosinh" format="2">
  <advance width="690"/>
  <unicode hex="0D95"/>
  <outline>
    <contour>
      <point x="473" y="-10" type="curve" smooth="yes"/>
      <point x="573" y="-10"/>
      <point x="660" y="73"/>
      <point x="660" y="318" type="curve" smooth="yes"/>
      <point x="660" y="594"/>
      <point x="527" y="717"/>
      <point x="294" y="717" type="curve" smooth="yes"/>
      <point x="185" y="717"/>
      <point x="108" y="699"/>
      <point x="34" y="670" type="curve"/>
      <point x="63" y="598" type="line"/>
      <point x="135" y="631"/>
      <point x="210" y="645"/>
      <point x="298" y="645" type="curve" smooth="yes"/>
      <point x="486" y="645"/>
      <point x="563" y="550"/>
      <point x="563" y="354" type="curve" smooth="yes"/>
      <point x="563" y="235"/>
      <point x="520" y="177"/>
      <point x="451" y="177" type="curve" smooth="yes"/>
      <point x="393" y="177"/>
      <point x="374" y="206"/>
      <point x="366" y="236" type="curve"/>
      <point x="286" y="236" type="line"/>
      <point x="273" y="198"/>
      <point x="244" y="177"/>
      <point x="210" y="177" type="curve" smooth="yes"/>
      <point x="160" y="177"/>
      <point x="121" y="206"/>
      <point x="121" y="322" type="curve" smooth="yes"/>
      <point x="121" y="415"/>
      <point x="149" y="490"/>
      <point x="172" y="490" type="curve" smooth="yes"/>
      <point x="180" y="490"/>
      <point x="183" y="485"/>
      <point x="183" y="469" type="curve" smooth="yes"/>
      <point x="183" y="443"/>
      <point x="176" y="422"/>
      <point x="176" y="383" type="curve" smooth="yes"/>
      <point x="176" y="286"/>
      <point x="224" y="228"/>
      <point x="333" y="228" type="curve" smooth="yes"/>
      <point x="439" y="228"/>
      <point x="505" y="286"/>
      <point x="505" y="417" type="curve" smooth="yes"/>
      <point x="505" y="499"/>
      <point x="462" y="581"/>
      <point x="366" y="581" type="curve" smooth="yes"/>
      <point x="285" y="581"/>
      <point x="250" y="520"/>
      <point x="250" y="461" type="curve" smooth="yes"/>
      <point x="250" y="390"/>
      <point x="280" y="347"/>
      <point x="346" y="347" type="curve" smooth="yes"/>
      <point x="406" y="347"/>
      <point x="428" y="388"/>
      <point x="428" y="447" type="curve" smooth="yes"/>
      <point x="428" y="482"/>
      <point x="418" y="504"/>
      <point x="406" y="525" type="curve"/>
      <point x="410" y="508" type="line"/>
      <point x="423" y="490"/>
      <point x="437" y="469"/>
      <point x="437" y="414" type="curve" smooth="yes"/>
      <point x="437" y="339"/>
      <point x="396" y="303"/>
      <point x="333" y="303" type="curve" smooth="yes"/>
      <point x="271" y="303"/>
      <point x="246" y="337"/>
      <point x="246" y="396" type="curve" smooth="yes"/>
      <point x="246" y="435"/>
      <point x="255" y="457"/>
      <point x="255" y="490" type="curve" smooth="yes"/>
      <point x="255" y="533"/>
      <point x="237" y="567"/>
      <point x="184" y="567" type="curve" smooth="yes"/>
      <point x="93" y="567"/>
      <point x="30" y="457"/>
      <point x="30" y="275" type="curve" smooth="yes"/>
      <point x="30" y="80"/>
      <point x="90" y="-10"/>
      <point x="188" y="-10" type="curve" smooth="yes"/>
      <point x="268" y="-10"/>
      <point x="309" y="46"/>
      <point x="326" y="128" type="curve"/>
      <point x="339" y="45"/>
      <point x="380" y="-10"/>
    </contour>
    <contour>
      <point x="374" y="463" type="curve" smooth="yes"/>
      <point x="374" y="429"/>
      <point x="368" y="414"/>
      <point x="344" y="414" type="curve" smooth="yes"/>
      <point x="323" y="414"/>
      <point x="316" y="434"/>
      <point x="316" y="464" type="curve" smooth="yes"/>
      <point x="316" y="493"/>
      <point x="325" y="513"/>
      <point x="347" y="513" type="curve" smooth="yes"/>
      <point x="365" y="513"/>
      <point x="374" y="498"/>
    </contour>
    <contour>
      <point x="323" y="957" type="curve" smooth="yes"/>
      <point x="139" y="957"/>
      <point x="91" y="871"/>
      <point x="91" y="804" type="curve" smooth="yes"/>
      <point x="91" y="735"/>
      <point x="122" y="699"/>
      <point x="179" y="659" type="curve"/>
      <point x="243" y="690" type="line"/>
      <point x="211" y="706"/>
      <point x="176" y="730"/>
      <point x="176" y="765" type="curve" smooth="yes"/>
      <point x="176" y="806"/>
      <point x="207" y="821"/>
      <point x="326" y="821" type="curve" smooth="yes"/>
      <point x="452" y="821"/>
      <point x="520" y="791"/>
      <point x="520" y="740" type="curve" smooth="yes"/>
      <point x="520" y="708"/>
      <point x="502" y="688"/>
      <point x="474" y="674" type="curve"/>
      <point x="545" y="624" type="line"/>
      <point x="577" y="649"/>
      <point x="598" y="699"/>
      <point x="598" y="761" type="curve" smooth="yes"/>
      <point x="598" y="828"/>
      <point x="560" y="957"/>
    </contour>
  </outline>
</glyph>
<glyph name="kasinh" format="2">
  <advance width="798"/>
  <unicode hex="0D9A"/>
  <outline>
    <contour>
      <point x="425" y="-10" type="curve" smooth="yes"/>
      <point x="503" y="-10"/>
      <point x="549" y="82"/>
      <point x="549" y="195" type="curve" smooth="yes"/>
      <point x="549" y="360"/>
      <point x="475" y="442"/>
      <point x="336" y="442" type="curve" smooth="yes"/>
      <point x="302" y="442"/>
      <point x="247" y="431"/>
      <point x="215" y="419" type="curve"/>
      <point x="204" y="370" type="line"/>
      <point x="234" y="373"/>
      <point x="271" y="375"/>
      <point x="317" y="375" type="curve" smooth="yes"/>
      <point x="425" y="375"/>
      <point x="456" y="314"/>
      <point x="456" y="249" type="curve" smooth="yes"/>
      <point x="456" y="200"/>
      <point x="437" y="177"/>
      <point x="405" y="177" type="curve" smooth="yes"/>
      <point x="371" y="177"/>
      <point x="352" y="199"/>
      <point x="347" y="248" type="curve"/>
      <point x="282" y="248" type="line"/>
      <point x="277" y="200"/>
      <point x="263" y="177"/>
      <point x="224" y="177" type="curve" smooth="yes"/>
      <point x="194" y="177"/>
      <point x="176" y="187"/>
      <point x="176" y="228" type="curve" smooth="yes"/>
      <point x="176" y="236"/>
      <point x="177" y="245"/>
      <point x="178" y="254" type="curve"/>
      <point x="117" y="254" type="line"/>
      <point x="79" y="216" type="line"/>
      <point x="75" y="157" type="line"/>
      <point x="131" y="153" type="line"/>
      <point x="108" y="215" type="line"/>
      <point x="104" y="197"/>
      <point x="101" y="183"/>
      <point x="101" y="159" type="curve" smooth="yes"/>
      <point x="101" y="57"/>
      <point x="135" y="-10"/>
      <point x="206" y="-10" type="curve" smooth="yes"/>
      <point x="275" y="-10"/>
      <point x="302" y="42"/>
      <point x="314" y="110" type="curve"/>
      <point x="329" y="31"/>
      <point x="360" y="-10"/>
    </contour>
    <contour>
      <point x="581" y="-8" type="curve" smooth="yes"/>
      <point x="705" y="-8"/>
      <point x="768" y="95"/>
      <point x="768" y="268" type="curve" smooth="yes"/>
      <point x="768" y="466"/>
      <point x="668" y="598"/>
      <point x="489" y="598" type="curve" smooth="yes"/>
      <point x="351" y="598"/>
      <point x="242" y="516"/>
      <point x="11" y="196" type="curve"/>
      <point x="75" y="157" type="line"/>
      <point x="151" y="270"/>
      <point x="218" y="352"/>
      <point x="264" y="400" type="curve"/>
      <point x="280" y="423" type="line"/>
      <point x="319" y="453"/>
      <point x="378" y="475"/>
      <point x="459" y="475" type="curve" smooth="yes"/>
      <point x="594" y="475"/>
      <point x="652" y="362"/>
      <point x="652" y="233" type="curve" smooth="yes"/>
      <point x="652" y="129"/>
      <point x="629" y="64"/>
      <point x="569" y="64" type="curve" smooth="yes"/>
      <point x="560" y="64"/>
      <point x="549" y="64"/>
      <point x="538" y="68" type="curve"/>
      <point x="524" y="-2" type="line"/>
      <point x="538" y="-6"/>
      <point x="554" y="-8"/>
    </contour>
    <contour>
      <point x="142" y="578" type="curve" smooth="yes"/>
      <point x="79" y="578"/>
      <point x="30" y="542"/>
      <point x="30" y="466" type="curve" smooth="yes"/>
      <point x="30" y="431"/>
      <point x="41" y="403"/>
      <point x="52" y="379" type="curve"/>
      <point x="155" y="407" type="line"/>
      <point x="150" y="422"/>
      <point x="146" y="443"/>
      <point x="146" y="462" type="curve" smooth="yes"/>
      <point x="146" y="482"/>
      <point x="153" y="499"/>
      <point x="166" y="499" type="curve" smooth="yes"/>
      <point x="184" y="499"/>
      <point x="193" y="483"/>
      <point x="205" y="420" type="curve"/>
      <point x="275" y="439" type="line"/>
      <point x="258" y="508"/>
      <point x="231" y="578"/>
    </contour>
  </outline>
</glyph>
<glyph name="khasinh" format="2">
  <advance width="716"/>
  <unicode hex="0D9B"/>
  <outline>
    <contour>
      <point x="203" y="-10" type="curve" smooth="yes"/>
      <point x="293" y="-10"/>
      <point x="329" y="50"/>
      <point x="329" y="127" type="curve" smooth="yes"/>
      <point x="329" y="202"/>
      <point x="292" y="253"/>
      <point x="217" y="253" type="curve" smooth="yes"/>
      <point x="151" y="253"/>
      <point x="114" y="201"/>
      <point x="114" y="152" type="curve" smooth="yes"/>
      <point x="114" y="108"/>
      <point x="124" y="75"/>
      <point x="138" y="51" type="curve"/>
      <point x="162" y="56" type="line"/>
      <point x="130" y="102"/>
      <point x="116" y="161"/>
      <point x="116" y="221" type="curve" smooth="yes"/>
      <point x="116" y="342"/>
      <point x="168" y="409"/>
      <point x="253" y="409" type="curve" smooth="yes"/>
      <point x="328" y="409"/>
      <point x="365" y="356"/>
      <point x="365" y="269" type="curve" smooth="yes"/>
      <point x="365" y="225"/>
      <point x="359" y="181"/>
      <point x="349" y="138" type="curve"/>
      <point x="336" y="96"/>
      <point x="318" y="48"/>
      <point x="311" y="16" type="curve"/>
      <point x="389" y="-10" type="line"/>
      <point x="399" y="35"/>
      <point x="413" y="85"/>
      <point x="426" y="126" type="curve"/>
      <point x="432" y="141" type="line"/>
      <point x="455" y="201"/>
      <point x="479" y="270"/>
      <point x="479" y="353" type="curve" smooth="yes"/>
      <point x="479" y="452"/>
      <point x="423" y="563"/>
      <point x="278" y="563" type="curve" smooth="yes"/>
      <point x="142" y="563"/>
      <point x="28" y="456"/>
      <point x="28" y="256" type="curve" smooth="yes"/>
      <point x="28" y="100"/>
      <point x="94" y="-10"/>
    </contour>
    <contour>
      <point x="551" y="-10" type="curve" smooth="yes"/>
      <point x="622" y="-10"/>
      <point x="686" y="65"/>
      <point x="686" y="339" type="curve" smooth="yes"/>
      <point x="686" y="685"/>
      <point x="534" y="804"/>
      <point x="340" y="804" type="curve" smooth="yes"/>
      <point x="226" y="804"/>
      <point x="139" y="769"/>
      <point x="55" y="723" type="curve"/>
      <point x="95" y="657" type="line"/>
      <point x="166" y="700"/>
      <point x="241" y="732"/>
      <point x="342" y="732" type="curve" smooth="yes"/>
      <point x="508" y="732"/>
      <point x="589" y="612"/>
      <point x="589" y="361" type="curve" smooth="yes"/>
      <point x="589" y="205"/>
      <point x="568" y="168"/>
      <point x="540" y="168" type="curve" smooth="yes"/>
      <point x="521" y="168"/>
      <point x="510" y="189"/>
      <point x="505" y="223" type="curve"/>
      <point x="415" y="223" type="line"/>
      <point x="402" y="124" type="line"/>
      <point x="452" y="122" type="line"/>
      <point x="432" y="194" type="line"/>
      <point x="431" y="70"/>
      <point x="457" y="-10"/>
    </contour>
    <contour>
      <point x="212" y="184" type="curve" smooth="yes"/>
      <point x="241" y="184"/>
      <point x="253" y="159"/>
      <point x="253" y="127" type="curve" smooth="yes"/>
      <point x="253" y="92"/>
      <point x="240" y="69"/>
      <point x="210" y="69" type="curve" smooth="yes"/>
      <point x="184" y="69"/>
      <point x="169" y="90"/>
      <point x="169" y="127" type="curve" smooth="yes"/>
      <point x="169" y="160"/>
      <point x="180" y="184"/>
    </contour>
  </outline>
</glyph>
<glyph name="gasinh" format="2">
  <advance width="729"/>
  <unicode hex="0D9C"/>
  <outline>
    <contour>
      <point x="481" y="-8" type="curve" smooth="yes"/>
      <point x="572" y="-8"/>
      <point x="698" y="39"/>
      <point x="698" y="297" type="curve" smooth="yes"/>
      <point x="698" y="507"/>
      <point x="590" y="598"/>
      <point x="485" y="598" type="curve" smooth="yes"/>
      <point x="368" y="598"/>
      <point x="293" y="508"/>
      <point x="259" y="293" type="curve"/>
      <point x="311" y="280" type="line"/>
      <point x="313" y="283"/>
      <point x="315" y="285"/>
      <point x="319" y="285" type="curve" smooth="yes"/>
      <point x="328" y="285"/>
      <point x="333" y="274"/>
      <point x="333" y="261" type="curve" smooth="yes"/>
      <point x="333" y="210"/>
      <point x="300" y="181"/>
      <point x="240" y="181" type="curve" smooth="yes"/>
      <point x="155" y="181"/>
      <point x="127" y="251"/>
      <point x="127" y="331" type="curve" smooth="yes"/>
      <point x="127" y="433"/>
      <point x="177" y="526"/>
      <point x="291" y="526" type="curve" smooth="yes"/>
      <point x="296" y="526"/>
      <point x="304" y="526"/>
      <point x="314" y="524" type="curve"/>
      <point x="317" y="596" type="line"/>
      <point x="306" y="598"/>
      <point x="296" y="598"/>
      <point x="289" y="598" type="curve" smooth="yes"/>
      <point x="149" y="598"/>
      <point x="30" y="495"/>
      <point x="30" y="285" type="curve" smooth="yes"/>
      <point x="30" y="105"/>
      <point x="103" y="-10"/>
      <point x="236" y="-10" type="curve" smooth="yes"/>
      <point x="379" y="-10"/>
      <point x="425" y="106"/>
      <point x="425" y="214" type="curve" smooth="yes"/>
      <point x="425" y="318"/>
      <point x="370" y="354"/>
      <point x="317" y="354" type="curve" smooth="yes"/>
      <point x="303" y="354"/>
      <point x="293" y="352"/>
      <point x="284" y="349" type="curve"/>
      <point x="331" y="317" type="line"/>
      <point x="366" y="426"/>
      <point x="402" y="463"/>
      <point x="463" y="463" type="curve" smooth="yes"/>
      <point x="522" y="463"/>
      <point x="582" y="411"/>
      <point x="582" y="256" type="curve" smooth="yes"/>
      <point x="582" y="137"/>
      <point x="545" y="64"/>
      <point x="470" y="64" type="curve" smooth="yes"/>
      <point x="445" y="64"/>
      <point x="427" y="66"/>
      <point x="409" y="72" type="curve"/>
      <point x="396" y="2" type="line"/>
      <point x="420" y="-4"/>
      <point x="446" y="-8"/>
    </contour>
  </outline>
</glyph>
<glyph name="ghasinh" format="2">
  <advance width="635"/>
  <unicode hex="0D9D"/>
  <outline>
    <contour>
      <point x="207" y="-10" type="curve" smooth="yes"/>
      <point x="247" y="-10"/>
      <point x="271" y="-5"/>
      <point x="303" y="4" type="curve"/>
      <point x="237" y="177" type="line"/>
      <point x="226" y="174"/>
      <point x="213" y="173"/>
      <point x="209" y="173" type="curve" smooth="yes"/>
      <point x="165" y="173"/>
      <point x="144" y="196"/>
      <point x="144" y="249" type="curve" smooth="yes"/>
      <point x="144" y="311"/>
      <point x="196" y="364"/>
      <point x="254" y="382" type="curve"/>
      <point x="179" y="375" type="line"/>
      <point x="318" y="375" type="line"/>
      <point x="318" y="396" type="line" smooth="yes"/>
      <point x="318" y="536"/>
      <point x="266" y="598"/>
      <point x="179" y="598" type="curve" smooth="yes"/>
      <point x="96" y="598"/>
      <point x="68" y="550"/>
      <point x="68" y="499" type="curve" smooth="yes"/>
      <point x="68" y="485"/>
      <point x="71" y="466"/>
      <point x="78" y="452" type="curve"/>
      <point x="183" y="459" type="line"/>
      <point x="181" y="467"/>
      <point x="180" y="478"/>
      <point x="180" y="488" type="curve" smooth="yes"/>
      <point x="180" y="505"/>
      <point x="187" y="519"/>
      <point x="204" y="519" type="curve" smooth="yes"/>
      <point x="222" y="519"/>
      <point x="235" y="498"/>
      <point x="239" y="442" type="curve"/>
      <point x="23" y="442" type="line"/>
      <point x="23" y="375" type="line"/>
      <point x="53" y="375" type="line" smooth="yes"/>
      <point x="91" y="375"/>
      <point x="131" y="377"/>
      <point x="151" y="381" type="curve"/>
      <point x="181" y="406" type="line"/>
      <point x="138" y="390"/>
      <point x="39" y="316"/>
      <point x="39" y="183" type="curve" smooth="yes"/>
      <point x="39" y="62"/>
      <point x="94" y="-10"/>
    </contour>
    <contour>
      <point x="442" y="-10" type="curve" smooth="yes"/>
      <point x="553" y="-10"/>
      <point x="608" y="68"/>
      <point x="608" y="198" type="curve" smooth="yes"/>
      <point x="608" y="358"/>
      <point x="502" y="442"/>
      <point x="378" y="442" type="curve"/>
      <point x="423" y="437" type="line"/>
      <point x="432" y="496"/>
      <point x="452" y="520"/>
      <point x="472" y="520" type="curve" smooth="yes"/>
      <point x="494" y="520"/>
      <point x="504" y="502"/>
      <point x="504" y="471" type="curve" smooth="yes"/>
      <point x="504" y="455"/>
      <point x="501" y="439"/>
      <point x="498" y="429" type="curve"/>
      <point x="572" y="413" type="line"/>
      <point x="578" y="436"/>
      <point x="582" y="462"/>
      <point x="582" y="484" type="curve" smooth="yes"/>
      <point x="582" y="539"/>
      <point x="554" y="598"/>
      <point x="479" y="598" type="curve" smooth="yes"/>
      <point x="393" y="598"/>
      <point x="342" y="521"/>
      <point x="342" y="396" type="curve" smooth="yes"/>
      <point x="342" y="375" type="line"/>
      <point x="356" y="375" type="line" smooth="yes"/>
      <point x="463" y="375"/>
      <point x="510" y="333"/>
      <point x="510" y="257" type="curve" smooth="yes"/>
      <point x="510" y="188"/>
      <point x="471" y="173"/>
      <point x="446" y="173" type="curve" smooth="yes"/>
      <point x="423" y="173"/>
      <point x="414" y="176"/>
      <point x="405" y="179" type="curve"/>
      <point x="344" y="4" type="line"/>
      <point x="376" y="-5"/>
      <point x="405" y="-10"/>
    </contour>
    <contour>
      <point x="325" y="224" type="curve" smooth="yes"/>
      <point x="362" y="224"/>
      <point x="379" y="206"/>
      <point x="379" y="183" type="curve" smooth="yes"/>
      <point x="379" y="162"/>
      <point x="369" y="153"/>
      <point x="357" y="147" type="curve"/>
      <point x="344" y="4" type="line"/>
      <point x="382" y="86" type="line"/>
      <point x="422" y="100"/>
      <point x="457" y="132"/>
      <point x="457" y="183" type="curve" smooth="yes"/>
      <point x="457" y="241"/>
      <point x="417" y="295"/>
      <point x="322" y="295" type="curve" smooth="yes"/>
      <point x="230" y="295"/>
      <point x="192" y="243"/>
      <point x="192" y="184" type="curve" smooth="yes"/>
      <point x="192" y="133"/>
      <point x="227" y="103"/>
      <point x="265" y="88" type="curve"/>
      <point x="303" y="4" type="line"/>
      <point x="290" y="147" type="line"/>
      <point x="278" y="155"/>
      <point x="270" y="166"/>
      <point x="270" y="184" type="curve" smooth="yes"/>
      <point x="270" y="209"/>
      <point x="291" y="224"/>
    </contour>
  </outline>
</glyph>
<glyph name="ngasinh" format="2">
  <advance width="688"/>
  <unicode hex="0D9E"/>
  <outline>
    <contour>
      <point x="477" y="-10" type="curve" smooth="yes"/>
      <point x="571" y="-10"/>
      <point x="658" y="67"/>
      <point x="658" y="345" type="curve" smooth="yes"/>
      <point x="658" y="683"/>
      <point x="522" y="804"/>
      <point x="322" y="804" type="curve" smooth="yes"/>
      <point x="212" y="804"/>
      <point x="139" y="771"/>
      <point x="55" y="725" type="curve"/>
      <point x="95" y="659" type="line"/>
      <point x="166" y="702"/>
      <point x="234" y="732"/>
      <point x="323" y="732" type="curve" smooth="yes"/>
      <point x="479" y="732"/>
      <point x="561" y="626"/>
      <point x="561" y="387" type="curve" smooth="yes"/>
      <point x="561" y="228"/>
      <point x="518" y="180"/>
      <point x="453" y="180" type="curve" smooth="yes"/>
      <point x="401" y="180"/>
      <point x="381" y="213"/>
      <point x="372" y="263" type="curve"/>
      <point x="303" y="263" type="line"/>
      <point x="286" y="198"/>
      <point x="254" y="180"/>
      <point x="200" y="180" type="curve" smooth="yes"/>
      <point x="161" y="180"/>
      <point x="137" y="195"/>
      <point x="137" y="226" type="curve" smooth="yes"/>
      <point x="137" y="259"/>
      <point x="154" y="276"/>
      <point x="231" y="310" type="curve" smooth="yes"/>
      <point x="351" y="363"/>
      <point x="395" y="391"/>
      <point x="395" y="473" type="curve" smooth="yes"/>
      <point x="395" y="547"/>
      <point x="341" y="598"/>
      <point x="224" y="598" type="curve" smooth="yes"/>
      <point x="103" y="598"/>
      <point x="19" y="543"/>
      <point x="19" y="452" type="curve" smooth="yes"/>
      <point x="19" y="375"/>
      <point x="54" y="334"/>
      <point x="124" y="334" type="curve" smooth="yes"/>
      <point x="194" y="334"/>
      <point x="230" y="384"/>
      <point x="230" y="446" type="curve" smooth="yes"/>
      <point x="230" y="513"/>
      <point x="191" y="549"/>
      <point x="147" y="549" type="curve" smooth="yes"/>
      <point x="132" y="549"/>
      <point x="119" y="547"/>
      <point x="110" y="544" type="curve"/>
      <point x="127" y="509" type="line"/>
      <point x="157" y="518"/>
      <point x="187" y="527"/>
      <point x="230" y="527" type="curve" smooth="yes"/>
      <point x="281" y="527"/>
      <point x="313" y="512"/>
      <point x="313" y="471" type="curve" smooth="yes"/>
      <point x="313" y="431"/>
      <point x="290" y="409"/>
      <point x="220" y="380" type="curve" smooth="yes"/>
      <point x="92" y="327"/>
      <point x="38" y="277"/>
      <point x="38" y="171" type="curve" smooth="yes"/>
      <point x="38" y="70"/>
      <point x="85" y="-10"/>
      <point x="192" y="-10" type="curve" smooth="yes"/>
      <point x="281" y="-10"/>
      <point x="321" y="48"/>
      <point x="336" y="128" type="curve"/>
      <point x="349" y="45"/>
      <point x="390" y="-10"/>
    </contour>
    <contour>
      <point x="155" y="450" type="curve" smooth="yes"/>
      <point x="155" y="418"/>
      <point x="148" y="401"/>
      <point x="125" y="401" type="curve" smooth="yes"/>
      <point x="102" y="401"/>
      <point x="96" y="425"/>
      <point x="96" y="450" type="curve" smooth="yes"/>
      <point x="96" y="481"/>
      <point x="104" y="499"/>
      <point x="127" y="499" type="curve" smooth="yes"/>
      <point x="146" y="499"/>
      <point x="155" y="480"/>
    </contour>
  </outline>
</glyph>
<glyph name="nngasinh" format="2">
  <advance width="868"/>
  <unicode hex="0D9F"/>
  <outline>
    <contour>
      <point x="620" y="-8" type="curve" smooth="yes"/>
      <point x="711" y="-8"/>
      <point x="837" y="39"/>
      <point x="837" y="297" type="curve" smooth="yes"/>
      <point x="837" y="507"/>
      <point x="729" y="598"/>
      <point x="624" y="598" type="curve" smooth="yes"/>
      <point x="507" y="598"/>
      <point x="432" y="508"/>
      <point x="398" y="293" type="curve"/>
      <point x="450" y="280" type="line"/>
      <point x="452" y="283"/>
      <point x="454" y="285"/>
      <point x="458" y="285" type="curve" smooth="yes"/>
      <point x="467" y="285"/>
      <point x="472" y="274"/>
      <point x="472" y="261" type="curve" smooth="yes"/>
      <point x="472" y="210"/>
      <point x="439" y="181"/>
      <point x="383" y="181" type="curve" smooth="yes"/>
      <point x="296" y="181"/>
      <point x="269" y="250"/>
      <point x="269" y="324" type="curve" smooth="yes"/>
      <point x="269" y="422"/>
      <point x="318" y="494"/>
      <point x="400" y="494" type="curve" smooth="yes"/>
      <point x="404" y="494"/>
      <point x="410" y="494"/>
      <point x="415" y="494" type="curve"/>
      <point x="440" y="588" type="line"/>
      <point x="427" y="558" type="line"/>
      <point x="419" y="559"/>
      <point x="406" y="557"/>
      <point x="394" y="557" type="curve" smooth="yes"/>
      <point x="267" y="557"/>
      <point x="172" y="442"/>
      <point x="172" y="275" type="curve" smooth="yes"/>
      <point x="172" y="122"/>
      <point x="226" y="-10"/>
      <point x="375" y="-10" type="curve" smooth="yes"/>
      <point x="518" y="-10"/>
      <point x="564" y="106"/>
      <point x="564" y="214" type="curve" smooth="yes"/>
      <point x="564" y="318"/>
      <point x="509" y="354"/>
      <point x="456" y="354" type="curve" smooth="yes"/>
      <point x="442" y="354"/>
      <point x="432" y="352"/>
      <point x="423" y="349" type="curve"/>
      <point x="470" y="317" type="line"/>
      <point x="505" y="426"/>
      <point x="541" y="463"/>
      <point x="602" y="463" type="curve" smooth="yes"/>
      <point x="661" y="463"/>
      <point x="721" y="411"/>
      <point x="721" y="256" type="curve" smooth="yes"/>
      <point x="721" y="137"/>
      <point x="684" y="64"/>
      <point x="609" y="64" type="curve" smooth="yes"/>
      <point x="584" y="64"/>
      <point x="566" y="66"/>
      <point x="548" y="72" type="curve"/>
      <point x="535" y="2" type="line"/>
      <point x="559" y="-4"/>
      <point x="585" y="-8"/>
    </contour>
    <contour>
      <point x="31" y="318" type="curve" smooth="yes"/>
      <point x="31" y="219"/>
      <point x="58" y="119"/>
      <point x="97" y="36" type="curve"/>
      <point x="174" y="67" type="line"/>
      <point x="139" y="145"/>
      <point x="114" y="220"/>
      <point x="114" y="313" type="curve" smooth="yes"/>
      <point x="114" y="475"/>
      <point x="218" y="537"/>
      <point x="308" y="537" type="curve" smooth="yes"/>
      <point x="348" y="537"/>
      <point x="376" y="534"/>
      <point x="415" y="525" type="curve"/>
      <point x="440" y="588" type="line"/>
      <point x="390" y="602"/>
      <point x="350" y="607"/>
      <point x="295" y="607" type="curve" smooth="yes"/>
      <point x="164" y="607"/>
      <point x="31" y="515"/>
    </contour>
  </outline>
</glyph>
<glyph name="casinh" format="2">
  <advance width="633"/>
  <unicode hex="0DA0"/>
  <outline>
    <contour>
      <point x="287" y="-10" type="curve" smooth="yes"/>
      <point x="509" y="-10"/>
      <point x="605" y="165"/>
      <point x="605" y="412" type="curve" smooth="yes"/>
      <point x="605" y="682"/>
      <point x="476" y="804"/>
      <point x="293" y="804" type="curve" smooth="yes"/>
      <point x="185" y="804"/>
      <point x="115" y="769"/>
      <point x="34" y="725" type="curve"/>
      <point x="74" y="659" type="line"/>
      <point x="143" y="702"/>
      <point x="207" y="732"/>
      <point x="292" y="732" type="curve" smooth="yes"/>
      <point x="443" y="732"/>
      <point x="508" y="609"/>
      <point x="508" y="442" type="curve" smooth="yes"/>
      <point x="508" y="308"/>
      <point x="455" y="181"/>
      <point x="279" y="181" type="curve" smooth="yes"/>
      <point x="192" y="181"/>
      <point x="151" y="221"/>
      <point x="151" y="282" type="curve" smooth="yes"/>
      <point x="151" y="326"/>
      <point x="177" y="367"/>
      <point x="239" y="385" type="curve"/>
      <point x="176" y="375" type="line"/>
      <point x="341" y="375" type="line"/>
      <point x="341" y="396" type="line" smooth="yes"/>
      <point x="341" y="536"/>
      <point x="289" y="598"/>
      <point x="202" y="598" type="curve" smooth="yes"/>
      <point x="119" y="598"/>
      <point x="91" y="550"/>
      <point x="91" y="499" type="curve" smooth="yes"/>
      <point x="91" y="485"/>
      <point x="94" y="466"/>
      <point x="101" y="452" type="curve"/>
      <point x="206" y="459" type="line"/>
      <point x="204" y="467"/>
      <point x="203" y="478"/>
      <point x="203" y="488" type="curve" smooth="yes"/>
      <point x="203" y="505"/>
      <point x="210" y="519"/>
      <point x="227" y="519" type="curve" smooth="yes"/>
      <point x="245" y="519"/>
      <point x="258" y="498"/>
      <point x="262" y="442" type="curve"/>
      <point x="23" y="442" type="line"/>
      <point x="23" y="375" type="line"/>
      <point x="44" y="375" type="line" smooth="yes"/>
      <point x="76" y="375"/>
      <point x="116" y="377"/>
      <point x="137" y="381" type="curve"/>
      <point x="163" y="406" type="line"/>
      <point x="89" y="371"/>
      <point x="46" y="302"/>
      <point x="46" y="217" type="curve" smooth="yes"/>
      <point x="46" y="81"/>
      <point x="112" y="-10"/>
    </contour>
  </outline>
</glyph>
<glyph name="jasinh" format="2">
  <advance width="609"/>
  <unicode hex="0DA2"/>
  <outline>
    <contour>
      <point x="305" y="-10" type="curve" smooth="yes"/>
      <point x="488" y="-10"/>
      <point x="581" y="84"/>
      <point x="581" y="239" type="curve" smooth="yes"/>
      <point x="581" y="368"/>
      <point x="481" y="442"/>
      <point x="366" y="442" type="curve" smooth="yes"/>
      <point x="358" y="442" type="line"/>
      <point x="388" y="437" type="line"/>
      <point x="395" y="511"/>
      <point x="424" y="532"/>
      <point x="459" y="532" type="curve" smooth="yes"/>
      <point x="481" y="532"/>
      <point x="493" y="515"/>
      <point x="493" y="481" type="curve" smooth="yes"/>
      <point x="493" y="458"/>
      <point x="485" y="444"/>
      <point x="473" y="444" type="curve" smooth="yes"/>
      <point x="457" y="444"/>
      <point x="453" y="464"/>
      <point x="453" y="492" type="curve" smooth="yes"/>
      <point x="453" y="580"/>
      <point x="491" y="647"/>
      <point x="586" y="692" type="curve"/>
      <point x="528" y="794" type="line"/>
      <point x="441" y="734"/>
      <point x="392" y="654"/>
      <point x="392" y="530" type="curve" smooth="yes"/>
      <point x="392" y="513" type="line" smooth="yes"/>
      <point x="392" y="427"/>
      <point x="427" y="387"/>
      <point x="477" y="387" type="curve" smooth="yes"/>
      <point x="531" y="387"/>
      <point x="567" y="417"/>
      <point x="567" y="486" type="curve" smooth="yes"/>
      <point x="567" y="561"/>
      <point x="526" y="598"/>
      <point x="463" y="598" type="curve" smooth="yes"/>
      <point x="374" y="598"/>
      <point x="322" y="521"/>
      <point x="322" y="396" type="curve" smooth="yes"/>
      <point x="322" y="375" type="line"/>
      <point x="339" y="375" type="line" smooth="yes"/>
      <point x="453" y="375"/>
      <point x="483" y="336"/>
      <point x="483" y="287" type="curve" smooth="yes"/>
      <point x="483" y="202"/>
      <point x="403" y="181"/>
      <point x="302" y="181" type="curve" smooth="yes"/>
      <point x="194" y="181"/>
      <point x="126" y="209"/>
      <point x="126" y="284" type="curve" smooth="yes"/>
      <point x="126" y="341"/>
      <point x="164" y="375"/>
      <point x="269" y="375" type="curve" smooth="yes"/>
      <point x="298" y="375" type="line"/>
      <point x="298" y="397" type="line" smooth="yes"/>
      <point x="298" y="536"/>
      <point x="246" y="598"/>
      <point x="158" y="598" type="curve" smooth="yes"/>
      <point x="76" y="598"/>
      <point x="48" y="550"/>
      <point x="48" y="499" type="curve" smooth="yes"/>
      <point x="48" y="470"/>
      <point x="61" y="441"/>
      <point x="72" y="427" type="curve"/>
      <point x="167" y="447" type="line"/>
      <point x="165" y="455"/>
      <point x="160" y="469"/>
      <point x="160" y="488" type="curve" smooth="yes"/>
      <point x="160" y="505"/>
      <point x="167" y="519"/>
      <point x="184" y="519" type="curve" smooth="yes"/>
      <point x="202" y="519"/>
      <point x="216" y="498"/>
      <point x="219" y="438" type="curve"/>
      <point x="256" y="442" type="line"/>
      <point x="242" y="442" type="line" smooth="yes"/>
      <point x="128" y="442"/>
      <point x="28" y="373"/>
      <point x="28" y="239" type="curve" smooth="yes"/>
      <point x="28" y="88"/>
      <point x="115" y="-10"/>
    </contour>
  </outline>
</glyph>
<glyph name="jnyasinh" format="2">
  <advance width="874"/>
  <unicode hex="0DA5"/>
  <outline>
    <contour>
      <point x="664" y="522" type="curve"/>
      <point x="709" y="581" type="line"/>
      <point x="684" y="591"/>
      <point x="659" y="598"/>
      <point x="627" y="598" type="curve" smooth="yes"/>
      <point x="504" y="598"/>
      <point x="432" y="508"/>
      <point x="398" y="293" type="curve"/>
      <point x="450" y="280" type="line"/>
      <point x="452" y="283"/>
      <point x="454" y="285"/>
      <point x="458" y="285" type="curve" smooth="yes"/>
      <point x="467" y="285"/>
      <point x="472" y="274"/>
      <point x="472" y="261" type="curve" smooth="yes"/>
      <point x="472" y="210"/>
      <point x="439" y="181"/>
      <point x="383" y="181" type="curve" smooth="yes"/>
      <point x="296" y="181"/>
      <point x="269" y="250"/>
      <point x="269" y="324" type="curve" smooth="yes"/>
      <point x="269" y="422"/>
      <point x="318" y="494"/>
      <point x="400" y="494" type="curve" smooth="yes"/>
      <point x="404" y="494"/>
      <point x="410" y="494"/>
      <point x="415" y="494" type="curve"/>
      <point x="440" y="588" type="line"/>
      <point x="425" y="555" type="line"/>
      <point x="417" y="556"/>
      <point x="406" y="557"/>
      <point x="394" y="557" type="curve" smooth="yes"/>
      <point x="267" y="557"/>
      <point x="172" y="442"/>
      <point x="172" y="275" type="curve" smooth="yes"/>
      <point x="172" y="122"/>
      <point x="226" y="-10"/>
      <point x="375" y="-10" type="curve" smooth="yes"/>
      <point x="518" y="-10"/>
      <point x="556" y="106"/>
      <point x="556" y="214" type="curve" smooth="yes"/>
      <point x="556" y="318"/>
      <point x="509" y="354"/>
      <point x="456" y="354" type="curve" smooth="yes"/>
      <point x="442" y="354"/>
      <point x="432" y="352"/>
      <point x="423" y="349" type="curve"/>
      <point x="470" y="317" type="line"/>
      <point x="499" y="461"/>
      <point x="559" y="527"/>
      <point x="623" y="527" type="curve" smooth="yes"/>
      <point x="637" y="527"/>
      <point x="656" y="525"/>
    </contour>
    <contour>
      <point x="31" y="318" type="curve" smooth="yes"/>
      <point x="31" y="219"/>
      <point x="58" y="119"/>
      <point x="97" y="36" type="curve"/>
      <point x="174" y="67" type="line"/>
      <point x="139" y="145"/>
      <point x="114" y="220"/>
      <point x="114" y="313" type="curve" smooth="yes"/>
      <point x="114" y="475"/>
      <point x="218" y="537"/>
      <point x="308" y="537" type="curve" smooth="yes"/>
      <point x="348" y="537"/>
      <point x="376" y="534"/>
      <point x="415" y="525" type="curve"/>
      <point x="440" y="588" type="line"/>
      <point x="390" y="602"/>
      <point x="350" y="607"/>
      <point x="295" y="607" type="curve" smooth="yes"/>
      <point x="164" y="607"/>
      <point x="31" y="515"/>
    </contour>
    <contour>
      <point x="726" y="-10" type="curve" smooth="yes"/>
      <point x="777" y="-10"/>
      <point x="831" y="4"/>
      <point x="874" y="26" type="curve"/>
      <point x="849" y="92" type="line"/>
      <point x="813" y="74"/>
      <point x="785" y="70"/>
      <point x="751" y="70" type="curve" smooth="yes"/>
      <point x="677" y="70"/>
      <point x="624" y="118"/>
      <point x="624" y="218" type="curve" smooth="yes"/>
      <point x="624" y="314"/>
      <point x="681" y="375"/>
      <point x="814" y="375" type="curve" smooth="yes"/>
      <point x="847" y="375" type="line"/>
      <point x="847" y="396" type="line" smooth="yes"/>
      <point x="847" y="536"/>
      <point x="796" y="598"/>
      <point x="707" y="598" type="curve" smooth="yes"/>
      <point x="626" y="598"/>
      <point x="597" y="549"/>
      <point x="597" y="499" type="curve" smooth="yes"/>
      <point x="597" y="479"/>
      <point x="604" y="454"/>
      <point x="612" y="441" type="curve"/>
      <point x="714" y="454" type="line"/>
      <point x="711" y="464"/>
      <point x="709" y="478"/>
      <point x="709" y="488" type="curve" smooth="yes"/>
      <point x="709" y="505"/>
      <point x="716" y="519"/>
      <point x="733" y="519" type="curve" smooth="yes"/>
      <point x="751" y="519"/>
      <point x="764" y="499"/>
      <point x="768" y="441" type="curve"/>
      <point x="767" y="441" type="line"/>
      <point x="562" y="439"/>
      <point x="473" y="359"/>
      <point x="473" y="204" type="curve" smooth="yes"/>
      <point x="473" y="68"/>
      <point x="548" y="-10"/>
    </contour>
    <contour>
      <point x="778" y="-286" type="curve" smooth="yes"/>
      <point x="831" y="-286"/>
      <point x="870" y="-274"/>
      <point x="911" y="-253" type="curve"/>
      <point x="879" y="-188" type="line"/>
      <point x="858" y="-199"/>
      <point x="840" y="-205"/>
      <point x="820" y="-205" type="curve" smooth="yes"/>
      <point x="779" y="-205"/>
      <point x="754" y="-181"/>
      <point x="754" y="-131" type="curve" smooth="yes"/>
      <point x="754" y="-80"/>
      <point x="779" y="-41"/>
      <point x="851" y="23" type="curve"/>
      <point x="756" y="10" type="line"/>
      <point x="700" y="-18"/>
      <point x="627" y="-72"/>
      <point x="627" y="-155" type="curve" smooth="yes"/>
      <point x="627" y="-257"/>
      <point x="700" y="-286"/>
    </contour>
  </outline>
</glyph>
<glyph name="nyjasinh" format="2">
  <advance width="746"/>
  <unicode hex="0DA6"/>
  <outline>
    <contour>
      <point x="442" y="-10" type="curve" smooth="yes"/>
      <point x="625" y="-10"/>
      <point x="718" y="84"/>
      <point x="718" y="239" type="curve" smooth="yes"/>
      <point x="718" y="368"/>
      <point x="618" y="442"/>
      <point x="503" y="442" type="curve" smooth="yes"/>
      <point x="495" y="442" type="line"/>
      <point x="525" y="437" type="line"/>
      <point x="532" y="511"/>
      <point x="561" y="532"/>
      <point x="596" y="532" type="curve" smooth="yes"/>
      <point x="618" y="532"/>
      <point x="630" y="515"/>
      <point x="630" y="481" type="curve" smooth="yes"/>
      <point x="630" y="458"/>
      <point x="622" y="444"/>
      <point x="610" y="444" type="curve" smooth="yes"/>
      <point x="594" y="444"/>
      <point x="590" y="464"/>
      <point x="590" y="492" type="curve" smooth="yes"/>
      <point x="590" y="580"/>
      <point x="628" y="647"/>
      <point x="723" y="692" type="curve"/>
      <point x="665" y="794" type="line"/>
      <point x="578" y="734"/>
      <point x="529" y="654"/>
      <point x="529" y="530" type="curve" smooth="yes"/>
      <point x="529" y="513" type="line" smooth="yes"/>
      <point x="529" y="427"/>
      <point x="564" y="387"/>
      <point x="614" y="387" type="curve" smooth="yes"/>
      <point x="668" y="387"/>
      <point x="704" y="417"/>
      <point x="704" y="486" type="curve" smooth="yes"/>
      <point x="704" y="561"/>
      <point x="663" y="598"/>
      <point x="600" y="598" type="curve" smooth="yes"/>
      <point x="511" y="598"/>
      <point x="459" y="521"/>
      <point x="459" y="396" type="curve" smooth="yes"/>
      <point x="459" y="375" type="line"/>
      <point x="476" y="375" type="line" smooth="yes"/>
      <point x="590" y="375"/>
      <point x="620" y="336"/>
      <point x="620" y="287" type="curve" smooth="yes"/>
      <point x="620" y="202"/>
      <point x="540" y="181"/>
      <point x="439" y="181" type="curve" smooth="yes"/>
      <point x="331" y="181"/>
      <point x="263" y="209"/>
      <point x="263" y="284" type="curve" smooth="yes"/>
      <point x="263" y="341"/>
      <point x="301" y="375"/>
      <point x="406" y="375" type="curve" smooth="yes"/>
      <point x="435" y="375" type="line"/>
      <point x="435" y="397" type="line" smooth="yes"/>
      <point x="435" y="536"/>
      <point x="383" y="598"/>
      <point x="295" y="598" type="curve" smooth="yes"/>
      <point x="220" y="598"/>
      <point x="190" y="550"/>
      <point x="190" y="499" type="curve" smooth="yes"/>
      <point x="190" y="470"/>
      <point x="203" y="441"/>
      <point x="214" y="427" type="curve"/>
      <point x="304" y="447" type="line"/>
      <point x="302" y="455"/>
      <point x="297" y="469"/>
      <point x="297" y="488" type="curve" smooth="yes"/>
      <point x="297" y="505"/>
      <point x="304" y="519"/>
      <point x="321" y="519" type="curve" smooth="yes"/>
      <point x="339" y="519"/>
      <point x="353" y="498"/>
      <point x="356" y="438" type="curve"/>
      <point x="393" y="442" type="line"/>
      <point x="379" y="442" type="line" smooth="yes"/>
      <point x="265" y="442"/>
      <point x="165" y="373"/>
      <point x="165" y="239" type="curve" smooth="yes"/>
      <point x="165" y="88"/>
      <point x="252" y="-10"/>
    </contour>
    <contour>
      <point x="28" y="328" type="curve" smooth="yes"/>
      <point x="28" y="214"/>
      <point x="66" y="125"/>
      <point x="110" y="43" type="curve"/>
      <point x="182" y="86" type="line"/>
      <point x="139" y="154"/>
      <point x="111" y="228"/>
      <point x="111" y="320" type="curve" smooth="yes"/>
      <point x="111" y="458"/>
      <point x="183" y="527"/>
      <point x="264" y="527" type="curve" smooth="yes"/>
      <point x="276" y="527"/>
      <point x="282" y="527"/>
      <point x="289" y="526" type="curve"/>
      <point x="312" y="590" type="line"/>
      <point x="301" y="594"/>
      <point x="290" y="596"/>
      <point x="267" y="596" type="curve" smooth="yes"/>
      <point x="142" y="596"/>
      <point x="28" y="507"/>
    </contour>
  </outline>
</glyph>
<glyph name="ttasinh" format="2">
  <advance width="621"/>
  <unicode hex="0DA7"/>
  <outline>
    <contour>
      <point x="280" y="-10" type="curve" smooth="yes"/>
      <point x="508" y="-10"/>
      <point x="593" y="173"/>
      <point x="593" y="412" type="curve" smooth="yes"/>
      <point x="593" y="678"/>
      <point x="471" y="804"/>
      <point x="288" y="804" type="curve" smooth="yes"/>
      <point x="182" y="804"/>
      <point x="112" y="769"/>
      <point x="31" y="725" type="curve"/>
      <point x="72" y="658" type="line"/>
      <point x="141" y="702"/>
      <point x="204" y="732"/>
      <point x="286" y="732" type="curve" smooth="yes"/>
      <point x="437" y="732"/>
      <point x="496" y="608"/>
      <point x="496" y="452" type="curve" smooth="yes"/>
      <point x="496" y="316"/>
      <point x="446" y="181"/>
      <point x="275" y="181" type="curve" smooth="yes"/>
      <point x="181" y="181"/>
      <point x="125" y="220"/>
      <point x="125" y="308" type="curve" smooth="yes"/>
      <point x="125" y="390"/>
      <point x="188" y="438"/>
      <point x="266" y="438" type="curve" smooth="yes"/>
      <point x="287" y="438"/>
      <point x="304" y="437"/>
      <point x="325" y="433" type="curve"/>
      <point x="337" y="503" type="line"/>
      <point x="318" y="507"/>
      <point x="297" y="510"/>
      <point x="268" y="510" type="curve" smooth="yes"/>
      <point x="134" y="510"/>
      <point x="27" y="421"/>
      <point x="27" y="261" type="curve" smooth="yes"/>
      <point x="27" y="82"/>
      <point x="130" y="-10"/>
    </contour>
  </outline>
</glyph>
<glyph name="tthasinh" format="2">
  <advance width="672"/>
  <unicode hex="0DA8"/>
  <outline>
    <contour>
      <point x="461" y="-10" type="curve" smooth="yes"/>
      <point x="555" y="-10"/>
      <point x="642" y="66"/>
      <point x="642" y="322" type="curve" smooth="yes"/>
      <point x="642" y="627"/>
      <point x="480" y="787"/>
      <point x="253" y="817" type="curve"/>
      <point x="240" y="736" type="line"/>
      <point x="415" y="733"/>
      <point x="545" y="602"/>
      <point x="545" y="364" type="curve" smooth="yes"/>
      <point x="545" y="223"/>
      <point x="502" y="180"/>
      <point x="442" y="180" type="curve" smooth="yes"/>
      <point x="385" y="180"/>
      <point x="365" y="213"/>
      <point x="356" y="263" type="curve"/>
      <point x="287" y="263" type="line"/>
      <point x="270" y="198"/>
      <point x="238" y="180"/>
      <point x="201" y="180" type="curve" smooth="yes"/>
      <point x="157" y="180"/>
      <point x="126" y="208"/>
      <point x="126" y="281" type="curve" smooth="yes"/>
      <point x="126" y="366"/>
      <point x="174" y="438"/>
      <point x="262" y="438" type="curve" smooth="yes"/>
      <point x="280" y="438"/>
      <point x="295" y="438"/>
      <point x="315" y="434" type="curve"/>
      <point x="327" y="504" type="line"/>
      <point x="307" y="508"/>
      <point x="290" y="510"/>
      <point x="266" y="510" type="curve" smooth="yes"/>
      <point x="112" y="510"/>
      <point x="28" y="401"/>
      <point x="28" y="230" type="curve" smooth="yes"/>
      <point x="28" y="90"/>
      <point x="79" y="-10"/>
      <point x="184" y="-10" type="curve" smooth="yes"/>
      <point x="265" y="-10"/>
      <point x="305" y="46"/>
      <point x="320" y="128" type="curve"/>
      <point x="333" y="45"/>
      <point x="374" y="-10"/>
    </contour>
    <contour>
      <point x="393" y="542" type="curve" smooth="yes"/>
      <point x="453" y="542"/>
      <point x="496" y="585"/>
      <point x="519" y="662" type="curve"/>
      <point x="464" y="713" type="line"/>
      <point x="446" y="648"/>
      <point x="431" y="625"/>
      <point x="398" y="625" type="curve" smooth="yes"/>
      <point x="379" y="625"/>
      <point x="367" y="637"/>
      <point x="359" y="671" type="curve" smooth="yes"/>
      <point x="343" y="736"/>
      <point x="316" y="765"/>
      <point x="278" y="781" type="curve"/>
      <point x="249" y="739" type="line"/>
      <point x="263" y="734"/>
      <point x="274" y="718"/>
      <point x="283" y="665" type="curve" smooth="yes"/>
      <point x="298" y="581"/>
      <point x="330" y="542"/>
    </contour>
  </outline>
</glyph>
<glyph name="ddasinh" format="2">
  <advance width="678"/>
  <unicode hex="0DA9"/>
  <outline>
    <contour>
      <point x="467" y="-10" type="curve" smooth="yes"/>
      <point x="561" y="-10"/>
      <point x="648" y="67"/>
      <point x="648" y="345" type="curve" smooth="yes"/>
      <point x="648" y="683"/>
      <point x="512" y="804"/>
      <point x="312" y="804" type="curve" smooth="yes"/>
      <point x="202" y="804"/>
      <point x="129" y="771"/>
      <point x="45" y="725" type="curve"/>
      <point x="85" y="659" type="line"/>
      <point x="156" y="702"/>
      <point x="224" y="732"/>
      <point x="313" y="732" type="curve" smooth="yes"/>
      <point x="469" y="732"/>
      <point x="551" y="626"/>
      <point x="551" y="387" type="curve" smooth="yes"/>
      <point x="551" y="228"/>
      <point x="508" y="180"/>
      <point x="443" y="180" type="curve" smooth="yes"/>
      <point x="391" y="180"/>
      <point x="371" y="213"/>
      <point x="362" y="263" type="curve"/>
      <point x="293" y="263" type="line"/>
      <point x="276" y="198"/>
      <point x="244" y="180"/>
      <point x="207" y="180" type="curve" smooth="yes"/>
      <point x="165" y="180"/>
      <point x="142" y="200"/>
      <point x="142" y="249" type="curve" smooth="yes"/>
      <point x="142" y="310"/>
      <point x="196" y="364"/>
      <point x="254" y="382" type="curve"/>
      <point x="179" y="375" type="line"/>
      <point x="328" y="375" type="line"/>
      <point x="328" y="396" type="line" smooth="yes"/>
      <point x="328" y="536"/>
      <point x="276" y="598"/>
      <point x="189" y="598" type="curve" smooth="yes"/>
      <point x="106" y="598"/>
      <point x="78" y="550"/>
      <point x="78" y="499" type="curve" smooth="yes"/>
      <point x="78" y="485"/>
      <point x="81" y="466"/>
      <point x="88" y="452" type="curve"/>
      <point x="193" y="459" type="line"/>
      <point x="191" y="467"/>
      <point x="190" y="478"/>
      <point x="190" y="488" type="curve" smooth="yes"/>
      <point x="190" y="505"/>
      <point x="197" y="519"/>
      <point x="214" y="519" type="curve" smooth="yes"/>
      <point x="232" y="519"/>
      <point x="245" y="498"/>
      <point x="249" y="442" type="curve"/>
      <point x="23" y="442" type="line"/>
      <point x="23" y="375" type="line"/>
      <point x="53" y="375" type="line" smooth="yes"/>
      <point x="91" y="375"/>
      <point x="131" y="377"/>
      <point x="151" y="381" type="curve"/>
      <point x="175" y="407" type="line"/>
      <point x="109" y="373"/>
      <point x="39" y="312"/>
      <point x="39" y="183" type="curve" smooth="yes"/>
      <point x="39" y="75"/>
      <point x="84" y="-10"/>
      <point x="189" y="-10" type="curve" smooth="yes"/>
      <point x="271" y="-10"/>
      <point x="311" y="46"/>
      <point x="326" y="128" type="curve"/>
      <point x="339" y="45"/>
      <point x="380" y="-10"/>
    </contour>
  </outline>
</glyph>
<glyph name="ddhasinh" format="2">
  <advance width="678"/>
  <unicode hex="0DAA"/>
  <outline>
    <contour>
      <point x="467" y="-10" type="curve" smooth="yes"/>
      <point x="561" y="-10"/>
      <point x="648" y="66"/>
      <point x="648" y="322" type="curve" smooth="yes"/>
      <point x="648" y="627"/>
      <point x="486" y="787"/>
      <point x="259" y="817" type="curve"/>
      <point x="246" y="736" type="line"/>
      <point x="421" y="733"/>
      <point x="551" y="602"/>
      <point x="551" y="364" type="curve" smooth="yes"/>
      <point x="551" y="223"/>
      <point x="508" y="180"/>
      <point x="448" y="180" type="curve" smooth="yes"/>
      <point x="391" y="180"/>
      <point x="371" y="213"/>
      <point x="362" y="263" type="curve"/>
      <point x="293" y="263" type="line"/>
      <point x="276" y="198"/>
      <point x="244" y="180"/>
      <point x="207" y="180" type="curve" smooth="yes"/>
      <point x="165" y="180"/>
      <point x="142" y="200"/>
      <point x="142" y="249" type="curve" smooth="yes"/>
      <point x="142" y="310"/>
      <point x="196" y="364"/>
      <point x="254" y="382" type="curve"/>
      <point x="179" y="375" type="line"/>
      <point x="328" y="375" type="line"/>
      <point x="328" y="396" type="line" smooth="yes"/>
      <point x="328" y="536"/>
      <point x="276" y="598"/>
      <point x="189" y="598" type="curve" smooth="yes"/>
      <point x="106" y="598"/>
      <point x="78" y="550"/>
      <point x="78" y="499" type="curve" smooth="yes"/>
      <point x="78" y="485"/>
      <point x="81" y="466"/>
      <point x="88" y="452" type="curve"/>
      <point x="193" y="459" type="line"/>
      <point x="191" y="467"/>
      <point x="190" y="478"/>
      <point x="190" y="488" type="curve" smooth="yes"/>
      <point x="190" y="505"/>
      <point x="197" y="519"/>
      <point x="214" y="519" type="curve" smooth="yes"/>
      <point x="232" y="519"/>
      <point x="245" y="498"/>
      <point x="249" y="442" type="curve"/>
      <point x="23" y="442" type="line"/>
      <point x="23" y="375" type="line"/>
      <point x="53" y="375" type="line" smooth="yes"/>
      <point x="91" y="375"/>
      <point x="131" y="377"/>
      <point x="151" y="381" type="curve"/>
      <point x="175" y="407" type="line"/>
      <point x="109" y="373"/>
      <point x="39" y="312"/>
      <point x="39" y="183" type="curve" smooth="yes"/>
      <point x="39" y="75"/>
      <point x="84" y="-10"/>
      <point x="189" y="-10" type="curve" smooth="yes"/>
      <point x="271" y="-10"/>
      <point x="311" y="46"/>
      <point x="326" y="128" type="curve"/>
      <point x="339" y="45"/>
      <point x="380" y="-10"/>
    </contour>
    <contour>
      <point x="399" y="542" type="curve" smooth="yes"/>
      <point x="459" y="542"/>
      <point x="502" y="585"/>
      <point x="525" y="662" type="curve"/>
      <point x="470" y="713" type="line"/>
      <point x="452" y="648"/>
      <point x="437" y="625"/>
      <point x="404" y="625" type="curve" smooth="yes"/>
      <point x="385" y="625"/>
      <point x="373" y="637"/>
      <point x="365" y="671" type="curve" smooth="yes"/>
      <point x="349" y="736"/>
      <point x="322" y="765"/>
      <point x="284" y="781" type="curve"/>
      <point x="255" y="739" type="line"/>
      <point x="269" y="734"/>
      <point x="280" y="718"/>
      <point x="289" y="665" type="curve" smooth="yes"/>
      <point x="304" y="581"/>
      <point x="336" y="542"/>
    </contour>
  </outline>
</glyph>
<glyph name="nnasinh" format="2">
  <advance width="932"/>
  <unicode hex="0DAB"/>
  <outline>
    <contour>
      <point x="66" y="133" type="line"/>
      <point x="82" y="163" type="line"/>
      <point x="226" y="348"/>
      <point x="415" y="548"/>
      <point x="701" y="798" type="curve"/>
      <point x="636" y="869" type="line"/>
      <point x="413" y="641"/>
      <point x="183" y="395"/>
      <point x="-2" y="174" type="curve"/>
    </contour>
    <contour>
      <point x="285" y="216" type="curve" smooth="yes"/>
      <point x="374" y="216"/>
      <point x="423" y="259"/>
      <point x="423" y="342" type="curve" smooth="yes"/>
      <point x="423" y="402"/>
      <point x="397" y="456"/>
      <point x="320" y="456" type="curve" smooth="yes"/>
      <point x="260" y="456"/>
      <point x="224" y="410"/>
      <point x="224" y="358" type="curve" smooth="yes"/>
      <point x="224" y="309"/>
      <point x="242" y="280"/>
      <point x="260" y="261" type="curve"/>
      <point x="245" y="289" type="line"/>
      <point x="165" y="301"/>
      <point x="147" y="363"/>
      <point x="147" y="407" type="curve" smooth="yes"/>
      <point x="147" y="484"/>
      <point x="202" y="526"/>
      <point x="291" y="526" type="curve" smooth="yes"/>
      <point x="409" y="526"/>
      <point x="477" y="446"/>
      <point x="477" y="339" type="curve" smooth="yes"/>
      <point x="477" y="204"/>
      <point x="399" y="160"/>
      <point x="292" y="160" type="curve" smooth="yes"/>
      <point x="217" y="160"/>
      <point x="157" y="191"/>
      <point x="126" y="226" type="curve"/>
      <point x="56" y="186" type="line"/>
      <point x="65" y="133" type="line"/>
      <point x="105" y="140" type="line"/>
      <point x="140" y="63"/>
      <point x="205" y="-10"/>
      <point x="331" y="-10" type="curve" smooth="yes"/>
      <point x="465" y="-10"/>
      <point x="576" y="72"/>
      <point x="576" y="295" type="curve" smooth="yes"/>
      <point x="576" y="474"/>
      <point x="470" y="598"/>
      <point x="293" y="598" type="curve" smooth="yes"/>
      <point x="147" y="598"/>
      <point x="66" y="514"/>
      <point x="66" y="413" type="curve" smooth="yes"/>
      <point x="66" y="286"/>
      <point x="165" y="216"/>
    </contour>
    <contour>
      <point x="287" y="343" type="curve" smooth="yes"/>
      <point x="287" y="374"/>
      <point x="298" y="392"/>
      <point x="316" y="392" type="curve" smooth="yes"/>
      <point x="336" y="392"/>
      <point x="348" y="378"/>
      <point x="348" y="342" type="curve" smooth="yes"/>
      <point x="348" y="301"/>
      <point x="334" y="292"/>
      <point x="315" y="292" type="curve" smooth="yes"/>
      <point x="300" y="292"/>
      <point x="287" y="303"/>
    </contour>
    <contour>
      <point x="502" y="332" type="curve"/>
      <point x="571" y="329" type="line"/>
      <point x="571" y="380"/>
      <point x="573" y="407"/>
      <point x="591" y="407" type="curve" smooth="yes"/>
      <point x="607" y="407"/>
      <point x="613" y="384"/>
      <point x="614" y="320" type="curve"/>
      <point x="687" y="320" type="line"/>
      <point x="687" y="401"/>
      <point x="695" y="432"/>
      <point x="717" y="432" type="curve" smooth="yes"/>
      <point x="744" y="432"/>
      <point x="749" y="374"/>
      <point x="749" y="249" type="curve" smooth="yes"/>
      <point x="749" y="130"/>
      <point x="742" y="62"/>
      <point x="696" y="62" type="curve" smooth="yes"/>
      <point x="672" y="62"/>
      <point x="656" y="76"/>
      <point x="633" y="133" type="curve"/>
      <point x="571" y="102" type="line"/>
      <point x="603" y="25"/>
      <point x="650" y="-10"/>
      <point x="722" y="-10" type="curve" smooth="yes"/>
      <point x="823" y="-10"/>
      <point x="899" y="45"/>
      <point x="899" y="249" type="curve" smooth="yes"/>
      <point x="899" y="452"/>
      <point x="815" y="504"/>
      <point x="742" y="504" type="curve" smooth="yes"/>
      <point x="689" y="504"/>
      <point x="664" y="474"/>
      <point x="649" y="446" type="curve"/>
      <point x="632" y="474"/>
      <point x="614" y="484"/>
      <point x="590" y="484" type="curve" smooth="yes"/>
      <point x="531" y="484"/>
      <point x="502" y="419"/>
    </contour>
  </outline>
</glyph>
<glyph name="tasinh" format="2">
  <advance width="762"/>
  <unicode hex="0DAD"/>
  <outline>
    <contour>
      <point x="292" y="-10" type="curve" smooth="yes"/>
      <point x="445" y="-10"/>
      <point x="493" y="110"/>
      <point x="493" y="224" type="curve" smooth="yes"/>
      <point x="493" y="316"/>
      <point x="459" y="442"/>
      <point x="281" y="442" type="curve" smooth="yes"/>
      <point x="246" y="442"/>
      <point x="209" y="431"/>
      <point x="190" y="424" type="curve"/>
      <point x="174" y="368" type="line"/>
      <point x="204" y="375"/>
      <point x="245" y="375"/>
      <point x="259" y="375" type="curve" smooth="yes"/>
      <point x="363" y="375"/>
      <point x="398" y="326"/>
      <point x="398" y="271" type="curve" smooth="yes"/>
      <point x="398" y="205"/>
      <point x="356" y="180"/>
      <point x="281" y="180" type="curve" smooth="yes"/>
      <point x="201" y="180"/>
      <point x="179" y="199"/>
      <point x="179" y="241" type="curve" smooth="yes"/>
      <point x="179" y="246"/>
      <point x="179" y="248"/>
      <point x="180" y="253" type="curve"/>
      <point x="118" y="260" type="line"/>
      <point x="75" y="161" type="line"/>
      <point x="125" y="157" type="line"/>
      <point x="102" y="225" type="line"/>
      <point x="99" y="208"/>
      <point x="96" y="189"/>
      <point x="96" y="174" type="curve" smooth="yes"/>
      <point x="96" y="35"/>
      <point x="179" y="-10"/>
    </contour>
    <contour>
      <point x="528" y="-8" type="curve" smooth="yes"/>
      <point x="675" y="-8"/>
      <point x="731" y="111"/>
      <point x="731" y="267" type="curve" smooth="yes"/>
      <point x="731" y="471"/>
      <point x="641" y="598"/>
      <point x="472" y="598" type="curve" smooth="yes"/>
      <point x="310" y="598"/>
      <point x="193" y="441"/>
      <point x="11" y="200" type="curve"/>
      <point x="75" y="161" type="line"/>
      <point x="131" y="246"/>
      <point x="198" y="331"/>
      <point x="261" y="400" type="curve"/>
      <point x="267" y="405"/>
      <point x="274" y="415"/>
      <point x="279" y="419" type="curve"/>
      <point x="308" y="447"/>
      <point x="364" y="475"/>
      <point x="442" y="475" type="curve" smooth="yes"/>
      <point x="566" y="475"/>
      <point x="615" y="380"/>
      <point x="615" y="238" type="curve" smooth="yes"/>
      <point x="615" y="137"/>
      <point x="585" y="64"/>
      <point x="516" y="64" type="curve" smooth="yes"/>
      <point x="499" y="64"/>
      <point x="477" y="66"/>
      <point x="461" y="72" type="curve"/>
      <point x="443" y="2" type="line"/>
      <point x="466" y="-4"/>
      <point x="490" y="-8"/>
    </contour>
    <contour>
      <point x="142" y="578" type="curve" smooth="yes"/>
      <point x="79" y="578"/>
      <point x="30" y="542"/>
      <point x="30" y="466" type="curve" smooth="yes"/>
      <point x="30" y="431"/>
      <point x="41" y="403"/>
      <point x="52" y="379" type="curve"/>
      <point x="155" y="407" type="line"/>
      <point x="150" y="422"/>
      <point x="146" y="443"/>
      <point x="146" y="462" type="curve" smooth="yes"/>
      <point x="146" y="482"/>
      <point x="153" y="499"/>
      <point x="166" y="499" type="curve" smooth="yes"/>
      <point x="184" y="499"/>
      <point x="193" y="483"/>
      <point x="205" y="420" type="curve"/>
      <point x="275" y="439" type="line"/>
      <point x="258" y="508"/>
      <point x="231" y="578"/>
    </contour>
  </outline>
</glyph>
<glyph name="thasinh" format="2">
  <advance width="621"/>
  <unicode hex="0DAE"/>
  <outline>
    <contour>
      <point x="275" y="-10" type="curve" smooth="yes"/>
      <point x="497" y="-10"/>
      <point x="593" y="165"/>
      <point x="593" y="403" type="curve" smooth="yes"/>
      <point x="593" y="651"/>
      <point x="460" y="783"/>
      <point x="235" y="817" type="curve"/>
      <point x="222" y="736" type="line"/>
      <point x="389" y="731"/>
      <point x="496" y="629"/>
      <point x="496" y="432" type="curve" smooth="yes"/>
      <point x="496" y="308"/>
      <point x="443" y="181"/>
      <point x="272" y="181" type="curve" smooth="yes"/>
      <point x="181" y="181"/>
      <point x="125" y="220"/>
      <point x="125" y="308" type="curve" smooth="yes"/>
      <point x="125" y="390"/>
      <point x="188" y="438"/>
      <point x="266" y="438" type="curve" smooth="yes"/>
      <point x="287" y="438"/>
      <point x="304" y="437"/>
      <point x="325" y="433" type="curve"/>
      <point x="337" y="503" type="line"/>
      <point x="318" y="507"/>
      <point x="297" y="510"/>
      <point x="268" y="510" type="curve" smooth="yes"/>
      <point x="134" y="510"/>
      <point x="27" y="421"/>
      <point x="27" y="261" type="curve" smooth="yes"/>
      <point x="27" y="82"/>
      <point x="132" y="-10"/>
    </contour>
    <contour>
      <point x="375" y="542" type="curve" smooth="yes"/>
      <point x="435" y="542"/>
      <point x="478" y="585"/>
      <point x="501" y="662" type="curve"/>
      <point x="446" y="713" type="line"/>
      <point x="428" y="648"/>
      <point x="413" y="625"/>
      <point x="380" y="625" type="curve" smooth="yes"/>
      <point x="361" y="625"/>
      <point x="349" y="637"/>
      <point x="341" y="671" type="curve" smooth="yes"/>
      <point x="325" y="736"/>
      <point x="298" y="765"/>
      <point x="260" y="781" type="curve"/>
      <point x="231" y="739" type="line"/>
      <point x="245" y="734"/>
      <point x="256" y="718"/>
      <point x="265" y="665" type="curve" smooth="yes"/>
      <point x="280" y="581"/>
      <point x="312" y="542"/>
    </contour>
  </outline>
</glyph>
<glyph name="dasinh" format="2">
  <advance width="460"/>
  <unicode hex="0DAF"/>
  <outline>
    <contour>
      <point x="307" y="-10" type="curve" smooth="yes"/>
      <point x="360" y="-10"/>
      <point x="415" y="4"/>
      <point x="460" y="28" type="curve"/>
      <point x="435" y="94" type="line"/>
      <point x="395" y="74"/>
      <point x="368" y="70"/>
      <point x="333" y="70" type="curve" smooth="yes"/>
      <point x="255" y="70"/>
      <point x="200" y="118"/>
      <point x="200" y="218" type="curve" smooth="yes"/>
      <point x="200" y="314"/>
      <point x="260" y="375"/>
      <point x="398" y="375" type="curve" smooth="yes"/>
      <point x="433" y="375" type="line"/>
      <point x="433" y="396" type="line" smooth="yes"/>
      <point x="433" y="536"/>
      <point x="382" y="598"/>
      <point x="293" y="598" type="curve" smooth="yes"/>
      <point x="212" y="598"/>
      <point x="183" y="550"/>
      <point x="183" y="499" type="curve" smooth="yes"/>
      <point x="183" y="479"/>
      <point x="190" y="454"/>
      <point x="198" y="441" type="curve"/>
      <point x="300" y="454" type="line"/>
      <point x="297" y="464"/>
      <point x="295" y="478"/>
      <point x="295" y="488" type="curve" smooth="yes"/>
      <point x="295" y="505"/>
      <point x="302" y="519"/>
      <point x="319" y="519" type="curve" smooth="yes"/>
      <point x="337" y="519"/>
      <point x="350" y="499"/>
      <point x="354" y="441" type="curve"/>
      <point x="353" y="441" type="line"/>
      <point x="146" y="439"/>
      <point x="25" y="356"/>
      <point x="25" y="204" type="curve" smooth="yes"/>
      <point x="25" y="71"/>
      <point x="119" y="-10"/>
    </contour>
    <contour>
      <point x="364" y="-286" type="curve" smooth="yes"/>
      <point x="417" y="-286"/>
      <point x="456" y="-274"/>
      <point x="497" y="-253" type="curve"/>
      <point x="465" y="-188" type="line"/>
      <point x="444" y="-199"/>
      <point x="426" y="-205"/>
      <point x="406" y="-205" type="curve" smooth="yes"/>
      <point x="365" y="-205"/>
      <point x="340" y="-181"/>
      <point x="340" y="-131" type="curve" smooth="yes"/>
      <point x="340" y="-80"/>
      <point x="365" y="-41"/>
      <point x="437" y="23" type="curve"/>
      <point x="342" y="10" type="line"/>
      <point x="286" y="-18"/>
      <point x="213" y="-72"/>
      <point x="213" y="-155" type="curve" smooth="yes"/>
      <point x="213" y="-257"/>
      <point x="286" y="-286"/>
    </contour>
  </outline>
</glyph>
<glyph name="dhasinh" format="2">
  <advance width="672"/>
  <unicode hex="0DB0"/>
  <outline>
    <contour>
      <point x="461" y="-10" type="curve" smooth="yes"/>
      <point x="555" y="-10"/>
      <point x="642" y="67"/>
      <point x="642" y="345" type="curve" smooth="yes"/>
      <point x="642" y="683"/>
      <point x="506" y="804"/>
      <point x="306" y="804" type="curve" smooth="yes"/>
      <point x="196" y="804"/>
      <point x="123" y="771"/>
      <point x="39" y="725" type="curve"/>
      <point x="79" y="659" type="line"/>
      <point x="150" y="702"/>
      <point x="218" y="732"/>
      <point x="307" y="732" type="curve" smooth="yes"/>
      <point x="463" y="732"/>
      <point x="545" y="626"/>
      <point x="545" y="387" type="curve" smooth="yes"/>
      <point x="545" y="228"/>
      <point x="502" y="180"/>
      <point x="437" y="180" type="curve" smooth="yes"/>
      <point x="385" y="180"/>
      <point x="365" y="213"/>
      <point x="356" y="263" type="curve"/>
      <point x="287" y="263" type="line"/>
      <point x="270" y="198"/>
      <point x="238" y="180"/>
      <point x="201" y="180" type="curve" smooth="yes"/>
      <point x="157" y="180"/>
      <point x="126" y="208"/>
      <point x="126" y="281" type="curve" smooth="yes"/>
      <point x="126" y="366"/>
      <point x="174" y="438"/>
      <point x="262" y="438" type="curve" smooth="yes"/>
      <point x="280" y="438"/>
      <point x="295" y="438"/>
      <point x="315" y="434" type="curve"/>
      <point x="327" y="504" type="line"/>
      <point x="307" y="508"/>
      <point x="290" y="510"/>
      <point x="266" y="510" type="curve" smooth="yes"/>
      <point x="112" y="510"/>
      <point x="28" y="401"/>
      <point x="28" y="230" type="curve" smooth="yes"/>
      <point x="28" y="90"/>
      <point x="79" y="-10"/>
      <point x="184" y="-10" type="curve" smooth="yes"/>
      <point x="265" y="-10"/>
      <point x="305" y="46"/>
      <point x="320" y="128" type="curve"/>
      <point x="333" y="45"/>
      <point x="374" y="-10"/>
    </contour>
  </outline>
</glyph>
<glyph name="nasinh" format="2">
  <advance width="737"/>
  <unicode hex="0DB1"/>
  <outline>
    <contour>
      <point x="263" y="-10" type="curve" smooth="yes"/>
      <point x="408" y="-10"/>
      <point x="471" y="116"/>
      <point x="471" y="235" type="curve" smooth="yes"/>
      <point x="471" y="386"/>
      <point x="385" y="442"/>
      <point x="291" y="442" type="curve" smooth="yes"/>
      <point x="284" y="442"/>
      <point x="254" y="439"/>
      <point x="236" y="437" type="curve"/>
      <point x="209" y="369" type="line"/>
      <point x="231" y="374"/>
      <point x="262" y="375"/>
      <point x="278" y="375" type="curve" smooth="yes"/>
      <point x="342" y="375"/>
      <point x="375" y="334"/>
      <point x="375" y="283" type="curve" smooth="yes"/>
      <point x="375" y="219"/>
      <point x="335" y="180"/>
      <point x="247" y="180" type="curve" smooth="yes"/>
      <point x="170" y="180"/>
      <point x="109" y="208"/>
      <point x="109" y="290" type="curve" smooth="yes"/>
      <point x="109" y="300"/>
      <point x="109" y="309"/>
      <point x="110" y="314" type="curve"/>
      <point x="32" y="318" type="line"/>
      <point x="30" y="308"/>
      <point x="28" y="287"/>
      <point x="28" y="266" type="curve" smooth="yes"/>
      <point x="28" y="99"/>
      <point x="102" y="-10"/>
    </contour>
    <contour>
      <point x="497" y="-8" type="curve" smooth="yes"/>
      <point x="620" y="-8"/>
      <point x="706" y="74"/>
      <point x="706" y="279" type="curve" smooth="yes"/>
      <point x="706" y="480"/>
      <point x="595" y="598"/>
      <point x="460" y="598" type="curve" smooth="yes"/>
      <point x="342" y="598"/>
      <point x="267" y="514"/>
      <point x="205" y="410" type="curve" smooth="yes"/>
      <point x="146" y="310"/>
      <point x="122" y="304"/>
      <point x="99" y="304" type="curve" smooth="yes"/>
      <point x="85" y="304"/>
      <point x="74" y="307"/>
      <point x="63" y="311" type="curve"/>
      <point x="49" y="255" type="line"/>
      <point x="59" y="246"/>
      <point x="78" y="240"/>
      <point x="99" y="240" type="curve" smooth="yes"/>
      <point x="148" y="240"/>
      <point x="189" y="247"/>
      <point x="246" y="342" type="curve" smooth="yes"/>
      <point x="261" y="367"/>
      <point x="272" y="386"/>
      <point x="284" y="402" type="curve"/>
      <point x="293" y="418" type="line"/>
      <point x="331" y="459"/>
      <point x="368" y="475"/>
      <point x="427" y="475" type="curve" smooth="yes"/>
      <point x="518" y="475"/>
      <point x="590" y="403"/>
      <point x="590" y="252" type="curve" smooth="yes"/>
      <point x="590" y="99"/>
      <point x="533" y="64"/>
      <point x="482" y="64" type="curve" smooth="yes"/>
      <point x="467" y="64"/>
      <point x="445" y="66"/>
      <point x="435" y="70" type="curve"/>
      <point x="419" y="-1" type="line"/>
      <point x="446" y="-6"/>
      <point x="469" y="-8"/>
    </contour>
    <contour>
      <point x="164" y="578" type="curve" smooth="yes"/>
      <point x="101" y="578"/>
      <point x="52" y="542"/>
      <point x="52" y="466" type="curve" smooth="yes"/>
      <point x="52" y="431"/>
      <point x="63" y="403"/>
      <point x="74" y="379" type="curve"/>
      <point x="177" y="407" type="line"/>
      <point x="172" y="422"/>
      <point x="168" y="443"/>
      <point x="168" y="462" type="curve" smooth="yes"/>
      <point x="168" y="482"/>
      <point x="175" y="499"/>
      <point x="188" y="499" type="curve" smooth="yes"/>
      <point x="206" y="499"/>
      <point x="215" y="483"/>
      <point x="227" y="420" type="curve"/>
      <point x="295" y="439" type="line"/>
      <point x="278" y="508"/>
      <point x="253" y="578"/>
    </contour>
  </outline>
</glyph>
<glyph name="ndasinh" format="2">
  <advance width="576"/>
  <unicode hex="0DB3"/>
  <outline>
    <contour>
      <point x="428" y="-10" type="curve" smooth="yes"/>
      <point x="479" y="-10"/>
      <point x="533" y="4"/>
      <point x="576" y="26" type="curve"/>
      <point x="551" y="92" type="line"/>
      <point x="515" y="74"/>
      <point x="487" y="70"/>
      <point x="453" y="70" type="curve" smooth="yes"/>
      <point x="379" y="70"/>
      <point x="326" y="118"/>
      <point x="326" y="218" type="curve" smooth="yes"/>
      <point x="326" y="314"/>
      <point x="383" y="375"/>
      <point x="516" y="375" type="curve" smooth="yes"/>
      <point x="549" y="375" type="line"/>
      <point x="549" y="396" type="line" smooth="yes"/>
      <point x="549" y="536"/>
      <point x="498" y="598"/>
      <point x="409" y="598" type="curve" smooth="yes"/>
      <point x="328" y="598"/>
      <point x="299" y="549"/>
      <point x="299" y="499" type="curve" smooth="yes"/>
      <point x="299" y="479"/>
      <point x="306" y="454"/>
      <point x="314" y="441" type="curve"/>
      <point x="416" y="454" type="line"/>
      <point x="413" y="464"/>
      <point x="411" y="478"/>
      <point x="411" y="488" type="curve" smooth="yes"/>
      <point x="411" y="505"/>
      <point x="418" y="519"/>
      <point x="435" y="519" type="curve" smooth="yes"/>
      <point x="453" y="519"/>
      <point x="466" y="499"/>
      <point x="470" y="441" type="curve"/>
      <point x="469" y="441" type="line"/>
      <point x="270" y="439"/>
      <point x="154" y="356"/>
      <point x="154" y="204" type="curve" smooth="yes"/>
      <point x="154" y="71"/>
      <point x="245" y="-10"/>
    </contour>
    <contour>
      <point x="480" y="-286" type="curve" smooth="yes"/>
      <point x="533" y="-286"/>
      <point x="572" y="-274"/>
      <point x="613" y="-253" type="curve"/>
      <point x="581" y="-188" type="line"/>
      <point x="560" y="-199"/>
      <point x="542" y="-205"/>
      <point x="522" y="-205" type="curve" smooth="yes"/>
      <point x="481" y="-205"/>
      <point x="456" y="-181"/>
      <point x="456" y="-131" type="curve" smooth="yes"/>
      <point x="456" y="-80"/>
      <point x="481" y="-41"/>
      <point x="553" y="23" type="curve"/>
      <point x="458" y="10" type="line"/>
      <point x="402" y="-18"/>
      <point x="329" y="-72"/>
      <point x="329" y="-155" type="curve" smooth="yes"/>
      <point x="329" y="-257"/>
      <point x="402" y="-286"/>
    </contour>
    <contour>
      <point x="28" y="332" type="curve" smooth="yes"/>
      <point x="28" y="231"/>
      <point x="51" y="165"/>
      <point x="87" y="88" type="curve"/>
      <point x="161" y="122" type="line"/>
      <point x="134" y="174"/>
      <point x="111" y="238"/>
      <point x="111" y="325" type="curve" smooth="yes"/>
      <point x="111" y="455"/>
      <point x="182" y="524"/>
      <point x="282" y="524" type="curve" smooth="yes"/>
      <point x="300" y="524"/>
      <point x="320" y="521"/>
      <point x="340" y="516" type="curve"/>
      <point x="366" y="586" type="line"/>
      <point x="339" y="593"/>
      <point x="311" y="596"/>
      <point x="279" y="596" type="curve" smooth="yes"/>
      <point x="140" y="596"/>
      <point x="28" y="507"/>
    </contour>
  </outline>
</glyph>
<glyph name="pasinh" format="2">
  <advance width="609"/>
  <unicode hex="0DB4"/>
  <outline>
    <contour>
      <point x="479" y="429" type="curve"/>
      <point x="550" y="408" type="line"/>
      <point x="555" y="425"/>
      <point x="562" y="451"/>
      <point x="562" y="484" type="curve" smooth="yes"/>
      <point x="562" y="539"/>
      <point x="534" y="598"/>
      <point x="459" y="598" type="curve" smooth="yes"/>
      <point x="373" y="598"/>
      <point x="322" y="521"/>
      <point x="322" y="396" type="curve" smooth="yes"/>
      <point x="322" y="375" type="line"/>
      <point x="340" y="375" type="line" smooth="yes"/>
      <point x="453" y="375"/>
      <point x="483" y="336"/>
      <point x="483" y="287" type="curve" smooth="yes"/>
      <point x="483" y="202"/>
      <point x="403" y="181"/>
      <point x="302" y="181" type="curve" smooth="yes"/>
      <point x="194" y="181"/>
      <point x="126" y="209"/>
      <point x="126" y="284" type="curve" smooth="yes"/>
      <point x="126" y="341"/>
      <point x="164" y="375"/>
      <point x="269" y="375" type="curve" smooth="yes"/>
      <point x="298" y="375" type="line"/>
      <point x="298" y="397" type="line" smooth="yes"/>
      <point x="298" y="536"/>
      <point x="246" y="598"/>
      <point x="158" y="598" type="curve" smooth="yes"/>
      <point x="76" y="598"/>
      <point x="48" y="550"/>
      <point x="48" y="499" type="curve" smooth="yes"/>
      <point x="48" y="470"/>
      <point x="61" y="441"/>
      <point x="72" y="427" type="curve"/>
      <point x="167" y="447" type="line"/>
      <point x="165" y="455"/>
      <point x="160" y="469"/>
      <point x="160" y="488" type="curve" smooth="yes"/>
      <point x="160" y="505"/>
      <point x="167" y="519"/>
      <point x="184" y="519" type="curve" smooth="yes"/>
      <point x="202" y="519"/>
      <point x="216" y="498"/>
      <point x="219" y="438" type="curve"/>
      <point x="256" y="442" type="line"/>
      <point x="242" y="442" type="line" smooth="yes"/>
      <point x="128" y="442"/>
      <point x="28" y="373"/>
      <point x="28" y="239" type="curve" smooth="yes"/>
      <point x="28" y="88"/>
      <point x="115" y="-10"/>
      <point x="305" y="-10" type="curve" smooth="yes"/>
      <point x="488" y="-10"/>
      <point x="581" y="84"/>
      <point x="581" y="239" type="curve" smooth="yes"/>
      <point x="581" y="368"/>
      <point x="488" y="442"/>
      <point x="366" y="442" type="curve" smooth="yes"/>
      <point x="358" y="442" type="line"/>
      <point x="403" y="437" type="line"/>
      <point x="412" y="496"/>
      <point x="432" y="520"/>
      <point x="452" y="520" type="curve" smooth="yes"/>
      <point x="474" y="520"/>
      <point x="484" y="502"/>
      <point x="484" y="471" type="curve" smooth="yes"/>
      <point x="484" y="453"/>
      <point x="481" y="438"/>
    </contour>
  </outline>
</glyph>
<glyph name="phasinh" format="2">
  <advance width="628"/>
  <unicode hex="0DB5"/>
  <outline>
    <contour>
      <point x="282" y="-10" type="curve" smooth="yes"/>
      <point x="504" y="-10"/>
      <point x="600" y="165"/>
      <point x="600" y="403" type="curve" smooth="yes"/>
      <point x="600" y="651"/>
      <point x="467" y="783"/>
      <point x="242" y="817" type="curve"/>
      <point x="229" y="736" type="line"/>
      <point x="396" y="731"/>
      <point x="503" y="629"/>
      <point x="503" y="432" type="curve" smooth="yes"/>
      <point x="503" y="308"/>
      <point x="450" y="181"/>
      <point x="274" y="181" type="curve" smooth="yes"/>
      <point x="177" y="181"/>
      <point x="126" y="213"/>
      <point x="126" y="283" type="curve" smooth="yes"/>
      <point x="126" y="314"/>
      <point x="137" y="335"/>
      <point x="156" y="349" type="curve" smooth="yes"/>
      <point x="181" y="368"/>
      <point x="216" y="375"/>
      <point x="280" y="375" type="curve" smooth="yes"/>
      <point x="357" y="375" type="line"/>
      <point x="357" y="395" type="line" smooth="yes"/>
      <point x="357" y="535"/>
      <point x="306" y="598"/>
      <point x="217" y="598" type="curve" smooth="yes"/>
      <point x="136" y="598"/>
      <point x="107" y="550"/>
      <point x="107" y="499" type="curve" smooth="yes"/>
      <point x="107" y="479"/>
      <point x="115" y="451"/>
      <point x="124" y="438" type="curve"/>
      <point x="224" y="454" type="line"/>
      <point x="221" y="464"/>
      <point x="219" y="478"/>
      <point x="219" y="488" type="curve" smooth="yes"/>
      <point x="219" y="505"/>
      <point x="226" y="519"/>
      <point x="243" y="519" type="curve" smooth="yes"/>
      <point x="261" y="519"/>
      <point x="274" y="498"/>
      <point x="278" y="442" type="curve"/>
      <point x="277" y="442" type="line" smooth="yes"/>
      <point x="201" y="442"/>
      <point x="146" y="428"/>
      <point x="103" y="398" type="curve" smooth="yes"/>
      <point x="56" y="365"/>
      <point x="28" y="314"/>
      <point x="28" y="239" type="curve" smooth="yes"/>
      <point x="28" y="86"/>
      <point x="109" y="-10"/>
    </contour>
    <contour>
      <point x="382" y="542" type="curve" smooth="yes"/>
      <point x="442" y="542"/>
      <point x="485" y="585"/>
      <point x="508" y="662" type="curve"/>
      <point x="453" y="713" type="line"/>
      <point x="435" y="648"/>
      <point x="420" y="625"/>
      <point x="387" y="625" type="curve" smooth="yes"/>
      <point x="368" y="625"/>
      <point x="356" y="637"/>
      <point x="348" y="671" type="curve" smooth="yes"/>
      <point x="332" y="736"/>
      <point x="305" y="765"/>
      <point x="267" y="781" type="curve"/>
      <point x="238" y="739" type="line"/>
      <point x="252" y="734"/>
      <point x="263" y="718"/>
      <point x="272" y="665" type="curve" smooth="yes"/>
      <point x="287" y="581"/>
      <point x="319" y="542"/>
    </contour>
  </outline>
</glyph>
<glyph name="basinh" format="2">
  <advance width="680"/>
  <unicode hex="0DB6"/>
  <outline>
    <contour>
      <point x="454" y="-10" type="curve" smooth="yes"/>
      <point x="558" y="-10"/>
      <point x="651" y="108"/>
      <point x="651" y="361" type="curve" smooth="yes"/>
      <point x="651" y="684"/>
      <point x="514" y="804"/>
      <point x="307" y="804" type="curve" smooth="yes"/>
      <point x="212" y="804"/>
      <point x="125" y="769"/>
      <point x="41" y="723" type="curve"/>
      <point x="81" y="657" type="line"/>
      <point x="152" y="700"/>
      <point x="227" y="732"/>
      <point x="309" y="732" type="curve" smooth="yes"/>
      <point x="491" y="732"/>
      <point x="554" y="589"/>
      <point x="554" y="390" type="curve" smooth="yes"/>
      <point x="554" y="234"/>
      <point x="518" y="145"/>
      <point x="466" y="145" type="curve" smooth="yes"/>
      <point x="451" y="145"/>
      <point x="437" y="153"/>
      <point x="437" y="174" type="curve" smooth="yes"/>
      <point x="437" y="227"/>
      <point x="478" y="268"/>
      <point x="478" y="356" type="curve" smooth="yes"/>
      <point x="478" y="457"/>
      <point x="425" y="563"/>
      <point x="276" y="563" type="curve" smooth="yes"/>
      <point x="142" y="563"/>
      <point x="28" y="456"/>
      <point x="28" y="256" type="curve" smooth="yes"/>
      <point x="28" y="100"/>
      <point x="95" y="-10"/>
      <point x="203" y="-10" type="curve" smooth="yes"/>
      <point x="293" y="-10"/>
      <point x="329" y="50"/>
      <point x="329" y="127" type="curve" smooth="yes"/>
      <point x="329" y="202"/>
      <point x="292" y="253"/>
      <point x="217" y="253" type="curve" smooth="yes"/>
      <point x="151" y="253"/>
      <point x="114" y="201"/>
      <point x="114" y="152" type="curve" smooth="yes"/>
      <point x="114" y="108"/>
      <point x="124" y="75"/>
      <point x="138" y="51" type="curve"/>
      <point x="162" y="56" type="line"/>
      <point x="130" y="102"/>
      <point x="116" y="161"/>
      <point x="116" y="221" type="curve" smooth="yes"/>
      <point x="116" y="342"/>
      <point x="168" y="409"/>
      <point x="257" y="409" type="curve" smooth="yes"/>
      <point x="329" y="409"/>
      <point x="369" y="356"/>
      <point x="369" y="279" type="curve" smooth="yes"/>
      <point x="369" y="201"/>
      <point x="339" y="166"/>
      <point x="339" y="97" type="curve" smooth="yes"/>
      <point x="339" y="30"/>
      <point x="381" y="-10"/>
    </contour>
    <contour>
      <point x="212" y="184" type="curve" smooth="yes"/>
      <point x="241" y="184"/>
      <point x="253" y="159"/>
      <point x="253" y="127" type="curve" smooth="yes"/>
      <point x="253" y="92"/>
      <point x="240" y="69"/>
      <point x="210" y="69" type="curve" smooth="yes"/>
      <point x="184" y="69"/>
      <point x="169" y="90"/>
      <point x="169" y="127" type="curve" smooth="yes"/>
      <point x="169" y="160"/>
      <point x="180" y="184"/>
    </contour>
  </outline>
</glyph>
<glyph name="bhasinh" format="2">
  <advance width="782"/>
  <unicode hex="0DB7"/>
  <outline>
    <contour>
      <point x="261" y="-10" type="curve" smooth="yes"/>
      <point x="432" y="-10"/>
      <point x="478" y="115"/>
      <point x="478" y="210" type="curve" smooth="yes"/>
      <point x="478" y="320"/>
      <point x="423" y="354"/>
      <point x="370" y="354" type="curve" smooth="yes"/>
      <point x="356" y="354"/>
      <point x="347" y="352"/>
      <point x="338" y="349" type="curve"/>
      <point x="384" y="317" type="line"/>
      <point x="419" y="426"/>
      <point x="455" y="463"/>
      <point x="516" y="463" type="curve" smooth="yes"/>
      <point x="575" y="463"/>
      <point x="635" y="411"/>
      <point x="635" y="256" type="curve" smooth="yes"/>
      <point x="635" y="137"/>
      <point x="598" y="64"/>
      <point x="523" y="64" type="curve" smooth="yes"/>
      <point x="498" y="64"/>
      <point x="479" y="67"/>
      <point x="462" y="72" type="curve"/>
      <point x="449" y="2" type="line"/>
      <point x="472" y="-4"/>
      <point x="499" y="-8"/>
      <point x="534" y="-8" type="curve" smooth="yes"/>
      <point x="625" y="-8"/>
      <point x="751" y="39"/>
      <point x="751" y="297" type="curve" smooth="yes"/>
      <point x="751" y="507"/>
      <point x="643" y="598"/>
      <point x="538" y="598" type="curve" smooth="yes"/>
      <point x="421" y="598"/>
      <point x="346" y="508"/>
      <point x="312" y="293" type="curve"/>
      <point x="364" y="280" type="line"/>
      <point x="366" y="283"/>
      <point x="368" y="285"/>
      <point x="372" y="285" type="curve" smooth="yes"/>
      <point x="381" y="285"/>
      <point x="386" y="274"/>
      <point x="386" y="258" type="curve" smooth="yes"/>
      <point x="386" y="206"/>
      <point x="341" y="181"/>
      <point x="271" y="181" type="curve" smooth="yes"/>
      <point x="193" y="181"/>
      <point x="152" y="221"/>
      <point x="152" y="278" type="curve" smooth="yes"/>
      <point x="152" y="326"/>
      <point x="178" y="367"/>
      <point x="240" y="385" type="curve"/>
      <point x="141" y="375" type="line"/>
      <point x="318" y="375" type="line"/>
      <point x="318" y="396" type="line" smooth="yes"/>
      <point x="318" y="536"/>
      <point x="266" y="598"/>
      <point x="179" y="598" type="curve" smooth="yes"/>
      <point x="96" y="598"/>
      <point x="68" y="550"/>
      <point x="68" y="499" type="curve" smooth="yes"/>
      <point x="68" y="485"/>
      <point x="71" y="466"/>
      <point x="78" y="452" type="curve"/>
      <point x="183" y="459" type="line"/>
      <point x="181" y="467"/>
      <point x="180" y="478"/>
      <point x="180" y="488" type="curve" smooth="yes"/>
      <point x="180" y="505"/>
      <point x="187" y="519"/>
      <point x="204" y="519" type="curve" smooth="yes"/>
      <point x="222" y="519"/>
      <point x="235" y="498"/>
      <point x="239" y="442" type="curve"/>
      <point x="23" y="442" type="line"/>
      <point x="23" y="375" type="line"/>
      <point x="48" y="375" type="line" smooth="yes"/>
      <point x="80" y="375"/>
      <point x="125" y="376"/>
      <point x="145" y="380" type="curve"/>
      <point x="168" y="406" type="line"/>
      <point x="93" y="371"/>
      <point x="47" y="302"/>
      <point x="47" y="209" type="curve" smooth="yes"/>
      <point x="47" y="78"/>
      <point x="126" y="-10"/>
    </contour>
  </outline>
</glyph>
<glyph name="masinh" format="2">
  <advance width="667"/>
  <unicode hex="0DB8"/>
  <outline>
    <contour>
      <point x="322" y="-10" type="curve" smooth="yes"/>
      <point x="552" y="-10"/>
      <point x="639" y="169"/>
      <point x="639" y="402" type="curve" smooth="yes"/>
      <point x="639" y="682"/>
      <point x="513" y="804"/>
      <point x="308" y="804" type="curve" smooth="yes"/>
      <point x="191" y="804"/>
      <point x="114" y="769"/>
      <point x="33" y="725" type="curve"/>
      <point x="73" y="659" type="line"/>
      <point x="142" y="702"/>
      <point x="206" y="732"/>
      <point x="307" y="732" type="curve" smooth="yes"/>
      <point x="479" y="732"/>
      <point x="542" y="607"/>
      <point x="542" y="442" type="curve" smooth="yes"/>
      <point x="542" y="284"/>
      <point x="484" y="164"/>
      <point x="317" y="164" type="curve" smooth="yes"/>
      <point x="190" y="164"/>
      <point x="119" y="223"/>
      <point x="119" y="371" type="curve" smooth="yes"/>
      <point x="119" y="443"/>
      <point x="139" y="490"/>
      <point x="157" y="490" type="curve" smooth="yes"/>
      <point x="167" y="490"/>
      <point x="170" y="485"/>
      <point x="170" y="469" type="curve" smooth="yes"/>
      <point x="170" y="443"/>
      <point x="163" y="422"/>
      <point x="163" y="383" type="curve" smooth="yes"/>
      <point x="163" y="286"/>
      <point x="211" y="226"/>
      <point x="320" y="226" type="curve" smooth="yes"/>
      <point x="426" y="226"/>
      <point x="492" y="286"/>
      <point x="492" y="417" type="curve" smooth="yes"/>
      <point x="492" y="499"/>
      <point x="449" y="581"/>
      <point x="353" y="581" type="curve" smooth="yes"/>
      <point x="272" y="581"/>
      <point x="237" y="520"/>
      <point x="237" y="461" type="curve" smooth="yes"/>
      <point x="237" y="390"/>
      <point x="267" y="347"/>
      <point x="333" y="347" type="curve" smooth="yes"/>
      <point x="393" y="347"/>
      <point x="415" y="388"/>
      <point x="415" y="447" type="curve" smooth="yes"/>
      <point x="415" y="482"/>
      <point x="405" y="504"/>
      <point x="393" y="525" type="curve"/>
      <point x="397" y="508" type="line"/>
      <point x="410" y="490"/>
      <point x="424" y="469"/>
      <point x="424" y="414" type="curve" smooth="yes"/>
      <point x="424" y="339"/>
      <point x="383" y="303"/>
      <point x="320" y="303" type="curve" smooth="yes"/>
      <point x="258" y="303"/>
      <point x="233" y="337"/>
      <point x="233" y="396" type="curve" smooth="yes"/>
      <point x="233" y="435"/>
      <point x="242" y="457"/>
      <point x="242" y="490" type="curve" smooth="yes"/>
      <point x="242" y="533"/>
      <point x="226" y="567"/>
      <point x="168" y="567" type="curve" smooth="yes"/>
      <point x="86" y="567"/>
      <point x="28" y="479"/>
      <point x="28" y="329" type="curve" smooth="yes"/>
      <point x="28" y="113"/>
      <point x="126" y="-10"/>
    </contour>
    <contour>
      <point x="361" y="463" type="curve" smooth="yes"/>
      <point x="361" y="429"/>
      <point x="355" y="414"/>
      <point x="331" y="414" type="curve" smooth="yes"/>
      <point x="310" y="414"/>
      <point x="303" y="434"/>
      <point x="303" y="464" type="curve" smooth="yes"/>
      <point x="303" y="493"/>
      <point x="312" y="513"/>
      <point x="334" y="513" type="curve" smooth="yes"/>
      <point x="352" y="513"/>
      <point x="361" y="498"/>
    </contour>
  </outline>
</glyph>
<glyph name="mbasinh" format="2">
  <advance width="694"/>
  <unicode hex="0DB9"/>
  <outline>
    <contour>
      <point x="248" y="-10" type="curve" smooth="yes"/>
      <point x="269" y="-10"/>
      <point x="291" y="-7"/>
      <point x="311" y="-1" type="curve"/>
      <point x="264" y="177" type="line"/>
      <point x="256" y="174"/>
      <point x="239" y="173"/>
      <point x="233" y="173" type="curve" smooth="yes"/>
      <point x="168" y="173"/>
      <point x="119" y="212"/>
      <point x="119" y="325" type="curve" smooth="yes"/>
      <point x="119" y="420"/>
      <point x="153" y="490"/>
      <point x="174" y="490" type="curve" smooth="yes"/>
      <point x="184" y="490"/>
      <point x="187" y="485"/>
      <point x="187" y="469" type="curve" smooth="yes"/>
      <point x="187" y="443"/>
      <point x="180" y="422"/>
      <point x="180" y="383" type="curve" smooth="yes"/>
      <point x="180" y="286"/>
      <point x="228" y="234"/>
      <point x="337" y="234" type="curve" smooth="yes"/>
      <point x="443" y="234"/>
      <point x="509" y="286"/>
      <point x="509" y="417" type="curve" smooth="yes"/>
      <point x="509" y="499"/>
      <point x="466" y="581"/>
      <point x="370" y="581" type="curve" smooth="yes"/>
      <point x="289" y="581"/>
      <point x="254" y="520"/>
      <point x="254" y="461" type="curve" smooth="yes"/>
      <point x="254" y="390"/>
      <point x="284" y="347"/>
      <point x="350" y="347" type="curve" smooth="yes"/>
      <point x="410" y="347"/>
      <point x="432" y="388"/>
      <point x="432" y="447" type="curve" smooth="yes"/>
      <point x="432" y="482"/>
      <point x="422" y="504"/>
      <point x="410" y="525" type="curve"/>
      <point x="414" y="508" type="line"/>
      <point x="427" y="490"/>
      <point x="441" y="469"/>
      <point x="441" y="414" type="curve" smooth="yes"/>
      <point x="441" y="339"/>
      <point x="400" y="303"/>
      <point x="337" y="303" type="curve" smooth="yes"/>
      <point x="275" y="303"/>
      <point x="250" y="337"/>
      <point x="250" y="396" type="curve" smooth="yes"/>
      <point x="250" y="435"/>
      <point x="259" y="457"/>
      <point x="259" y="490" type="curve" smooth="yes"/>
      <point x="259" y="533"/>
      <point x="241" y="567"/>
      <point x="186" y="567" type="curve" smooth="yes"/>
      <point x="94" y="567"/>
      <point x="28" y="447"/>
      <point x="28" y="283" type="curve" smooth="yes"/>
      <point x="28" y="91"/>
      <point x="107" y="-10"/>
    </contour>
    <contour>
      <point x="419" y="-10" type="curve" smooth="yes"/>
      <point x="569" y="-10"/>
      <point x="666" y="100"/>
      <point x="666" y="363" type="curve" smooth="yes"/>
      <point x="666" y="664"/>
      <point x="543" y="804"/>
      <point x="323" y="804" type="curve" smooth="yes"/>
      <point x="207" y="804"/>
      <point x="128" y="776"/>
      <point x="44" y="730" type="curve"/>
      <point x="84" y="664" type="line"/>
      <point x="149" y="704"/>
      <point x="226" y="732"/>
      <point x="324" y="732" type="curve" smooth="yes"/>
      <point x="502" y="732"/>
      <point x="569" y="603"/>
      <point x="569" y="402" type="curve" smooth="yes"/>
      <point x="569" y="232"/>
      <point x="509" y="174"/>
      <point x="422" y="174" type="curve" smooth="yes"/>
      <point x="415" y="174"/>
      <point x="403" y="175"/>
      <point x="392" y="179" type="curve"/>
      <point x="354" y="-2" type="line"/>
      <point x="370" y="-6"/>
      <point x="394" y="-10"/>
    </contour>
    <contour>
      <point x="378" y="463" type="curve" smooth="yes"/>
      <point x="378" y="429"/>
      <point x="372" y="414"/>
      <point x="348" y="414" type="curve" smooth="yes"/>
      <point x="327" y="414"/>
      <point x="320" y="434"/>
      <point x="320" y="464" type="curve" smooth="yes"/>
      <point x="320" y="493"/>
      <point x="329" y="513"/>
      <point x="351" y="513" type="curve" smooth="yes"/>
      <point x="369" y="513"/>
      <point x="378" y="498"/>
    </contour>
    <contour>
      <point x="334" y="210" type="curve" smooth="yes"/>
      <point x="371" y="210"/>
      <point x="388" y="192"/>
      <point x="388" y="169" type="curve" smooth="yes"/>
      <point x="388" y="148"/>
      <point x="378" y="139"/>
      <point x="366" y="133" type="curve"/>
      <point x="354" y="-2" type="line"/>
      <point x="391" y="72" type="line"/>
      <point x="431" y="86"/>
      <point x="466" y="118"/>
      <point x="466" y="169" type="curve" smooth="yes"/>
      <point x="466" y="224"/>
      <point x="430" y="276"/>
      <point x="333" y="276" type="curve" smooth="yes"/>
      <point x="234" y="276"/>
      <point x="201" y="229"/>
      <point x="201" y="170" type="curve" smooth="yes"/>
      <point x="201" y="119"/>
      <point x="235" y="87"/>
      <point x="286" y="71" type="curve"/>
      <point x="311" y="-1" type="line"/>
      <point x="299" y="133" type="line"/>
      <point x="287" y="141"/>
      <point x="279" y="152"/>
      <point x="279" y="170" type="curve" smooth="yes"/>
      <point x="279" y="195"/>
      <point x="300" y="210"/>
    </contour>
  </outline>
</glyph>
<glyph name="yasinh" format="2">
  <advance width="622"/>
  <unicode hex="0DBA"/>
  <outline>
    <contour>
      <point x="447" y="-10" type="curve" smooth="yes"/>
      <point x="538" y="-10"/>
      <point x="594" y="67"/>
      <point x="594" y="204" type="curve" smooth="yes"/>
      <point x="594" y="358"/>
      <point x="488" y="442"/>
      <point x="364" y="442" type="curve"/>
      <point x="408" y="437" type="line"/>
      <point x="417" y="496"/>
      <point x="437" y="520"/>
      <point x="460" y="520" type="curve" smooth="yes"/>
      <point x="484" y="520"/>
      <point x="494" y="502"/>
      <point x="494" y="471" type="curve" smooth="yes"/>
      <point x="494" y="458"/>
      <point x="490" y="437"/>
      <point x="487" y="427" type="curve"/>
      <point x="560" y="405" type="line"/>
      <point x="567" y="428"/>
      <point x="572" y="456"/>
      <point x="572" y="484" type="curve" smooth="yes"/>
      <point x="572" y="546"/>
      <point x="544" y="598"/>
      <point x="466" y="598" type="curve" smooth="yes"/>
      <point x="374" y="598"/>
      <point x="327" y="515"/>
      <point x="327" y="396" type="curve" smooth="yes"/>
      <point x="327" y="375" type="line"/>
      <point x="342" y="375" type="line" smooth="yes"/>
      <point x="449" y="375"/>
      <point x="496" y="333"/>
      <point x="496" y="259" type="curve" smooth="yes"/>
      <point x="496" y="211"/>
      <point x="478" y="180"/>
      <point x="431" y="180" type="curve" smooth="yes"/>
      <point x="387" y="180"/>
      <point x="360" y="200"/>
      <point x="348" y="263" type="curve"/>
      <point x="279" y="263" type="line"/>
      <point x="262" y="195"/>
      <point x="227" y="180"/>
      <point x="193" y="180" type="curve" smooth="yes"/>
      <point x="154" y="180"/>
      <point x="125" y="200"/>
      <point x="125" y="259" type="curve" smooth="yes"/>
      <point x="125" y="330"/>
      <point x="175" y="376"/>
      <point x="239" y="376" type="curve" smooth="yes"/>
      <point x="254" y="376"/>
      <point x="264" y="376"/>
      <point x="273" y="374" type="curve"/>
      <point x="281" y="446" type="line"/>
      <point x="272" y="448"/>
      <point x="260" y="448"/>
      <point x="245" y="448" type="curve" smooth="yes"/>
      <point x="119" y="448"/>
      <point x="27" y="354"/>
      <point x="27" y="202" type="curve" smooth="yes"/>
      <point x="27" y="67"/>
      <point x="81" y="-10"/>
      <point x="175" y="-10" type="curve" smooth="yes"/>
      <point x="257" y="-10"/>
      <point x="294" y="45"/>
      <point x="312" y="128" type="curve"/>
      <point x="328" y="43"/>
      <point x="363" y="-10"/>
    </contour>
  </outline>
</glyph>
<glyph name="rasinh" format="2">
  <advance width="559"/>
  <unicode hex="0DBB"/>
  <outline>
    <contour>
      <point x="274" y="-10" type="curve" smooth="yes"/>
      <point x="430" y="-10"/>
      <point x="530" y="92"/>
      <point x="530" y="297" type="curve" smooth="yes"/>
      <point x="530" y="472"/>
      <point x="430" y="590"/>
      <point x="287" y="590" type="curve" smooth="yes"/>
      <point x="134" y="590"/>
      <point x="29" y="473"/>
      <point x="29" y="288" type="curve" smooth="yes"/>
      <point x="29" y="99"/>
      <point x="116" y="-10"/>
    </contour>
    <contour>
      <point x="277" y="181" type="curve" smooth="yes"/>
      <point x="181" y="181"/>
      <point x="127" y="243"/>
      <point x="127" y="349" type="curve" smooth="yes"/>
      <point x="127" y="441"/>
      <point x="184" y="519"/>
      <point x="282" y="519" type="curve" smooth="yes"/>
      <point x="366" y="519"/>
      <point x="432" y="461"/>
      <point x="432" y="349" type="curve" smooth="yes"/>
      <point x="432" y="247"/>
      <point x="380" y="181"/>
    </contour>
    <contour>
      <point x="158" y="539" type="curve"/>
      <point x="229" y="532" type="line"/>
      <point x="355" y="601"/>
      <point x="478" y="686"/>
      <point x="554" y="771" type="curve"/>
      <point x="474" y="850" type="line"/>
      <point x="393" y="755"/>
      <point x="277" y="647"/>
    </contour>
  </outline>
</glyph>
<glyph name="lasinh" format="2">
  <advance width="690"/>
  <unicode hex="0DBD"/>
  <outline>
    <contour>
      <point x="371" y="-275" type="curve" smooth="yes"/>
      <point x="595" y="-275"/>
      <point x="671" y="-126"/>
      <point x="671" y="51" type="curve" smooth="yes"/>
      <point x="671" y="80"/>
      <point x="670" y="94"/>
      <point x="668" y="116" type="curve"/>
      <point x="590" y="112" type="line"/>
      <point x="591" y="97"/>
      <point x="592" y="77"/>
      <point x="592" y="57" type="curve" smooth="yes"/>
      <point x="592" y="-68"/>
      <point x="539" y="-163"/>
      <point x="410" y="-163" type="curve" smooth="yes"/>
      <point x="280" y="-163"/>
      <point x="179" y="-86"/>
      <point x="179" y="174" type="curve" smooth="yes"/>
      <point x="179" y="399"/>
      <point x="274" y="542"/>
      <point x="435" y="542" type="curve" smooth="yes"/>
      <point x="535" y="542"/>
      <point x="586" y="484"/>
      <point x="586" y="381" type="curve" smooth="yes"/>
      <point x="586" y="291"/>
      <point x="551" y="257"/>
      <point x="503" y="257" type="curve" smooth="yes"/>
      <point x="464" y="257"/>
      <point x="446" y="277"/>
      <point x="446" y="313" type="curve" smooth="yes"/>
      <point x="446" y="345"/>
      <point x="460" y="364"/>
      <point x="486" y="381" type="curve"/>
      <point x="439" y="365" type="line"/>
      <point x="554" y="365" type="line"/>
      <point x="554" y="442" type="line"/>
      <point x="278" y="442" type="line"/>
      <point x="278" y="367" type="line"/>
      <point x="326" y="367" type="line" smooth="yes"/>
      <point x="360" y="367"/>
      <point x="389" y="368"/>
      <point x="416" y="373" type="curve"/>
      <point x="429" y="403" type="line"/>
      <point x="383" y="380"/>
      <point x="352" y="344"/>
      <point x="352" y="282" type="curve" smooth="yes"/>
      <point x="352" y="216"/>
      <point x="392" y="154"/>
      <point x="488" y="154" type="curve" smooth="yes"/>
      <point x="609" y="154"/>
      <point x="664" y="246"/>
      <point x="664" y="374" type="curve" smooth="yes"/>
      <point x="664" y="498"/>
      <point x="601" y="614"/>
      <point x="424" y="614" type="curve" smooth="yes"/>
      <point x="175" y="614"/>
      <point x="26" y="421"/>
      <point x="26" y="157" type="curve" smooth="yes"/>
      <point x="26" y="-145"/>
      <point x="174" y="-275"/>
    </contour>
  </outline>
</glyph>
<glyph name="vasinh" format="2">
  <advance width="628"/>
  <unicode hex="0DC0"/>
  <outline>
    <contour>
      <point x="282" y="-10" type="curve" smooth="yes"/>
      <point x="504" y="-10"/>
      <point x="600" y="165"/>
      <point x="600" y="412" type="curve" smooth="yes"/>
      <point x="600" y="682"/>
      <point x="471" y="804"/>
      <point x="289" y="804" type="curve" smooth="yes"/>
      <point x="182" y="804"/>
      <point x="112" y="769"/>
      <point x="31" y="725" type="curve"/>
      <point x="71" y="659" type="line"/>
      <point x="140" y="702"/>
      <point x="204" y="732"/>
      <point x="288" y="732" type="curve" smooth="yes"/>
      <point x="438" y="732"/>
      <point x="503" y="609"/>
      <point x="503" y="442" type="curve" smooth="yes"/>
      <point x="503" y="308"/>
      <point x="450" y="181"/>
      <point x="274" y="181" type="curve" smooth="yes"/>
      <point x="177" y="181"/>
      <point x="126" y="213"/>
      <point x="126" y="283" type="curve" smooth="yes"/>
      <point x="126" y="314"/>
      <point x="137" y="335"/>
      <point x="156" y="349" type="curve" smooth="yes"/>
      <point x="181" y="368"/>
      <point x="216" y="375"/>
      <point x="280" y="375" type="curve" smooth="yes"/>
      <point x="366" y="375" type="line"/>
      <point x="366" y="395" type="line" smooth="yes"/>
      <point x="366" y="535"/>
      <point x="315" y="598"/>
      <point x="226" y="598" type="curve" smooth="yes"/>
      <point x="145" y="598"/>
      <point x="116" y="550"/>
      <point x="116" y="499" type="curve" smooth="yes"/>
      <point x="116" y="479"/>
      <point x="124" y="451"/>
      <point x="133" y="438" type="curve"/>
      <point x="233" y="454" type="line"/>
      <point x="230" y="464"/>
      <point x="228" y="478"/>
      <point x="228" y="488" type="curve" smooth="yes"/>
      <point x="228" y="505"/>
      <point x="235" y="519"/>
      <point x="252" y="519" type="curve" smooth="yes"/>
      <point x="270" y="519"/>
      <point x="283" y="498"/>
      <point x="287" y="442" type="curve"/>
      <point x="281" y="442" type="line" smooth="yes"/>
      <point x="201" y="442"/>
      <point x="146" y="428"/>
      <point x="103" y="398" type="curve" smooth="yes"/>
      <point x="56" y="365"/>
      <point x="28" y="314"/>
      <point x="28" y="239" type="curve" smooth="yes"/>
      <point x="28" y="86"/>
      <point x="109" y="-10"/>
    </contour>
  </outline>
</glyph>
<glyph name="ssasinh" format="2">
  <advance width="609"/>
  <unicode hex="0DC2"/>
  <outline>
    <contour>
      <point x="305" y="-10" type="curve" smooth="yes"/>
      <point x="489" y="-10"/>
      <point x="581" y="81"/>
      <point x="581" y="237" type="curve" smooth="yes"/>
      <point x="581" y="368"/>
      <point x="488" y="442"/>
      <point x="366" y="442" type="curve" smooth="yes"/>
      <point x="358" y="442" type="line"/>
      <point x="403" y="437" type="line"/>
      <point x="412" y="496"/>
      <point x="432" y="520"/>
      <point x="455" y="520" type="curve" smooth="yes"/>
      <point x="479" y="520"/>
      <point x="487" y="497"/>
      <point x="487" y="471" type="curve" smooth="yes"/>
      <point x="487" y="380"/>
      <point x="434" y="351"/>
      <point x="347" y="351" type="curve" smooth="yes"/>
      <point x="277" y="351" type="line" smooth="yes"/>
      <point x="212" y="351"/>
      <point x="170" y="325"/>
      <point x="170" y="269" type="curve" smooth="yes"/>
      <point x="170" y="198"/>
      <point x="226" y="169"/>
      <point x="299" y="169" type="curve" smooth="yes"/>
      <point x="392" y="169"/>
      <point x="435" y="203"/>
      <point x="435" y="256" type="curve" smooth="yes"/>
      <point x="435" y="291"/>
      <point x="417" y="311"/>
      <point x="383" y="325" type="curve"/>
      <point x="329" y="298" type="line"/>
      <point x="348" y="293"/>
      <point x="362" y="281"/>
      <point x="362" y="265" type="curve" smooth="yes"/>
      <point x="362" y="244"/>
      <point x="341" y="236"/>
      <point x="302" y="236" type="curve" smooth="yes"/>
      <point x="266" y="236"/>
      <point x="243" y="244"/>
      <point x="243" y="264" type="curve" smooth="yes"/>
      <point x="243" y="279"/>
      <point x="253" y="286"/>
      <point x="276" y="286" type="curve" smooth="yes"/>
      <point x="338" y="286" type="line" smooth="yes"/>
      <point x="441" y="286"/>
      <point x="573" y="328"/>
      <point x="573" y="478" type="curve" smooth="yes"/>
      <point x="573" y="543"/>
      <point x="538" y="598"/>
      <point x="467" y="598" type="curve" smooth="yes"/>
      <point x="373" y="598"/>
      <point x="322" y="521"/>
      <point x="322" y="396" type="curve" smooth="yes"/>
      <point x="322" y="375" type="line"/>
      <point x="360" y="375" type="line" smooth="yes"/>
      <point x="453" y="375"/>
      <point x="485" y="338"/>
      <point x="485" y="277" type="curve" smooth="yes"/>
      <point x="485" y="186"/>
      <point x="407" y="144"/>
      <point x="302" y="144" type="curve" smooth="yes"/>
      <point x="189" y="144"/>
      <point x="123" y="197"/>
      <point x="123" y="277" type="curve" smooth="yes"/>
      <point x="123" y="341"/>
      <point x="164" y="375"/>
      <point x="269" y="375" type="curve" smooth="yes"/>
      <point x="298" y="375" type="line"/>
      <point x="298" y="397" type="line" smooth="yes"/>
      <point x="298" y="536"/>
      <point x="246" y="598"/>
      <point x="158" y="598" type="curve" smooth="yes"/>
      <point x="76" y="598"/>
      <point x="48" y="550"/>
      <point x="48" y="499" type="curve" smooth="yes"/>
      <point x="48" y="470"/>
      <point x="61" y="441"/>
      <point x="72" y="427" type="curve"/>
      <point x="167" y="447" type="line"/>
      <point x="165" y="455"/>
      <point x="160" y="469"/>
      <point x="160" y="488" type="curve" smooth="yes"/>
      <point x="160" y="505"/>
      <point x="167" y="519"/>
      <point x="184" y="519" type="curve" smooth="yes"/>
      <point x="202" y="519"/>
      <point x="216" y="498"/>
      <point x="219" y="438" type="curve"/>
      <point x="256" y="442" type="line"/>
      <point x="242" y="442" type="line" smooth="yes"/>
      <point x="128" y="442"/>
      <point x="28" y="373"/>
      <point x="28" y="239" type="curve" smooth="yes"/>
      <point x="28" y="88"/>
      <point x="115" y="-10"/>
    </contour>
  </outline>
</glyph>
<glyph name="sasinh" format="2">
  <advance width="635"/>
  <unicode hex="0DC3"/>
  <outline>
    <contour>
      <point x="461" y="-10" type="curve" smooth="yes"/>
      <point x="552" y="-10"/>
      <point x="608" y="67"/>
      <point x="608" y="204" type="curve" smooth="yes"/>
      <point x="608" y="358"/>
      <point x="502" y="442"/>
      <point x="378" y="442" type="curve"/>
      <point x="423" y="437" type="line"/>
      <point x="432" y="496"/>
      <point x="452" y="520"/>
      <point x="472" y="520" type="curve" smooth="yes"/>
      <point x="494" y="520"/>
      <point x="504" y="502"/>
      <point x="504" y="471" type="curve" smooth="yes"/>
      <point x="504" y="455"/>
      <point x="501" y="439"/>
      <point x="498" y="429" type="curve"/>
      <point x="572" y="413" type="line"/>
      <point x="578" y="436"/>
      <point x="582" y="462"/>
      <point x="582" y="484" type="curve" smooth="yes"/>
      <point x="582" y="539"/>
      <point x="554" y="598"/>
      <point x="479" y="598" type="curve" smooth="yes"/>
      <point x="393" y="598"/>
      <point x="342" y="521"/>
      <point x="342" y="396" type="curve" smooth="yes"/>
      <point x="342" y="375" type="line"/>
      <point x="356" y="375" type="line" smooth="yes"/>
      <point x="463" y="375"/>
      <point x="510" y="333"/>
      <point x="510" y="259" type="curve" smooth="yes"/>
      <point x="510" y="212"/>
      <point x="492" y="180"/>
      <point x="445" y="180" type="curve" smooth="yes"/>
      <point x="401" y="180"/>
      <point x="374" y="200"/>
      <point x="362" y="263" type="curve"/>
      <point x="293" y="263" type="line"/>
      <point x="276" y="198"/>
      <point x="244" y="180"/>
      <point x="208" y="180" type="curve" smooth="yes"/>
      <point x="168" y="180"/>
      <point x="144" y="200"/>
      <point x="144" y="249" type="curve" smooth="yes"/>
      <point x="144" y="311"/>
      <point x="196" y="364"/>
      <point x="254" y="382" type="curve"/>
      <point x="179" y="375" type="line"/>
      <point x="318" y="375" type="line"/>
      <point x="318" y="396" type="line" smooth="yes"/>
      <point x="318" y="536"/>
      <point x="266" y="598"/>
      <point x="179" y="598" type="curve" smooth="yes"/>
      <point x="96" y="598"/>
      <point x="68" y="550"/>
      <point x="68" y="499" type="curve" smooth="yes"/>
      <point x="68" y="485"/>
      <point x="71" y="466"/>
      <point x="78" y="452" type="curve"/>
      <point x="183" y="459" type="line"/>
      <point x="181" y="467"/>
      <point x="180" y="478"/>
      <point x="180" y="488" type="curve" smooth="yes"/>
      <point x="180" y="505"/>
      <point x="187" y="519"/>
      <point x="204" y="519" type="curve" smooth="yes"/>
      <point x="222" y="519"/>
      <point x="235" y="498"/>
      <point x="239" y="442" type="curve"/>
      <point x="23" y="442" type="line"/>
      <point x="23" y="375" type="line"/>
      <point x="53" y="375" type="line" smooth="yes"/>
      <point x="91" y="375"/>
      <point x="131" y="377"/>
      <point x="151" y="381" type="curve"/>
      <point x="176" y="406" type="line"/>
      <point x="133" y="390"/>
      <point x="39" y="316"/>
      <point x="39" y="183" type="curve" smooth="yes"/>
      <point x="39" y="75"/>
      <point x="84" y="-10"/>
      <point x="184" y="-10" type="curve" smooth="yes"/>
      <point x="271" y="-10"/>
      <point x="308" y="45"/>
      <point x="326" y="128" type="curve"/>
      <point x="342" y="43"/>
      <point x="377" y="-10"/>
    </contour>
  </outline>
</glyph>
<glyph name="hasinh" format="2">
  <advance width="762"/>
  <unicode hex="0DC4"/>
  <outline>
    <contour>
      <point x="514" y="-8" type="curve" smooth="yes"/>
      <point x="605" y="-8"/>
      <point x="731" y="39"/>
      <point x="731" y="297" type="curve" smooth="yes"/>
      <point x="731" y="507"/>
      <point x="623" y="598"/>
      <point x="518" y="598" type="curve" smooth="yes"/>
      <point x="401" y="598"/>
      <point x="326" y="508"/>
      <point x="292" y="293" type="curve"/>
      <point x="344" y="280" type="line"/>
      <point x="346" y="283"/>
      <point x="348" y="285"/>
      <point x="352" y="285" type="curve" smooth="yes"/>
      <point x="361" y="285"/>
      <point x="366" y="274"/>
      <point x="366" y="258" type="curve" smooth="yes"/>
      <point x="366" y="205"/>
      <point x="318" y="180"/>
      <point x="246" y="180" type="curve" smooth="yes"/>
      <point x="191" y="180"/>
      <point x="126" y="198"/>
      <point x="126" y="278" type="curve" smooth="yes"/>
      <point x="126" y="341"/>
      <point x="164" y="375"/>
      <point x="269" y="375" type="curve" smooth="yes"/>
      <point x="298" y="375" type="line"/>
      <point x="298" y="397" type="line" smooth="yes"/>
      <point x="298" y="536"/>
      <point x="246" y="598"/>
      <point x="158" y="598" type="curve" smooth="yes"/>
      <point x="76" y="598"/>
      <point x="48" y="550"/>
      <point x="48" y="499" type="curve" smooth="yes"/>
      <point x="48" y="470"/>
      <point x="61" y="441"/>
      <point x="72" y="427" type="curve"/>
      <point x="167" y="447" type="line"/>
      <point x="165" y="455"/>
      <point x="160" y="469"/>
      <point x="160" y="488" type="curve" smooth="yes"/>
      <point x="160" y="505"/>
      <point x="167" y="519"/>
      <point x="184" y="519" type="curve" smooth="yes"/>
      <point x="202" y="519"/>
      <point x="216" y="498"/>
      <point x="219" y="438" type="curve"/>
      <point x="260" y="442" type="line"/>
      <point x="242" y="442" type="line" smooth="yes"/>
      <point x="128" y="442"/>
      <point x="28" y="373"/>
      <point x="28" y="231" type="curve" smooth="yes"/>
      <point x="28" y="92"/>
      <point x="102" y="-10"/>
      <point x="246" y="-10" type="curve" smooth="yes"/>
      <point x="412" y="-10"/>
      <point x="458" y="115"/>
      <point x="458" y="210" type="curve" smooth="yes"/>
      <point x="458" y="320"/>
      <point x="403" y="354"/>
      <point x="350" y="354" type="curve" smooth="yes"/>
      <point x="336" y="354"/>
      <point x="327" y="352"/>
      <point x="318" y="349" type="curve"/>
      <point x="364" y="317" type="line"/>
      <point x="399" y="426"/>
      <point x="435" y="463"/>
      <point x="496" y="463" type="curve" smooth="yes"/>
      <point x="555" y="463"/>
      <point x="615" y="411"/>
      <point x="615" y="256" type="curve" smooth="yes"/>
      <point x="615" y="137"/>
      <point x="578" y="64"/>
      <point x="503" y="64" type="curve" smooth="yes"/>
      <point x="478" y="64"/>
      <point x="459" y="67"/>
      <point x="442" y="72" type="curve"/>
      <point x="429" y="2" type="line"/>
      <point x="452" y="-4"/>
      <point x="479" y="-8"/>
    </contour>
  </outline>
</glyph>
<glyph name="llasinh" format="2">
  <advance width="645"/>
  <unicode hex="0DC5"/>
  <outline>
    <contour>
      <point x="335" y="-275" type="curve" smooth="yes"/>
      <point x="553" y="-275"/>
      <point x="634" y="-129"/>
      <point x="634" y="39" type="curve" smooth="yes"/>
      <point x="634" y="60"/>
      <point x="632" y="81"/>
      <point x="629" y="99" type="curve"/>
      <point x="552" y="93" type="line"/>
      <point x="555" y="76"/>
      <point x="555" y="63"/>
      <point x="555" y="50" type="curve" smooth="yes"/>
      <point x="555" y="-73"/>
      <point x="496" y="-163"/>
      <point x="366" y="-163" type="curve" smooth="yes"/>
      <point x="242" y="-163"/>
      <point x="162" y="-98"/>
      <point x="162" y="88" type="curve" smooth="yes"/>
      <point x="162" y="251"/>
      <point x="261" y="373"/>
      <point x="489" y="373" type="curve" smooth="yes"/>
      <point x="590" y="373" type="line"/>
      <point x="590" y="404" type="line" smooth="yes"/>
      <point x="590" y="526"/>
      <point x="538" y="598"/>
      <point x="460" y="598" type="curve" smooth="yes"/>
      <point x="398" y="598"/>
      <point x="367" y="553"/>
      <point x="355" y="505" type="curve"/>
      <point x="406" y="515" type="line"/>
      <point x="394" y="549"/>
      <point x="371" y="598"/>
      <point x="308" y="598" type="curve" smooth="yes"/>
      <point x="227" y="598"/>
      <point x="171" y="528"/>
      <point x="171" y="397" type="curve" smooth="yes"/>
      <point x="171" y="363"/>
      <point x="174" y="337"/>
      <point x="176" y="311" type="curve"/>
      <point x="192" y="176"/>
      <point x="237" y="66"/>
      <point x="384" y="66" type="curve" smooth="yes"/>
      <point x="516" y="66"/>
      <point x="572" y="163"/>
      <point x="585" y="302" type="curve"/>
      <point x="519" y="311" type="line"/>
      <point x="499" y="212"/>
      <point x="447" y="188"/>
      <point x="385" y="188" type="curve" smooth="yes"/>
      <point x="303" y="188"/>
      <point x="252" y="252"/>
      <point x="252" y="357" type="curve" smooth="yes"/>
      <point x="252" y="387" type="line" smooth="yes"/>
      <point x="252" y="478"/>
      <point x="277" y="519"/>
      <point x="301" y="519" type="curve" smooth="yes"/>
      <point x="320" y="519"/>
      <point x="330" y="500"/>
      <point x="331" y="461" type="curve"/>
      <point x="441" y="461" type="line"/>
      <point x="441" y="499"/>
      <point x="450" y="519"/>
      <point x="470" y="519" type="curve" smooth="yes"/>
      <point x="495" y="519"/>
      <point x="506" y="491"/>
      <point x="511" y="442" type="curve"/>
      <point x="467" y="442" type="line" smooth="yes"/>
      <point x="204" y="442"/>
      <point x="23" y="310"/>
      <point x="23" y="68" type="curve" smooth="yes"/>
      <point x="23" y="-132"/>
      <point x="113" y="-275"/>
    </contour>
  </outline>
</glyph>
<glyph name="fasinh" format="2">
  <advance width="649"/>
  <unicode hex="0DC6"/>
  <outline>
    <contour>
      <point x="413" y="-10" type="curve" smooth="yes"/>
      <point x="537" y="-10"/>
      <point x="616" y="84"/>
      <point x="616" y="298" type="curve" smooth="yes"/>
      <point x="616" y="493"/>
      <point x="554" y="598"/>
      <point x="456" y="598" type="curve" smooth="yes"/>
      <point x="388" y="598"/>
      <point x="348" y="555"/>
      <point x="324" y="468" type="curve"/>
      <point x="304" y="559"/>
      <point x="261" y="598"/>
      <point x="201" y="598" type="curve" smooth="yes"/>
      <point x="103" y="598"/>
      <point x="33" y="491"/>
      <point x="33" y="289" type="curve" smooth="yes"/>
      <point x="33" y="81"/>
      <point x="109" y="-10"/>
      <point x="236" y="-10" type="curve" smooth="yes"/>
      <point x="262" y="-10"/>
      <point x="278" y="-8"/>
      <point x="287" y="-5" type="curve"/>
      <point x="279" y="65" type="line"/>
      <point x="265" y="62"/>
      <point x="255" y="62"/>
      <point x="241" y="62" type="curve" smooth="yes"/>
      <point x="163" y="62"/>
      <point x="130" y="135"/>
      <point x="130" y="246" type="curve" smooth="yes"/>
      <point x="130" y="348"/>
      <point x="155" y="416"/>
      <point x="215" y="416" type="curve" smooth="yes"/>
      <point x="252" y="416"/>
      <point x="278" y="387"/>
      <point x="290" y="316" type="curve"/>
      <point x="359" y="316" type="line"/>
      <point x="371" y="387"/>
      <point x="402" y="416"/>
      <point x="437" y="416" type="curve" smooth="yes"/>
      <point x="497" y="416"/>
      <point x="519" y="343"/>
      <point x="519" y="252" type="curve" smooth="yes"/>
      <point x="519" y="136"/>
      <point x="486" y="62"/>
      <point x="410" y="62" type="curve" smooth="yes"/>
      <point x="393" y="62"/>
      <point x="383" y="63"/>
      <point x="371" y="66" type="curve"/>
      <point x="359" y="-5" type="line"/>
      <point x="372" y="-8"/>
      <point x="389" y="-10"/>
    </contour>
  </outline>
</glyph>
<glyph name="viramasinh" format="2">
  <unicode hex="0DCA"/>
  <outline>
    <contour>
      <point x="-198" y="963" type="curve" smooth="yes"/>
      <point x="-220" y="963"/>
      <point x="-238" y="959"/>
      <point x="-250" y="954" type="curve"/>
      <point x="-240" y="890" type="line"/>
      <point x="-233" y="892"/>
      <point x="-226" y="893"/>
      <point x="-218" y="893" type="curve" smooth="yes"/>
      <point x="-203" y="893"/>
      <point x="-190" y="883"/>
      <point x="-190" y="845" type="curve" smooth="yes"/>
      <point x="-190" y="476" type="line"/>
      <point x="-122" y="476" type="line"/>
      <point x="-122" y="698" type="line" smooth="yes"/>
      <point x="-122" y="724"/>
      <point x="-122" y="761"/>
      <point x="-124" y="791" type="curve"/>
      <point x="-122" y="815" type="line"/>
      <point x="-122" y="901" type="line"/>
      <point x="-130" y="901" type="line"/>
      <point x="-134" y="939"/>
      <point x="-160" y="963"/>
    </contour>
    <contour>
      <point x="-78" y="963" type="curve" smooth="yes"/>
      <point x="-115" y="963"/>
      <point x="-142" y="939"/>
      <point x="-161" y="897" type="curve"/>
      <point x="-124" y="866" type="line"/>
      <point x="-120" y="890"/>
      <point x="-108" y="901"/>
      <point x="-94" y="901" type="curve" smooth="yes"/>
      <point x="-77" y="901"/>
      <point x="-70" y="886"/>
      <point x="-70" y="858" type="curve" smooth="yes"/>
      <point x="-70" y="826"/>
      <point x="-79" y="812"/>
      <point x="-94" y="812" type="curve" smooth="yes"/>
      <point x="-112" y="812"/>
      <point x="-121" y="827"/>
      <point x="-125" y="849" type="curve"/>
      <point x="-144" y="789" type="line"/>
      <point x="-130" y="764"/>
      <point x="-109" y="749"/>
      <point x="-80" y="749" type="curve" smooth="yes"/>
      <point x="-27" y="749"/>
      <point x="0" y="789"/>
      <point x="0" y="859" type="curve" smooth="yes"/>
      <point x="0" y="923"/>
      <point x="-28" y="963"/>
    </contour>
  </outline>
</glyph>
<glyph name="aavowelsignsinh" format="2">
  <advance width="350"/>
  <unicode hex="0DCF"/>
  <outline>
    <contour>
      <point x="318" y="249" type="curve" smooth="yes"/>
      <point x="318" y="450"/>
      <point x="235" y="504"/>
      <point x="148" y="504" type="curve" smooth="yes"/>
      <point x="73" y="504"/>
      <point x="33" y="465"/>
      <point x="1" y="404" type="curve"/>
      <point x="63" y="374" type="line"/>
      <point x="82" y="414"/>
      <point x="97" y="432"/>
      <point x="118" y="432" type="curve" smooth="yes"/>
      <point x="155" y="432"/>
      <point x="168" y="386"/>
      <point x="168" y="249" type="curve" smooth="yes"/>
      <point x="168" y="114"/>
      <point x="155" y="62"/>
      <point x="119" y="62" type="curve" smooth="yes"/>
      <point x="95" y="62"/>
      <point x="77" y="85"/>
      <point x="63" y="125" type="curve"/>
      <point x="1" y="94" type="line"/>
      <point x="30" y="28"/>
      <point x="68" y="-10"/>
      <point x="145" y="-10" type="curve" smooth="yes"/>
      <point x="238" y="-10"/>
      <point x="318" y="38"/>
    </contour>
  </outline>
</glyph>
<glyph name="aevowelsignsinh" format="2">
  <advance width="279"/>
  <unicode hex="0DD0"/>
  <outline>
    <contour>
      <point x="14" y="391" type="line"/>
      <point x="14" y="317" type="line"/>
      <point x="125" y="317" type="line" smooth="yes"/>
      <point x="150" y="317"/>
      <point x="170" y="318"/>
      <point x="187" y="320" type="curve"/>
      <point x="194" y="342" type="line"/>
      <point x="84" y="244"/>
      <point x="4" y="125"/>
      <point x="4" y="-1" type="curve" smooth="yes"/>
      <point x="4" y="-136"/>
      <point x="76" y="-188"/>
      <point x="176" y="-188" type="curve" smooth="yes"/>
      <point x="227" y="-188"/>
      <point x="273" y="-178"/>
      <point x="312" y="-153" type="curve"/>
      <point x="278" y="-89" type="line"/>
      <point x="261" y="-101"/>
      <point x="242" y="-107"/>
      <point x="225" y="-107" type="curve" smooth="yes"/>
      <point x="177" y="-107"/>
      <point x="152" y="-75"/>
      <point x="152" y="7" type="curve" smooth="yes"/>
      <point x="152" y="122"/>
      <point x="185" y="219"/>
      <point x="262" y="322" type="curve"/>
      <point x="230" y="391" type="line"/>
    </contour>
  </outline>
</glyph>
<glyph name="aaevowelsignsinh" format="2">
  <advance width="279"/>
  <unicode hex="0DD1"/>
  <outline>
    <contour>
      <point x="179" y="-188" type="curve" smooth="yes"/>
      <point x="226" y="-188"/>
      <point x="273" y="-178"/>
      <point x="312" y="-153" type="curve"/>
      <point x="278" y="-89" type="line"/>
      <point x="261" y="-101"/>
      <point x="241" y="-107"/>
      <point x="224" y="-107" type="curve" smooth="yes"/>
      <point x="172" y="-107"/>
      <point x="151" y="-75"/>
      <point x="151" y="-18" type="curve" smooth="yes"/>
      <point x="151" y="54"/>
      <point x="186" y="107"/>
      <point x="255" y="170" type="curve"/>
      <point x="224" y="242" type="line"/>
      <point x="165" y="242" type="line" smooth="yes"/>
      <point x="129" y="242"/>
      <point x="80" y="237"/>
      <point x="64" y="234" type="curve"/>
      <point x="73" y="216" type="line"/>
      <point x="134" y="244"/>
      <point x="209" y="289"/>
      <point x="252" y="322" type="curve"/>
      <point x="227" y="391" type="line"/>
      <point x="13" y="391" type="line"/>
      <point x="13" y="317" type="line"/>
      <point x="62" y="317" type="line" smooth="yes"/>
      <point x="111" y="317"/>
      <point x="151" y="320"/>
      <point x="177" y="324" type="curve"/>
      <point x="193" y="354" type="line"/>
      <point x="134" y="323"/>
      <point x="71" y="282"/>
      <point x="19" y="242" type="curve"/>
      <point x="43" y="176" type="line"/>
      <point x="75" y="176" type="line" smooth="yes"/>
      <point x="123" y="176"/>
      <point x="161" y="178"/>
      <point x="195" y="183" type="curve"/>
      <point x="179" y="189" type="line"/>
      <point x="89" y="137"/>
      <point x="3" y="73"/>
      <point x="3" y="-27" type="curve" smooth="yes"/>
      <point x="3" y="-136"/>
      <point x="75" y="-188"/>
    </contour>
  </outline>
</glyph>
<glyph name="ivowelsignsinh" format="2">
  <unicode hex="0DD2"/>
  <outline>
    <contour>
      <point x="-319" y="866" type="curve" smooth="yes"/>
      <point x="-485" y="866"/>
      <point x="-551" y="777"/>
      <point x="-551" y="694" type="curve" smooth="yes"/>
      <point x="-551" y="624"/>
      <point x="-518" y="582"/>
      <point x="-479" y="538" type="curve"/>
      <point x="-416" y="572" type="line"/>
      <point x="-452" y="604"/>
      <point x="-466" y="627"/>
      <point x="-466" y="660" type="curve" smooth="yes"/>
      <point x="-466" y="714"/>
      <point x="-404" y="729"/>
      <point x="-314" y="729" type="curve" smooth="yes"/>
      <point x="-187" y="729"/>
      <point x="-148" y="701"/>
      <point x="-148" y="652" type="curve" smooth="yes"/>
      <point x="-148" y="624"/>
      <point x="-162" y="599"/>
      <point x="-188" y="580" type="curve"/>
      <point x="-123" y="537" type="line"/>
      <point x="-89" y="572"/>
      <point x="-70" y="610"/>
      <point x="-70" y="672" type="curve" smooth="yes"/>
      <point x="-70" y="768"/>
      <point x="-123" y="866"/>
    </contour>
  </outline>
</glyph>
<glyph name="iivowelsignsinh" format="2">
  <unicode hex="0DD3"/>
  <outline>
    <contour>
      <point x="-319" y="866" type="curve" smooth="yes"/>
      <point x="-485" y="866"/>
      <point x="-551" y="777"/>
      <point x="-551" y="694" type="curve" smooth="yes"/>
      <point x="-551" y="619"/>
      <point x="-512" y="574"/>
      <point x="-469" y="530" type="curve"/>
      <point x="-408" y="564" type="line"/>
      <point x="-448" y="600"/>
      <point x="-466" y="623"/>
      <point x="-466" y="660" type="curve" smooth="yes"/>
      <point x="-466" y="718"/>
      <point x="-404" y="735"/>
      <point x="-314" y="735" type="curve" smooth="yes"/>
      <point x="-270" y="735"/>
      <point x="-221" y="730"/>
      <point x="-199" y="722" type="curve"/>
      <point x="-119" y="743" type="line"/>
      <point x="-128" y="751"/>
      <point x="-151" y="757"/>
      <point x="-178" y="757" type="curve" smooth="yes"/>
      <point x="-206" y="757"/>
      <point x="-281" y="737"/>
      <point x="-281" y="651" type="curve" smooth="yes"/>
      <point x="-281" y="557"/>
      <point x="-213" y="535"/>
      <point x="-168" y="535" type="curve" smooth="yes"/>
      <point x="-106" y="535"/>
      <point x="-59" y="569"/>
      <point x="-59" y="659" type="curve" smooth="yes"/>
      <point x="-59" y="775"/>
      <point x="-127" y="866"/>
    </contour>
    <contour>
      <point x="-135" y="657" type="curve" smooth="yes"/>
      <point x="-135" y="615"/>
      <point x="-149" y="603"/>
      <point x="-171" y="603" type="curve" smooth="yes"/>
      <point x="-191" y="603"/>
      <point x="-206" y="615"/>
      <point x="-206" y="654" type="curve" smooth="yes"/>
      <point x="-206" y="693"/>
      <point x="-192" y="709"/>
      <point x="-170" y="709" type="curve" smooth="yes"/>
      <point x="-146" y="709"/>
      <point x="-135" y="695"/>
    </contour>
  </outline>
</glyph>
